<?xml version="1.0" encoding="utf-8"?>
<svg viewBox="128.709 185.129 2000.001 1941.112" width="2000.001" height="1941.112"
  xmlns="http://www.w3.org/2000/svg">
  <path
    d="M 8592.012 22608.97 C 9160.612 22097.57 9688.912 21513.67 10381.313 21189.27 C 11074.912 20864.37 11865.813 20832.17 12604.012 20628.07 C 13730.712 20316.57 13980.55 19836.99 14623.65 18860.79 C 15351.55 17755.89 15460.434 16598.47 14430.434 15768.07 C 13686.334 15168.17 14458.449 13950.268 13680.949 13394.268 C 12713.249 12702.168 12834.948 11646.805 12216.648 10630.305 C 11529.248 9500.305 11091.558 9710.055 10195.905 9310.091 C 8988.178 8770.767 4949.512 9974.97 4389.412 11173.17 C 4014.312 11975.57 3931.112 12907.07 3449.812 13650.67 C 2894.812 14508.07 1885.712 14996.17 1349.312 15865.27 C 745.912 16842.87 907.112 18111.67 1462.212 19071.77 C 2142.312 20247.97 3389.612 20502.87 4248.912 21432.17 C 4764.512 21989.77 4881.712 22889.27 5523.812 23326.77 C 6543.912 24021.67 7809.512 23312.87 8592.012 22608.97"
    style="fill-rule: nonzero; stroke: none; fill: rgb(0, 191, 165); fill-opacity: 0.1;" id="path58"
    transform="matrix(0.133333, 0, 0, -0.133333, 0, 3333.333252)" />
  <path
    d="M 12736.257 13283.657 C 13251.757 14197.557 14962.813 14071.07 14978.113 15120.27 C 14999.913 16620.37 13253.357 16407.342 12952.557 17877.142 C 12750.857 18863.042 11326.942 19468.056 10519.242 20068.356 C 9408.042 20894.256 5956.627 22404.694 4687.927 21850.394 C 2106.027 20722.294 5920.12 19401.068 4420.52 17015.768 C 3599.12 15709.168 3756.782 13766.086 4524.682 12427.286 C 5022.582 11559.286 6370.493 9859.369 7353.129 9670.049 C 10554.719 9053.215 11713.235 11017.272 11713.235 11017.272"
    style="fill-rule: nonzero; stroke: none; fill: rgb(178, 235, 228);" id="path60"
    transform="matrix(0.133333, 0, 0, -0.133333, 0, 3333.333252)" />
  <path
    d="M 3580.213 21969.47 C 3580.213 21419.07 3134.013 20972.87 2583.613 20972.87 C 2033.213 20972.87 1587.113 21419.07 1587.113 21969.47 C 1587.113 22519.87 2017.474 21785.561 2567.874 21785.561 C 3118.274 21785.561 3580.213 22519.87 3580.213 21969.47"
    style="fill-opacity: 1; fill-rule: nonzero; stroke: none; fill: rgb(178, 235, 228);" id="path90"
    transform="matrix(0.133333, 0, 0, -0.133333, 0, 3333.333252)" />
  <path
    d="M 9775.713 23043.47 C 9775.713 22729.77 9521.412 22475.37 9207.613 22475.37 C 8893.913 22475.37 9363.597 22651.076 9363.597 22964.776 C 9363.597 23278.476 8893.913 23611.47 9207.613 23611.47 C 9521.413 23611.47 9775.713 23357.17 9775.713 23043.47"
    style="fill-opacity: 1; fill-rule: nonzero; stroke: none; fill: rgb(178, 235, 228);" id="path94"
    transform="matrix(0.133333, 0, 0, -0.133333, 0, 3333.333252)" />
</svg>