<?xml version="1.0" encoding="utf-8"?>
<svg viewBox="128.709 185.129 2000.001 1941.112" width="2000.001" height="1941.112"
  xmlns="http://www.w3.org/2000/svg">
  <path
    d="M 8592.012 22608.97 C 9160.612 22097.57 9688.912 21513.67 10381.313 21189.27 C 11074.912 20864.37 11865.813 20832.17 12604.012 20628.07 C 13730.712 20316.57 14736.012 19585.17 15379.112 18608.97 C 16107.012 17504.07 16263.112 15827.27 15233.112 14996.87 C 14489.012 14396.97 13388.212 14438.17 12610.712 13882.17 C 11643.012 13190.07 11481.412 11835.67 10863.112 10819.17 C 10175.712 9689.17 8840.912 8986.07 7520.312 9058.27 C 6199.612 9130.57 4949.512 9974.97 4389.412 11173.17 C 4014.312 11975.57 3931.112 12907.07 3449.812 13650.67 C 2894.812 14508.07 1885.712 14996.17 1349.312 15865.27 C 745.912 16842.87 907.112 18111.67 1462.212 19071.77 C 2142.312 20247.97 3389.612 20502.87 4248.912 21432.17 C 4764.512 21989.77 4881.712 22889.27 5523.812 23326.77 C 6543.912 24021.67 7809.512 23312.87 8592.012 22608.97"
    style="fill-rule: nonzero; stroke: none; fill: rgb(0, 191, 165); fill-opacity: 0.1;" id="path58"
    transform="matrix(0.133333, 0, 0, -0.133333, 0, 3333.333252)" />
  <path
    d="M 14341.613 12071.77 C 14857.113 12985.67 14962.813 14071.07 14978.113 15120.27 C 14999.913 16620.37 14858.713 18122.87 14557.913 19592.67 C 14356.213 20578.57 14034.013 21624.27 13226.313 22224.57 C 12115.113 23050.47 10536.613 22719.47 9267.913 22165.17 C 6686.013 21037.07 4456.413 19117.77 2956.813 16732.47 C 2135.413 15425.87 1537.613 13718.87 2305.513 12380.07 C 2803.413 11512.07 3763.413 11020.57 4709.013 10693.07 C 7265.313 9807.97 12694.813 9151.77 14341.613 12071.77"
    style="fill-rule: nonzero; stroke: none; fill: rgb(178, 235, 228);" id="path60"
    transform="matrix(0.133333, 0, 0, -0.133333, 0, 3333.333252)" />
  <path
    d="M 3580.213 21969.47 C 3580.213 21419.07 3134.013 20972.87 2583.613 20972.87 C 2033.213 20972.87 1587.113 21419.07 1587.113 21969.47 C 1587.113 22519.87 2033.213 22965.97 2583.613 22965.97 C 3134.013 22965.97 3580.213 22519.87 3580.213 21969.47"
    style="fill-opacity: 1; fill-rule: nonzero; stroke: none; fill: rgb(178, 235, 228);" id="path90"
    transform="matrix(0.133333, 0, 0, -0.133333, 0, 3333.333252)" />
  <path
    d="M 9775.713 23043.47 C 9775.713 22729.77 9521.412 22475.37 9207.613 22475.37 C 8893.913 22475.37 8639.613 22729.77 8639.613 23043.47 C 8639.613 23357.17 8893.913 23611.47 9207.613 23611.47 C 9521.413 23611.47 9775.713 23357.17 9775.713 23043.47"
    style="fill-opacity: 1; fill-rule: nonzero; stroke: none; fill: rgb(178, 235, 228);" id="path94"
    transform="matrix(0.133333, 0, 0, -0.133333, 0, 3333.333252)" />
</svg>