<?xml version="1.0" encoding="utf-8"?>
<svg viewBox="128.709 185.129 2000.001 1941.112" width="2000.001" height="1941.112"
  xmlns="http://www.w3.org/2000/svg">
  <path
    d="M 8592.012 22608.97 C 9160.612 22097.57 9688.912 21513.67 10381.313 21189.27 C 11074.912 20864.37 11865.813 20832.17 12604.012 20628.07 C 13730.712 20316.57 14736.012 19585.17 15379.112 18608.97 C 16107.012 17504.07 15712.255 15040.331 14682.255 14209.931 C 13938.155 13610.031 13702.988 13871.574 12925.488 13315.574 C 11957.788 12623.474 12221.136 12921.646 11602.836 11905.146 C 10915.436 10775.146 9690.807 10685.858 8370.207 10758.058 C 7049.507 10830.358 5311.504 10620.26 4751.404 11818.46 C 4376.304 12620.86 3931.112 12907.07 3449.812 13650.67 C 2894.812 14508.07 1885.712 14996.17 1349.312 15865.27 C 745.912 16842.87 907.112 18111.67 1462.212 19071.77 C 2142.312 20247.97 2744.322 20125.139 3603.622 21054.439 C 4119.222 21612.039 4881.712 22284.99 5523.812 22722.49 C 6543.912 23417.39 7809.512 23312.87 8592.012 22608.97"
    style="fill-rule: nonzero; stroke: none; fill: rgb(0, 191, 165); fill-opacity: 0.1;" id="path58"
    transform="matrix(0.133333, 0, 0, -0.133333, 0, 3333.333252)" />
  <path
    d="M 14341.613 12071.77 C 14857.113 12985.67 15592.364 14952.442 15607.664 16001.642 C 15629.464 17501.742 14307.856 17603.49 14007.056 19073.29 C 13805.356 20059.19 13357.245 21089.151 12549.545 21689.451 C 11438.345 22515.351 8553.526 22467.649 7284.826 21913.349 C 4702.926 20785.249 4456.413 19117.77 2956.813 16732.47 C 2135.413 15425.87 2308.813 12916.192 3076.713 11577.392 C 3574.613 10709.392 4975.299 9981.81 5920.899 9654.31 C 8477.199 8769.21 12694.813 9151.77 14341.613 12071.77"
    style="fill-rule: nonzero; stroke: none; fill: rgb(178, 235, 228);" id="path60"
    transform="matrix(0.133333, 0, 0, -0.133333, 0, 3333.333252)" />
  <path
    d="M 3580.213 21969.47 C 3580.213 21419.07 3322.878 21098.78 2772.478 21098.78 C 2222.078 21098.78 1571.374 21135.772 1571.374 21686.172 C 1571.374 22236.572 1865.34 22792.843 2415.74 22792.843 C 2966.14 22792.843 3580.213 22519.87 3580.213 21969.47"
    style="fill-opacity: 1; fill-rule: nonzero; stroke: none; fill: rgb(178, 235, 228);" id="path90"
    transform="matrix(0.133333, 0, 0, -0.133333, 0, 3333.333252)" />
  <path
    d="M 9775.713 23043.47 C 9775.713 22729.77 9741.755 22585.541 9427.956 22585.541 C 9114.256 22585.541 8718.307 22651.076 8718.307 22964.776 C 8718.307 23278.476 8893.913 23454.082 9207.613 23454.082 C 9521.413 23454.082 9775.713 23357.17 9775.713 23043.47"
    style="fill-opacity: 1; fill-rule: nonzero; stroke: none; fill: rgb(178, 235, 228);" id="path94"
    transform="matrix(0.133333, 0, 0, -0.133333, 0, 3333.333252)" />
</svg>