<?xml version="1.0" encoding="utf-8"?>
<svg viewBox="639.16 778.094 2055.009 1884.76" width="2055.009" height="1884.76"
  xmlns="http://www.w3.org/2000/svg">
  <path
    d="m 15189.9,18398.3 c 801.6,-547.1 1282.3,-1451.5 1630,-2357.6 809.4,-2108.9 1059.9,-4429.5 719.2,-6662.6 -110.8,-726.4 -296.2,-1471.4 -761.5,-2040.1 -850.5,-1039.5 -2351.4,-1201.7 -3691.9,-1285.5 -1318.1,-82.5 -2790.3,-115 -3777.12,762.7 -658.88,586.1 -960.15,1465.9 -1216.93,2309.5 -440.39,1446.8 -831.17,2937.2 -773.04,4448.4 61.52,1599 767.27,3706.2 2285.01,4502.6 1578.98,828.4 4015.88,1394.4 5586.28,322.6"
    style="fill-rule: nonzero; stroke: none; fill: rgb(0, 191, 165); fill-opacity: 0.1;" id="path20"
    transform="matrix(0.133333, 0, 0, -0.133333, 0, 3333.333252)" />
  <path
    d="m 8345.61,18410.1 c 899.71,637.8 2192.19,824.7 3099.29,197.6 934.1,-645.6 1212.4,-1915.3 2019.8,-2713.7 1325.8,-1310.9 3593,-970.8 5166.9,-1970.2 1280.6,-813.2 1893.2,-2542.9 1409.9,-3980.9 C 19558.2,8505 18025.1,7496.5 16513.3,7621.9 15526,7703.8 14591.2,8211.3 13601.6,8165 11811.3,8081.4 10509.5,6254.4 8731.68,6028 7406.97,5859.3 6080.05,6680 5413.92,7837.5 c -666.13,1157.4 -745.11,2581.5 -475.29,3889.4 272,1318.5 918.5,2481.5 1405.79,3721.8 442.65,1126.7 981.81,2238.8 2001.19,2961.4"
    style="fill-opacity: 1; fill-rule: nonzero; stroke: none; fill: rgb(178, 235, 228);" id="path22"
    transform="matrix(0.133333, 0, 0, -0.133333, 0, 3333.333252)" />
  <path
    d="m 18822.3,16711.3 c 0,-525 -425.6,-950.6 -950.6,-950.6 -525,0 -950.5,425.6 -950.5,950.6 0,524.9 425.5,950.5 950.5,950.5 525,0 950.6,-425.6 950.6,-950.5"
    style="fill-opacity: 1; fill-rule: nonzero; stroke: none; fill: rgb(178, 235, 228);" id="path52"
    transform="matrix(0.133333, 0, 0, -0.133333, 0, 3333.333252)" />
  <path
    d="m 19190.2,18581.7 c 0,-321.8 -260.8,-582.6 -582.6,-582.6 -321.7,0 -582.6,260.8 -582.6,582.6 0,321.8 260.9,582.6 582.6,582.6 321.8,0 582.6,-260.8 582.6,-582.6"
    style="fill-opacity: 1; fill-rule: nonzero; stroke: none; fill: rgb(178, 235, 228);" id="path54"
    transform="matrix(0.133333, 0, 0, -0.133333, 0, 3333.333252)" />
  <path
    d="m 6495.72,5611.2 c 0,-321.7 -260.84,-582.6 -582.6,-582.6 -321.76,0 -582.6,260.9 -582.6,582.6 0,321.8 260.84,582.6 582.6,582.6 321.76,0 582.6,-260.8 582.6,-582.6"
    style="fill-opacity: 1; fill-rule: nonzero; stroke: none; fill: rgb(178, 235, 228);" id="path56"
    transform="matrix(0.133333, 0, 0, -0.133333, 0, 3333.333252)" />
</svg>