<?xml version="1.0" encoding="utf-8"?>
<svg viewBox="3352.577 710.908 1961.505 1911.514" width="1961.505" height="1911.514"
  xmlns="http://www.w3.org/2000/svg">
  <path
    d="M 29778.683 19171.437 C 31294.483 19039.637 36215.9 18320 36819.1 16923.2 C 37422.2 15526.4 37473.7 13957.9 37419.9 12437.3 C 37353.1 10552.4 38786.802 10026.983 37436.102 8710.583 C 36385.802 7686.983 35407.726 6646.633 33968.126 6366.733 C 32911.026 6161.233 30182.875 6414.149 29140.459 6684.534 C 28283.172 6906.9 27692.8 7318 27610.2 8193.4 C 27335.2 11106.5 24950.562 10627.243 25693.762 13385.243 C 26210.962 15304.543 27654.184 19354.737 29763.184 19171.437"
    style="fill-rule: nonzero; stroke: none; fill: rgb(241, 236, 255); fill-opacity: 0.39;"
    id="path96" transform="matrix(0.133333, 0, 0, -0.133333, 0, 3333.333252)" />
  <path
    d="M 30578.5 17918.1 C 31254.9 17456.5 31890.698 18167.147 33045.064 18397.699 C 33848.158 18558.094 34367.187 18397.699 35152.083 18194.451 C 35804.559 18025.493 36577.252 17645.263 37094.06 17416.5 C 37878.063 17069.465 38373.796 16659.055 38927.696 16004.655 C 39481.596 15350.255 39609.558 14952.511 39427.801 13382.474 C 39115.534 10685.082 38446.598 9857.51 38080.718 9621.502 C 36303.364 8475.033 36947.915 8405.707 33986.695 7380.454 C 33454.713 7196.268 31651.6 7364.5 31136.7 7592 C 30291.2 7965.5 29339.7 8021.7 28466.2 8323.9 C 26912.7 8861.3 26941.202 9739.237 26544.202 11334.337 C 26154.302 12901.037 26010.656 14380.997 26710.756 15846.097 C 27553.156 17609.297 29119.9 18913.6 30578.5 17918.1"
    style="fill-opacity: 1; fill-rule: nonzero; stroke: none; fill: rgb(241, 236, 255);" id="path98"
    transform="matrix(0.133333, 0, 0, -0.133333, 0, 3333.333252)" />
  <path
    d="M 27369.2 7102.4 C 27369.2 6554.2 26766.884 6528.368 26218.684 6528.368 C 25670.484 6528.368 25550.883 6753.722 25550.883 7301.922 C 25550.883 7850.122 26153.975 7846.919 26609.182 7769.425 C 27064.389 7691.931 27369.2 7650.6 27369.2 7102.4"
    style="fill-opacity: 1; fill-rule: nonzero; stroke: none; fill: rgb(241, 236, 255);"
    id="path128" transform="matrix(0.133333, 0, 0, -0.133333, 0, 3333.333252)" />
  <path
    d="M 37802.7 18643 C 37802.7 18236.6 37473.2 17907.1 37066.8 17907.1 C 36660.3 17907.1 36315.401 18056.702 36315.401 18463.102 C 36315.401 18869.602 36598.305 18913.936 37004.805 18913.936 C 37411.205 18913.936 37802.7 19049.5 37802.7 18643"
    style="fill-opacity: 1; fill-rule: nonzero; stroke: none; fill: rgb(241, 236, 255);"
    id="path130" transform="matrix(0.133333, 0, 0, -0.133333, 0, 3333.333252)" />
  <path
    d="M 39427.8 17907.1 C 39427.8 17636.2 39316.692 17416.5 39045.692 17416.5 C 38774.792 17416.5 38446.6 17636.2 38446.6 17907.1 C 38446.6 18178.1 38883.283 18463.102 39154.183 18463.102 C 39425.183 18463.102 39427.8 18178.1 39427.8 17907.1"
    style="fill-opacity: 1; fill-rule: nonzero; stroke: none; fill: rgb(241, 236, 255);"
    id="path132" transform="matrix(0.133333, 0, 0, -0.133333, 0, 3333.333252)" />
  <path
    d="M 38545.6 6352.1 C 38545.6 6045.8 38297.2 5797.4 37990.8 5797.4 C 37684.5 5797.4 37172.62 5985.339 37172.62 6291.639 C 37172.62 6598.039 37496.399 7123.883 37802.699 7123.883 C 38109.099 7123.883 38545.6 6658.5 38545.6 6352.1"
    style="fill-opacity: 1; fill-rule: nonzero; stroke: none; fill: rgb(241, 236, 255);"
    id="path134" transform="matrix(0.133333, 0, 0, -0.133333, 0, 3333.333252)" />
</svg>