<svg viewBox="3352.577 710.908 1961.505 1911.514" width="100%"
    xmlns="http://www.w3.org/2000/svg">
    <path style="fill-rule: nonzero; stroke: none; fill: rgb(241, 236, 255); fill-opacity: 0.39;"
        id="path96" transform="matrix(0.133333, 0, 0, -0.133333, 0, 3333.333252)">
        <animate id="animation-to-check" repeatCount="indefinite" attributeName="d"
            dur="20s"
            values="m 33436.4,19651.9 c 1515.8,-131.8 2779.5,-1331.9 3382.7,-2728.7 603.1,-1396.8 654.6,-2965.3 600.8,-4485.9 -66.8,-1884.9 -357.3,-3929.2 -1708,-5245.6 -1050.3,-1023.6 -2551.5,-1413 -3991.1,-1692.9 -1057.1,-205.5 -2266.1,-339.1 -3107.3,333.3 -686.8,549.1 -920.7,1485.9 -1003.3,2361.3 -275,2913.1 734.6,5580.1 1477.8,8338.1 517.2,1919.3 2239.4,3303.7 4348.4,3120.4;
            
            M 33436.4 19651.9 C 34952.2 19520.1 36215.9 18320 36819.1 16923.2 C 37422.2 15526.4 38194.062 14526.702 38446.598 13026.254 C 38731.548 11333.217 38217.034 10125.621 37122.291 8509.098 C 36330.902 7340.515 35252.738 6389.8 33813.138 6109.9 C 32756.038 5904.4 30617.017 5840.193 29574.425 6109.9 C 28949.62 6271.53 27692.8 7318 27610.2 8193.4 C 27335.2 11106.5 26221.464 13029.558 26964.664 15787.558 C 27481.864 17706.858 31327.4 19835.2 33436.4 19651.9;

            m 33436.4,19651.9 c 1515.8,-131.8 2779.5,-1331.9 3382.7,-2728.7 603.1,-1396.8 654.6,-2965.3 600.8,-4485.9 -66.8,-1884.9 -357.3,-3929.2 -1708,-5245.6 -1050.3,-1023.6 -2551.5,-1413 -3991.1,-1692.9 -1057.1,-205.5 -2266.1,-339.1 -3107.3,333.3 -686.8,549.1 -920.7,1485.9 -1003.3,2361.3 -275,2913.1 734.6,5580.1 1477.8,8338.1 517.2,1919.3 2239.4,3303.7 4348.4,3120.4
            " />
    </path>


    <path style="fill-opacity: 1; fill-rule: nonzero; stroke: none; fill: rgb(241, 236, 255);"
        id="path98"
        transform="matrix(0.133333, 0, 0, -0.133333, 0, 3333.333252)">
        <animate id="animation-to-check" repeatCount="indefinite" attributeName="d"
            dur="20s"
            values="m 30578.5,17918.1 c 676.4,-461.6 1281.2,-1031.2 2001.6,-1420.6 720.4,-389.5 1616.6,-579.1 2355,-224.9 607.7,291.5 1022.2,906.6 1647.5,1158.3 795.3,320.3 1744.7,-58.9 2298.6,-713.3 553.9,-654.4 780.7,-1524.1 891.7,-2374.2 274,-2097.3 -112.8,-4361.9 -1459.7,-5992.8 -1346.8,-1630.8 -3767.6,-2440.2 -5690.4,-1559.1 -511.8,234.5 -971.2,573 -1486.1,800.5 -845.5,373.5 -1797,429.7 -2670.5,731.9 -1553.5,537.4 -2795.9,1895.8 -3192.9,3490.9 -389.9,1566.7 163.9,3821.6 864,5286.7 842.4,1763.2 2982.6,1812.1 4441.2,816.6;
            
            M 31818.404 16941.676 C 32494.804 16480.076 32516.399 16525.715 32580.1 16497.5 C 33328.888 16165.834 34196.7 15918.4 34935.1 16272.6 C 35542.8 16564.1 35957.3 16791.73 36582.6 17043.43 C 37377.9 17363.73 38249.806 17093.022 38803.706 16438.622 C 39357.606 15784.222 39661.9 15193.5 39772.9 14343.4 C 40046.9 12246.1 39149.599 10058.994 37802.699 8428.094 C 36455.899 6797.294 35218.06 6478.867 33103.263 6512.521 C 32002.509 6530.038 31228.245 6940.753 30702.734 7142.535 C 29810.738 7485.037 29386.196 7711.724 28466.2 8323.9 C 27097.662 9234.54 26522.734 9475.758 26125.734 11070.858 C 25735.834 12637.558 26669.099 14659.976 27369.199 16125.076 C 28211.599 17888.276 30351.799 17937.176 31810.399 16941.676;
            
            m 30578.5,17918.1 c 676.4,-461.6 1281.2,-1031.2 2001.6,-1420.6 720.4,-389.5 1616.6,-579.1 2355,-224.9 607.7,291.5 1022.2,906.6 1647.5,1158.3 795.3,320.3 1744.7,-58.9 2298.6,-713.3 553.9,-654.4 780.7,-1524.1 891.7,-2374.2 274,-2097.3 -112.8,-4361.9 -1459.7,-5992.8 -1346.8,-1630.8 -3767.6,-2440.2 -5690.4,-1559.1 -511.8,234.5 -971.2,573 -1486.1,800.5 -845.5,373.5 -1797,429.7 -2670.5,731.9 -1553.5,537.4 -2795.9,1895.8 -3192.9,3490.9 -389.9,1566.7 163.9,3821.6 864,5286.7 842.4,1763.2 2982.6,1812.1 4441.2,816.6" />
    </path>

    <path
        d="m 27369.2,7102.4 c 0,-548.2 -444.3,-992.5 -992.5,-992.5 -548.2,0 -992.5,444.3 -992.5,992.5 0,548.2 444.3,992.5 992.5,992.5 548.2,0 992.5,-444.3 992.5,-992.5"
        style="fill-opacity: 1; fill-rule: nonzero; stroke: none; fill: rgb(241, 236, 255);"
        id="path128" transform="matrix(0.133333, 0, 0, -0.133333, 0, 3333.333252)" />
    <path
        d="m 37802.7,18643 c 0,-406.4 -329.5,-735.9 -735.9,-735.9 -406.5,0 -735.9,329.5 -735.9,735.9 0,406.5 329.4,735.9 735.9,735.9 406.4,0 735.9,-329.4 735.9,-735.9"
        style="fill-opacity: 1; fill-rule: nonzero; stroke: none; fill: rgb(241, 236, 255);"
        id="path130" transform="matrix(0.133333, 0, 0, -0.133333, 0, 3333.333252)" />
    <path
        d="m 39427.8,17907.1 c 0,-270.9 -219.6,-490.6 -490.6,-490.6 -270.9,0 -490.6,219.7 -490.6,490.6 0,271 219.7,490.6 490.6,490.6 271,0 490.6,-219.6 490.6,-490.6"
        style="fill-opacity: 1; fill-rule: nonzero; stroke: none; fill: rgb(241, 236, 255);"
        id="path132" transform="matrix(0.133333, 0, 0, -0.133333, 0, 3333.333252)" />
    <path
        d="m 38545.6,6352.1 c 0,-306.3 -248.4,-554.7 -554.8,-554.7 -306.3,0 -554.7,248.4 -554.7,554.7 0,306.4 248.4,554.8 554.7,554.8 306.4,0 554.8,-248.4 554.8,-554.8"
        style="fill-opacity: 1; fill-rule: nonzero; stroke: none; fill: rgb(241, 236, 255);"
        id="path134" transform="matrix(0.133333, 0, 0, -0.133333, 0, 3333.333252)" />
</svg>