<?xml version="1.0" encoding="utf-8"?>
<svg viewBox="3352.577 710.908 1961.505 1911.514" width="1961.505" height="1911.514"
  xmlns="http://www.w3.org/2000/svg">
  <path
    d="M 33436.4 19651.9 C 34952.2 19520.1 36215.9 18320 36819.1 16923.2 C 37422.2 15526.4 38194.062 14526.702 38446.598 13026.254 C 38731.548 11333.217 38217.034 10125.621 37122.291 8509.098 C 36330.902 7340.515 35252.738 6389.8 33813.138 6109.9 C 32756.038 5904.4 30617.017 5840.193 29574.425 6109.9 C 28949.62 6271.53 27692.8 7318 27610.2 8193.4 C 27335.2 11106.5 26221.464 13029.558 26964.664 15787.558 C 27481.864 17706.858 31327.4 19835.2 33436.4 19651.9"
    style="fill-rule: nonzero; stroke: none; fill: rgb(241, 236, 255); fill-opacity: 0.39;"
    id="path96" transform="matrix(0.133333, 0, 0, -0.133333, 0, 3333.333252)" />
  <path
    d="M 31818.404 16941.676 C 32494.804 16480.076 32516.399 16525.715 32580.1 16497.5 C 33328.888 16165.834 34196.7 15918.4 34935.1 16272.6 C 35542.8 16564.1 35957.3 16791.73 36582.6 17043.43 C 37377.9 17363.73 38249.806 17093.022 38803.706 16438.622 C 39357.606 15784.222 39661.9 15193.5 39772.9 14343.4 C 40046.9 12246.1 39149.599 10058.994 37802.699 8428.094 C 36455.899 6797.294 35218.06 6478.867 33103.263 6512.521 C 32002.509 6530.038 31228.245 6940.753 30702.734 7142.535 C 29810.738 7485.037 29386.196 7711.724 28466.2 8323.9 C 27097.662 9234.54 26522.734 9475.758 26125.734 11070.858 C 25735.834 12637.558 26669.099 14659.976 27369.199 16125.076 C 28211.599 17888.276 30351.799 17937.176 31810.399 16941.676"
    style="fill-opacity: 1; fill-rule: nonzero; stroke: none; fill: rgb(241, 236, 255);" id="path98"
    transform="matrix(0.133333, 0, 0, -0.133333, 0, 3333.333252)" />
  <path
    d="M 27369.2 7102.4 C 27369.2 6554.2 26581.999 6510.204 26033.799 6510.204 C 25485.599 6510.204 25384.2 6554.2 25384.2 7102.4 C 25384.2 7650.6 25485.599 8249.697 26033.799 8249.697 C 26581.999 8249.697 27369.2 7650.6 27369.2 7102.4"
    style="fill-opacity: 1; fill-rule: nonzero; stroke: none; fill: rgb(241, 236, 255);"
    id="path128" transform="matrix(0.133333, 0, 0, -0.133333, 0, 3333.333252)" />
  <path
    d="M 37802.7 18643 C 37802.7 18236.6 37436.102 18397.699 37153.024 18131.281 C 36857.007 17852.685 36330.9 18236.6 36330.9 18643 C 36330.9 19049.5 36643.055 19223.698 37049.555 19223.698 C 37455.955 19223.698 37802.7 19049.5 37802.7 18643"
    style="fill-opacity: 1; fill-rule: nonzero; stroke: none; fill: rgb(241, 236, 255);"
    id="path130" transform="matrix(0.133333, 0, 0, -0.133333, 0, 3333.333252)" />
  <path
    d="M 39427.8 17907.1 C 39427.8 17636.2 39208.2 17416.5 38937.2 17416.5 C 38666.3 17416.5 38644.396 17636.2 38644.396 17907.1 C 38644.396 18178.1 38829.697 18346.101 39100.597 18346.101 C 39371.597 18346.101 39427.8 18178.1 39427.8 17907.1"
    style="fill-opacity: 1; fill-rule: nonzero; stroke: none; fill: rgb(241, 236, 255);"
    id="path132" transform="matrix(0.133333, 0, 0, -0.133333, 0, 3333.333252)" />
  <path
    d="M 38545.6 6352.1 C 38545.6 6045.8 38030.605 5720.001 37724.205 5720.001 C 37417.905 5720.001 37436.1 6045.8 37436.1 6352.1 C 37436.1 6658.5 37684.5 6906.9 37990.8 6906.9 C 38297.2 6906.9 38545.6 6658.5 38545.6 6352.1"
    style="fill-opacity: 1; fill-rule: nonzero; stroke: none; fill: rgb(241, 236, 255);"
    id="path134" transform="matrix(0.133333, 0, 0, -0.133333, 0, 3333.333252)" />
</svg>