<?xml version="1.0" encoding="utf-8"?>
<svg viewBox="3352.577 710.908 1961.505 1911.514" width="1961.505" height="1911.514"
  xmlns="http://www.w3.org/2000/svg">
  <path
    d="m 33436.4,19651.9 c 1515.8,-131.8 2779.5,-1331.9 3382.7,-2728.7 603.1,-1396.8 654.6,-2965.3 600.8,-4485.9 -66.8,-1884.9 -357.3,-3929.2 -1708,-5245.6 -1050.3,-1023.6 -2551.5,-1413 -3991.1,-1692.9 -1057.1,-205.5 -2266.1,-339.1 -3107.3,333.3 -686.8,549.1 -920.7,1485.9 -1003.3,2361.3 -275,2913.1 734.6,5580.1 1477.8,8338.1 517.2,1919.3 2239.4,3303.7 4348.4,3120.4"
    style="fill-rule: nonzero; stroke: none; fill: rgb(241, 236, 255); fill-opacity: 0.39;"
    id="path96" transform="matrix(0.133333, 0, 0, -0.133333, 0, 3333.333252)" />
  <path
    d="m 30578.5,17918.1 c 676.4,-461.6 1281.2,-1031.2 2001.6,-1420.6 720.4,-389.5 1616.6,-579.1 2355,-224.9 607.7,291.5 1022.2,906.6 1647.5,1158.3 795.3,320.3 1744.7,-58.9 2298.6,-713.3 553.9,-654.4 780.7,-1524.1 891.7,-2374.2 274,-2097.3 -112.8,-4361.9 -1459.7,-5992.8 -1346.8,-1630.8 -3767.6,-2440.2 -5690.4,-1559.1 -511.8,234.5 -971.2,573 -1486.1,800.5 -845.5,373.5 -1797,429.7 -2670.5,731.9 -1553.5,537.4 -2795.9,1895.8 -3192.9,3490.9 -389.9,1566.7 163.9,3821.6 864,5286.7 842.4,1763.2 2982.6,1812.1 4441.2,816.6"
    style="fill-opacity: 1; fill-rule: nonzero; stroke: none; fill: rgb(241, 236, 255);" id="path98"
    transform="matrix(0.133333, 0, 0, -0.133333, 0, 3333.333252)" />
  <path
    d="m 27369.2,7102.4 c 0,-548.2 -444.3,-992.5 -992.5,-992.5 -548.2,0 -992.5,444.3 -992.5,992.5 0,548.2 444.3,992.5 992.5,992.5 548.2,0 992.5,-444.3 992.5,-992.5"
    style="fill-opacity: 1; fill-rule: nonzero; stroke: none; fill: rgb(241, 236, 255);"
    id="path128" transform="matrix(0.133333, 0, 0, -0.133333, 0, 3333.333252)" />
  <path
    d="m 37802.7,18643 c 0,-406.4 -329.5,-735.9 -735.9,-735.9 -406.5,0 -735.9,329.5 -735.9,735.9 0,406.5 329.4,735.9 735.9,735.9 406.4,0 735.9,-329.4 735.9,-735.9"
    style="fill-opacity: 1; fill-rule: nonzero; stroke: none; fill: rgb(241, 236, 255);"
    id="path130" transform="matrix(0.133333, 0, 0, -0.133333, 0, 3333.333252)" />
  <path
    d="m 39427.8,17907.1 c 0,-270.9 -219.6,-490.6 -490.6,-490.6 -270.9,0 -490.6,219.7 -490.6,490.6 0,271 219.7,490.6 490.6,490.6 271,0 490.6,-219.6 490.6,-490.6"
    style="fill-opacity: 1; fill-rule: nonzero; stroke: none; fill: rgb(241, 236, 255);"
    id="path132" transform="matrix(0.133333, 0, 0, -0.133333, 0, 3333.333252)" />
  <path
    d="m 38545.6,6352.1 c 0,-306.3 -248.4,-554.7 -554.8,-554.7 -306.3,0 -554.7,248.4 -554.7,554.7 0,306.4 248.4,554.8 554.7,554.8 306.4,0 554.8,-248.4 554.8,-554.8"
    style="fill-opacity: 1; fill-rule: nonzero; stroke: none; fill: rgb(241, 236, 255);"
    id="path134" transform="matrix(0.133333, 0, 0, -0.133333, 0, 3333.333252)" />
</svg>