<?xml version="1.0" encoding="utf-8"?>
<svg viewBox="639.16 778.094 2055.009 1884.76" width="2055.009" height="1884.76"
  xmlns="http://www.w3.org/2000/svg">
  <path
    d="M 14593.907 17404.978 C 15395.507 16857.878 17677.3 15189.384 18025 14283.284 C 18834.4 12174.384 17879.8 11611.2 17539.1 9378.1 C 17428.3 8651.7 17242.9 7906.7 16777.6 7338 C 15927.1 6298.5 14426.2 6136.3 13085.7 6052.5 C 11767.6 5970 8155.937 5647.144 7169.117 6524.844 C 6510.237 7110.944 5587.3 8296.382 5330.52 9139.982 C 4890.13 10586.782 4983.48 11175.551 5041.61 12686.751 C 5103.13 14285.751 5976.981 17389.153 7494.721 18185.553 C 9073.701 19013.953 13023.507 18476.778 14593.907 17404.978"
    style="fill-rule: nonzero; stroke: none; fill: rgb(0, 191, 165); fill-opacity: 0.1;" id="path20"
    transform="matrix(0.133333, 0, 0, -0.133333, 0, 3333.333252)" />
  <path
    d="M 8269.2 17432.06 C 9168.91 18069.86 10244.853 18426.276 11261.517 17999.1 C 12470.691 17491.037 13693.964 17640.424 14687.25 17090.224 C 16502.07 16084.962 17057.7 14923.2 18631.6 13923.8 C 19912.2 13110.6 20524.8 11380.9 20041.5 9942.9 C 19558.2 8505 18010.62 7204.809 16620.273 6598.014 C 15694.101 6193.8 14713.455 5842.609 13723.855 5796.309 C 11933.555 5712.709 12557.271 7675.615 10779.451 7449.215 C 9454.741 7280.515 7837.466 7260.711 7171.336 8418.211 C 6505.206 9575.611 4668.81 10419 4938.63 11726.9 C 5210.63 13045.4 5558.108 14372.824 6344.42 15448.7 C 7703.983 17308.93 8227.86 17381.863 8284.482 17432.06"
    style="fill-opacity: 1; fill-rule: nonzero; stroke: none; fill: rgb(178, 235, 228);" id="path22"
    transform="matrix(0.133333, 0, 0, -0.133333, 0, 3333.333252)" />
  <path
    d="M 18822.3 16711.3 C 18822.3 16186.3 17785.425 16081.619 17260.425 16081.619 C 16735.425 16081.619 16921.2 16186.3 16921.2 16711.3 C 16921.2 17236.2 17270.291 17249.189 17795.291 17249.189 C 18320.291 17249.189 18822.3 17236.2 18822.3 16711.3"
    style="fill-opacity: 1; fill-rule: nonzero; stroke: none; fill: rgb(178, 235, 228);" id="path52"
    transform="matrix(0.133333, 0, 0, -0.133333, 0, 3333.333252)" />
  <path
    d="M 19190.2 18581.7 C 19190.2 18259.9 18929.4 17999.1 18607.6 17999.1 C 18285.9 17999.1 18342.246 18267.811 18342.246 18589.611 C 18342.246 18911.411 18500.601 18996.199 18822.301 18996.199 C 19144.101 18996.199 19190.2 18903.5 19190.2 18581.7"
    style="fill-opacity: 1; fill-rule: nonzero; stroke: none; fill: rgb(178, 235, 228);" id="path54"
    transform="matrix(0.133333, 0, 0, -0.133333, 0, 3333.333252)" />
  <path
    d="M 6495.72 5611.2 C 6495.72 5289.5 6387.699 5793.71 6065.939 5793.71 C 5744.179 5793.71 5330.52 5289.5 5330.52 5611.2 C 5330.52 5933 5591.36 6193.8 5913.12 6193.8 C 6234.88 6193.8 6495.72 5933 6495.72 5611.2"
    style="fill-opacity: 1; fill-rule: nonzero; stroke: none; fill: rgb(178, 235, 228);" id="path56"
    transform="matrix(0.133333, 0, 0, -0.133333, 0, 3333.333252)" />
</svg>