<?xml version="1.0" encoding="utf-8"?>
<svg version="1.1" id="svg2" width="8666.667" height="3333.3333" viewBox="0 0 8666.667 3333.3333" xmlns="http://www.w3.org/2000/svg">
  <g id="g8" transform="matrix(1.3333333,0,0,-1.3333333,0,3333.3333)">
    <g id="g10" transform="scale(0.1)">
      <path d="M 65000,0 H 0 V 25000 H 65000 V 0" style="fill:#ffffff;fill-opacity:1;fill-rule:nonzero;stroke:none" id="path12"/>
      <path d="m 15189.9,18398.3 c 801.6,-547.1 1282.3,-1451.5 1630,-2357.6 809.4,-2108.9 1059.9,-4429.5 719.2,-6662.6 -110.8,-726.4 -296.2,-1471.4 -761.5,-2040.1 -850.5,-1039.5 -2351.4,-1201.7 -3691.9,-1285.5 -1318.1,-82.5 -2790.3,-115 -3777.12,762.7 -658.88,586.1 -960.15,1465.9 -1216.93,2309.5 -440.39,1446.8 -831.17,2937.2 -773.04,4448.4 61.52,1599 767.27,3706.2 2285.01,4502.6 1578.98,828.4 4015.88,1394.4 5586.28,322.6" style="fill-rule: nonzero; stroke: none; fill: rgb(0, 191, 165); fill-opacity: 0.1;" id="path20"/>
      <path d="m 8345.61,18410.1 c 899.71,637.8 2192.19,824.7 3099.29,197.6 934.1,-645.6 1212.4,-1915.3 2019.8,-2713.7 1325.8,-1310.9 3593,-970.8 5166.9,-1970.2 1280.6,-813.2 1893.2,-2542.9 1409.9,-3980.9 C 19558.2,8505 18025.1,7496.5 16513.3,7621.9 15526,7703.8 14591.2,8211.3 13601.6,8165 11811.3,8081.4 10509.5,6254.4 8731.68,6028 7406.97,5859.3 6080.05,6680 5413.92,7837.5 c -666.13,1157.4 -745.11,2581.5 -475.29,3889.4 272,1318.5 918.5,2481.5 1405.79,3721.8 442.65,1126.7 981.81,2238.8 2001.19,2961.4" style="fill-opacity: 1; fill-rule: nonzero; stroke: none; fill: rgb(178, 235, 228);" id="path22"/>
      <path d="m 18822.3,16711.3 c 0,-525 -425.6,-950.6 -950.6,-950.6 -525,0 -950.5,425.6 -950.5,950.6 0,524.9 425.5,950.5 950.5,950.5 525,0 950.6,-425.6 950.6,-950.5" style="fill-opacity: 1; fill-rule: nonzero; stroke: none; fill: rgb(178, 235, 228);" id="path52"/>
      <path d="m 19190.2,18581.7 c 0,-321.8 -260.8,-582.6 -582.6,-582.6 -321.7,0 -582.6,260.8 -582.6,582.6 0,321.8 260.9,582.6 582.6,582.6 321.8,0 582.6,-260.8 582.6,-582.6" style="fill-opacity: 1; fill-rule: nonzero; stroke: none; fill: rgb(178, 235, 228);" id="path54"/>
      <path d="m 6495.72,5611.2 c 0,-321.7 -260.84,-582.6 -582.6,-582.6 -321.76,0 -582.6,260.9 -582.6,582.6 0,321.8 260.84,582.6 582.6,582.6 321.76,0 582.6,-260.8 582.6,-582.6" style="fill-opacity: 1; fill-rule: nonzero; stroke: none; fill: rgb(178, 235, 228);" id="path56"/>
      <path d="m 52626.7,18776.6 c 568.6,-511.4 1096.9,-1095.3 1789.3,-1419.7 693.6,-324.9 1484.5,-357.1 2222.7,-561.2 1126.7,-311.5 2132,-1042.9 2775.1,-2019.1 727.9,-1104.9 884,-2781.7 -146,-3612.1 -744.1,-599.9 -1844.9,-558.7 -2622.4,-1114.7 -967.7,-692.1 -1129.3,-2046.5 -1747.6,-3063 -687.4,-1130 -2022.2,-1833.1 -3342.8,-1760.9 -1320.7,72.3 -2570.8,916.7 -3130.9,2114.9 -375.1,802.4 -458.3,1733.9 -939.6,2477.5 -555,857.4 -1564.1,1345.5 -2100.5,2214.6 -603.4,977.6 -442.2,2246.4 112.9,3206.5 680.1,1176.2 1927.4,1431.1 2786.7,2360.4 515.6,557.6 632.8,1457.1 1274.9,1894.6 1020.1,694.9 2285.7,-13.9 3068.2,-717.8" style="fill-rule: nonzero; stroke: none; fill: rgb(0, 191, 165); fill-opacity: 0.1;" id="path58"/>
      <path d="m 58376.3,8239.4 c 515.5,913.9 621.2,1999.3 636.5,3048.5 21.8,1500.1 -119.4,3002.6 -420.2,4472.4 -201.7,985.9 -523.9,2031.6 -1331.6,2631.9 -1111.2,825.9 -2689.7,494.9 -3958.4,-59.4 -2581.9,-1128.1 -4811.5,-3047.4 -6311.1,-5432.7 -821.4,-1306.6 -1419.2,-3013.6 -651.3,-4352.4 497.9,-868 1457.9,-1359.5 2403.5,-1687 2556.3,-885.1 7985.8,-1541.3 9632.6,1378.7" style="fill-opacity: 1; fill-rule: nonzero; stroke: none; fill: rgb(178, 235, 228);" id="path60"/>
      <path d="m 47614.9,18137.1 c 0,-550.4 -446.2,-996.6 -996.6,-996.6 -550.4,0 -996.5,446.2 -996.5,996.6 0,550.4 446.1,996.5 996.5,996.5 550.4,0 996.6,-446.1 996.6,-996.5" style="fill-opacity: 1; fill-rule: nonzero; stroke: none; fill: rgb(178, 235, 228);" id="path90"/>
      <path d="m 59358.8,6086.5 c 0,-465.7 -377.5,-843.2 -843.2,-843.2 -465.7,0 -843.2,377.5 -843.2,843.2 0,465.7 377.5,843.2 843.2,843.2 465.7,0 843.2,-377.5 843.2,-843.2" style="fill-opacity: 1; fill-rule: nonzero; stroke: none; fill: rgb(178, 235, 228);" id="path92"/>
      <path d="m 53810.4,19211.1 c 0,-313.7 -254.3,-568.1 -568.1,-568.1 -313.7,0 -568,254.4 -568,568.1 0,313.7 254.3,568 568,568 313.8,0 568.1,-254.3 568.1,-568" style="fill-opacity: 1; fill-rule: nonzero; stroke: none; fill: rgb(178, 235, 228);" id="path94"/>
      <path d="m 33436.4,19651.9 c 1515.8,-131.8 2779.5,-1331.9 3382.7,-2728.7 603.1,-1396.8 654.6,-2965.3 600.8,-4485.9 -66.8,-1884.9 -357.3,-3929.2 -1708,-5245.6 -1050.3,-1023.6 -2551.5,-1413 -3991.1,-1692.9 -1057.1,-205.5 -2266.1,-339.1 -3107.3,333.3 -686.8,549.1 -920.7,1485.9 -1003.3,2361.3 -275,2913.1 734.6,5580.1 1477.8,8338.1 517.2,1919.3 2239.4,3303.7 4348.4,3120.4" style="fill-rule: nonzero; stroke: none; fill: rgb(0, 191, 165); fill-opacity: 0.1;" id="path96"/>
      <path d="m 30578.5,17918.1 c 676.4,-461.6 1281.2,-1031.2 2001.6,-1420.6 720.4,-389.5 1616.6,-579.1 2355,-224.9 607.7,291.5 1022.2,906.6 1647.5,1158.3 795.3,320.3 1744.7,-58.9 2298.6,-713.3 553.9,-654.4 780.7,-1524.1 891.7,-2374.2 274,-2097.3 -112.8,-4361.9 -1459.7,-5992.8 -1346.8,-1630.8 -3767.6,-2440.2 -5690.4,-1559.1 -511.8,234.5 -971.2,573 -1486.1,800.5 -845.5,373.5 -1797,429.7 -2670.5,731.9 -1553.5,537.4 -2795.9,1895.8 -3192.9,3490.9 -389.9,1566.7 163.9,3821.6 864,5286.7 842.4,1763.2 2982.6,1812.1 4441.2,816.6" style="fill-opacity: 1; fill-rule: nonzero; stroke: none; fill: rgb(178, 235, 228);" id="path98"/>
      <path d="m 27369.2,7102.4 c 0,-548.2 -444.3,-992.5 -992.5,-992.5 -548.2,0 -992.5,444.3 -992.5,992.5 0,548.2 444.3,992.5 992.5,992.5 548.2,0 992.5,-444.3 992.5,-992.5" style="fill-opacity: 1; fill-rule: nonzero; stroke: none; fill: rgb(178, 235, 228);" id="path128"/>
      <path d="m 37802.7,18643 c 0,-406.4 -329.5,-735.9 -735.9,-735.9 -406.5,0 -735.9,329.5 -735.9,735.9 0,406.5 329.4,735.9 735.9,735.9 406.4,0 735.9,-329.4 735.9,-735.9" style="fill-opacity: 1; fill-rule: nonzero; stroke: none; fill: rgb(178, 235, 228);" id="path130"/>
      <path d="m 39427.8,17907.1 c 0,-270.9 -219.6,-490.6 -490.6,-490.6 -270.9,0 -490.6,219.7 -490.6,490.6 0,271 219.7,490.6 490.6,490.6 271,0 490.6,-219.6 490.6,-490.6" style="fill-opacity: 1; fill-rule: nonzero; stroke: none; fill: rgb(178, 235, 228);" id="path132"/>
      <path d="m 38545.6,6352.1 c 0,-306.3 -248.4,-554.7 -554.8,-554.7 -306.3,0 -554.7,248.4 -554.7,554.7 0,306.4 248.4,554.8 554.7,554.8 306.4,0 554.8,-248.4 554.8,-554.8" style="fill-opacity: 1; fill-rule: nonzero; stroke: none; fill: rgb(178, 235, 228);" id="path134"/>
    </g>
  </g>
</svg>