<?xml version="1.0" encoding="utf-8"?>
<svg viewBox="0 0 500 500" xmlns="http://www.w3.org/2000/svg">
  <rect x="11.622" y="11.622" width="476.757" height="476.757" rx="15" ry="15" style="stroke: rgb(0, 0, 0); stroke-width: 0px; stroke-linecap: round; fill: rgb(0, 191, 165); pointer-events: none;">
    <title>bg</title>
  </rect>
  <path style="fill: rgb(255, 255, 255); fill-rule: evenodd; stroke: none; fill-opacity: 0.4; pointer-events: none;" d="M 256.362 515.438 L 256.073 515.438 L 253.205 514.714 L 256.532 514.714 L 256.362 515.438 Z M 235.658 463.134 L 235.081 464.58 L 233.947 464.58 L 231.874 463.134 L 231.345 461.446 L 233.249 461.446 L 233.947 460.724 L 235.658 463.134 Z M 244.481 416.375 L 243.636 417.098 L 241.299 415.411 L 242.937 415.411 L 244.481 416.375 Z M 347.689 399.503 L 345.52 404.082 L 342.387 408.662 L 338.53 416.375 L 336.842 418.544 L 337.324 419.99 L 335.878 426.256 L 333.951 429.149 L 334.191 434.934 L 334.914 436.622 L 338.53 438.067 L 339.735 438.79 L 337.566 441.201 L 339.975 445.058 L 341.663 445.058 L 341.905 447.226 L 342.869 448.673 L 340.939 449.637 L 340.939 450.359 L 338.048 451.565 L 335.878 457.591 L 337.324 462.17 L 336.842 463.134 L 335.396 463.857 L 332.987 461.446 L 332.503 462.17 L 328.888 460.724 L 325.755 462.17 L 322.381 461.446 L 321.658 460.724 L 315.873 459.278 L 312.498 453.01 L 310.33 451.083 L 308.401 449.637 L 303.098 447.226 L 300.206 447.226 L 297.12 447.949 L 295.602 447.949 L 293.53 446.503 L 290.926 445.78 L 288.54 445.058 L 284.684 441.201 L 280.851 440.237 L 274.873 437.344 L 274.007 435.656 L 271.258 433.488 L 267.233 432.765 L 266.558 433.488 L 264.654 430.113 L 262.075 430.113 L 258.436 430.113 L 254.411 430.837 L 252.242 427.702 L 249.855 426.98 L 248.794 426.256 L 246.529 420.954 L 247.686 419.99 L 248.071 417.82 L 247.686 416.375 L 248.794 412.518 L 251.012 410.108 L 251.928 410.108 L 253.592 407.939 L 255.687 407.939 L 255.375 405.529 L 256.748 405.529 L 258.748 409.384 L 261.521 411.796 L 263.979 410.832 L 266.847 408.662 L 266.318 406.251 L 267.74 404.805 L 271.186 404.805 L 274.657 402.396 L 276.561 404.805 L 277.259 407.939 L 281.237 407.215 L 282.322 409.384 L 287.625 411.796 L 290.372 412.518 L 293.843 410.832 L 295.048 409.384 L 297.651 408.662 L 300.688 409.384 L 302.858 409.384 L 305.991 409.384 L 309.606 408.662 L 310.812 407.939 L 313.463 407.939 L 317.56 406.251 L 320.452 403.359 L 322.621 402.396 L 325.996 401.672 L 327.924 402.396 L 330.576 402.396 L 331.781 403.359 L 334.914 402.396 L 336.602 398.779 L 336.842 399.503 L 338.288 399.503 L 341.663 398.779 L 345.278 395.646 L 346.724 395.646 L 349.857 396.369 L 347.689 397.815 L 347.689 399.503 Z M 328.166 392.512 L 328.406 394.2 L 326.96 392.512 L 326.96 391.066 L 328.166 392.512 Z M 327.442 389.621 L 327.201 390.343 L 325.033 389.621 L 325.033 387.933 L 326.719 387.933 L 327.442 389.621 Z M 324.067 385.764 L 323.585 386.487 L 321.416 385.764 L 323.103 385.764 L 324.067 385.764 Z M 117.554 375.64 L 116.541 375.64 L 114.614 372.025 L 115.023 369.615 L 117.819 370.337 L 118.35 372.025 L 117.554 375.64 Z M 113.385 366.24 L 113.385 370.337 L 111.697 369.615 L 110.757 368.168 L 111.432 366.24 L 113.385 366.24 Z M 289.697 299.958 L 287.625 300.681 L 286.37 300.681 L 286.588 298.03 L 289.913 298.752 L 289.697 299.958 Z M 112.276 290.316 L 112.107 292.727 L 111.022 292.727 L 111.576 290.316 L 112.951 289.594 L 113.119 288.147 L 114.614 287.424 L 114.758 288.147 L 114.758 289.594 L 112.276 290.316 Z M 149.973 285.013 L 148.912 285.013 L 149.611 282.844 L 150.262 283.568 L 149.973 285.013 Z M 148.912 283.568 L 147.08 283.568 L 147.008 283.568 L 148.454 281.88 L 148.912 283.568 Z M 144.212 284.291 L 145.706 285.013 L 145.851 283.568 L 149.154 287.424 L 149.154 288.87 L 149.973 286.461 L 152.913 287.424 L 152.069 288.87 L 151.177 292.004 L 152.599 291.04 L 153.202 292.004 L 154.576 292.004 L 155.66 292.727 L 153.756 292.727 L 152.744 294.897 L 151.177 294.897 L 153.202 296.583 L 155.348 295.619 L 154.576 296.583 L 157.879 298.752 L 155.974 300.681 L 157.348 302.127 L 158.747 306.706 L 158.819 309.117 L 161.205 312.251 L 160.674 314.42 L 158.819 318.276 L 157.709 318.276 L 155.13 322.614 L 155.13 324.06 L 155.974 327.193 L 158.409 329.605 L 157.18 333.22 L 157.348 338.763 L 156.722 340.21 L 156.722 344.789 L 155.974 347.922 L 155.974 351.779 L 155.348 353.225 L 155.974 353.947 L 154.962 357.804 L 154.576 360.938 L 155.516 361.661 L 153.901 363.107 L 153.444 365.518 L 153.901 366.24 L 153.202 368.892 L 152.069 369.615 L 149.611 369.615 L 146.405 366.24 L 144.743 364.795 L 141.681 364.795 L 140.765 366.24 L 139.777 366.24 L 136.716 363.107 L 136.186 363.831 L 137.994 365.518 L 136.018 368.168 L 136.018 370.337 L 136.861 372.025 L 135.945 374.918 L 130.787 379.497 L 129.244 378.051 L 126.352 377.328 L 124.014 378.774 L 122.664 378.774 L 123.05 376.604 L 122.086 375.64 L 121.411 372.025 L 119.602 372.025 L 118.664 369.615 L 117.651 369.615 L 117.554 367.446 L 116.541 367.446 L 115.433 364.795 L 117.241 362.383 L 116.976 359.974 L 115.603 358.528 L 116.446 357.082 L 116.276 355.395 L 116.012 354.671 L 118.494 350.092 L 118.084 347.199 L 117.94 342.62 L 120.133 345.511 L 121.241 345.511 L 119.868 344.066 L 121.146 342.62 L 121.146 337.799 L 118.494 337.077 L 117.819 337.799 L 116.541 337.077 L 116.446 334.184 L 116.832 332.496 L 116.132 331.774 L 118.494 331.05 L 119.458 328.641 L 118.759 327.193 L 118.494 324.06 L 119.025 322.614 L 118.664 320.687 L 116.276 318.999 L 116.446 316.83 L 115.603 313.696 L 114.614 312.973 L 113.915 309.839 L 112.542 309.117 L 111.022 309.839 L 111.022 308.394 L 109.816 308.394 L 109.383 310.563 L 108.708 308.394 L 109.648 307.67 L 110.491 305.26 L 108.54 303.815 L 110.926 298.03 L 110.926 295.619 L 109.914 294.897 L 110.757 293.449 L 111.697 294.173 L 111.697 295.619 L 114.06 298.752 L 120.566 299.958 L 122.929 298.752 L 124.279 296.583 L 126.352 295.619 L 128.136 295.619 L 129.558 294.897 L 131.775 292.004 L 132.738 291.04 L 135.632 287.424 L 138.211 287.424 L 140.476 285.013 L 140.765 282.844 L 142.525 281.88 L 143.754 282.844 L 144.212 284.291 Z M 194.346 237.676 L 193.816 238.424 L 191.816 236.157 L 192.514 235 L 194.346 237.676 Z M 178.631 218.225 L 178.149 219.743 L 177.281 219.743 L 178.631 222.033 L 177.041 222.033 L 175.233 219.743 L 172.558 221.261 L 170.002 221.261 L 168.773 220.514 L 168.941 218.225 L 170.316 218.225 L 173.642 218.225 L 173.787 217.453 L 176.22 218.225 L 177.595 215.911 L 178.848 216.682 L 178.631 218.225 Z M 161.035 209.065 L 160.216 209.836 L 158.987 209.065 L 160.216 207.547 L 161.035 209.065 Z M 222.499 45.58 L 223.535 48.635 L 225.15 50.199 L 227.054 50.582 L 227.343 53.784 L 229.44 54.546 L 230.283 56.798 L 233.176 58.172 L 235.828 59.01 L 238.792 58.859 L 240.985 59.317 L 243.564 60.375 L 250.168 60.543 L 252.386 60.929 L 254.844 62.182 L 258.821 61.363 L 261.762 61.363 L 267.403 62.857 L 268.269 62.785 L 267.957 64.931 L 267.089 65.918 L 265.498 66.063 L 263.666 68.402 L 260.798 70.401 L 259.279 72.667 L 260.653 76.065 L 261.039 75.222 L 263.594 75.608 L 265.04 76.74 L 267.233 76.74 L 266.703 79.054 L 263.666 81.682 L 262.605 84.189 L 264.123 85.707 L 266.703 84.719 L 267.233 85.562 L 266.028 89.876 L 266.703 92.022 L 268.8 92.625 L 272.391 94.432 L 274.873 98.144 L 276.03 98.675 L 274.729 100.771 L 270.727 100.626 L 271.258 99.76 L 272.778 99.76 L 271.402 98.216 L 271.716 97.3 L 268.511 93.854 L 266.558 92.865 L 265.739 92.697 L 265.04 94.119 L 265.859 95.107 L 262.437 97.541 L 260.871 97.541 L 262.437 96.457 L 262.219 95.805 L 257.375 94.722 L 256.218 94.047 L 254.411 94.962 L 253.205 94.576 L 253.422 95.637 L 252.072 96.771 L 252.772 97.686 L 254.411 96.987 L 252.917 99.204 L 251.928 99.904 L 248.626 100.289 L 244.094 103.687 L 239.418 106.291 L 233.706 108.918 L 234.622 106.436 L 237.876 104.916 L 236.189 103.23 L 234.406 105.061 L 231.801 106.291 L 229.729 107.93 L 229.006 110.123 L 229.44 110.822 L 228.018 114.437 L 226.524 114.293 L 226.354 115.137 L 226.982 116.341 L 227.704 115.811 L 228.331 114.968 L 228.549 118.198 L 229.44 118.945 L 230.67 117.74 L 231.489 120.294 L 231.874 122.873 L 231.2 123.718 L 233.176 124.247 L 236.647 127.718 L 238.044 127.863 L 237.032 131.695 L 235.828 134.177 L 235.081 132.804 L 235.321 130.852 L 234.55 131.309 L 234.26 135.311 L 231.2 133.406 L 230.115 138.854 L 230.958 142.301 L 231.489 143.072 L 231.657 147.651 L 232.718 152.978 L 234.935 158.328 L 236.045 159.848 L 237.346 160.619 L 237.876 162.113 L 240.768 163.656 L 242.551 165.945 L 245.01 168.235 L 246.312 168.235 L 247.758 168.235 L 252.242 171.682 L 259.279 177.009 L 261.618 178.527 L 266.173 181.588 L 268.414 182.36 L 269.186 181.588 L 271.258 183.131 L 272.632 183.878 L 273.765 187.686 L 277.259 194.556 L 278.634 198.388 L 280.201 201.425 L 280.948 203.714 L 281.551 206.004 L 282.925 210.583 L 284.298 214.392 L 286.37 218.225 L 288.854 222.804 L 291.216 225.094 L 293.53 227.36 L 294.662 228.131 L 298.759 231.192 L 300.206 233.482 L 304.304 236.929 L 308.642 238.424 L 309.365 239.194 L 310.33 242.255 L 310.812 243.003 L 314.427 244.546 L 318.283 244.546 L 319.73 246.064 L 323.103 247.607 L 327.201 247.607 L 332.503 248.354 L 337.324 246.835 L 342.387 246.835 L 349.857 245.293 L 353.474 246.064 L 354.678 247.607 L 355.643 251.39 L 354.438 252.933 L 353.232 253.68 L 350.823 255.969 L 347.93 257.512 L 346.966 260.573 L 347.93 263.634 L 349.857 265.129 L 351.545 265.9 L 360.704 269.708 L 365.765 272.022 L 368.417 272.769 L 369.864 273.541 L 377.576 275.83 L 379.504 276.602 L 384.807 277.301 L 389.386 279.711 L 391.797 281.158 L 394.207 283.568 L 395.894 284.291 L 398.787 286.461 L 400.955 287.424 L 403.848 288.147 L 407.464 288.87 L 410.597 291.04 L 414.212 292.004 L 414.212 292.727 L 416.141 292.727 L 417.346 294.173 L 417.346 295.619 L 419.275 297.306 L 424.096 299.958 L 428.675 304.537 L 431.084 306.706 L 434.218 312.973 L 433.495 315.142 L 432.048 316.83 L 431.326 321.409 L 431.566 322.614 L 430.844 326.471 L 427.951 325.024 L 425.782 325.024 L 421.202 322.614 L 418.311 318.999 L 419.033 318.276 L 417.346 316.83 L 418.069 316.106 L 418.069 314.42 L 415.418 312.251 L 414.694 309.117 L 412.526 307.67 L 409.875 308.394 L 401.921 308.394 L 392.037 305.26 L 393.003 303.815 L 392.279 302.127 L 394.449 302.127 L 395.171 300.681 L 392.761 300.681 L 390.833 302.127 L 390.351 300.681 L 386.735 300.681 L 384.567 302.127 L 382.638 304.537 L 381.433 306.706 L 379.022 310.563 L 378.299 314.42 L 375.407 318.276 L 374.443 319.721 L 374.201 321.409 L 375.649 324.06 L 372.997 327.917 L 371.792 331.05 L 371.792 332.496 L 373.479 334.907 L 372.997 335.63 L 373.961 337.077 L 376.613 338.763 L 380.71 337.799 L 382.879 339.486 L 384.085 340.932 L 387.458 342.62 L 389.386 343.343 L 390.833 344.789 L 394.207 345.511 L 393.243 348.646 L 393.485 352.502 L 394.449 353.947 L 393.967 357.804 L 395.412 360.938 L 397.1 360.938 L 396.136 362.383 L 396.136 363.831 L 394.207 367.446 L 393.243 365.518 L 391.555 366.24 L 390.351 365.518 L 387.7 366.24 L 382.397 368.892 L 379.022 372.025 L 377.817 373.471 L 376.853 375.64 L 379.022 383.354 L 379.022 385.764 L 378.782 387.933 L 375.889 391.066 L 372.032 393.236 L 371.068 394.923 L 366.971 400.226 L 366.007 406.251 L 365.043 408.662 L 362.392 410.108 L 360.222 409.384 L 354.438 410.108 L 351.305 408.662 L 350.099 407.215 L 350.823 405.529 L 349.617 404.082 L 350.099 401.672 L 349.375 398.779 L 349.857 397.815 L 353.956 395.646 L 357.329 387.21 L 357.571 386.487 L 356.847 383.354 L 354.678 381.185 L 354.92 380.461 L 359.741 377.328 L 363.596 376.604 L 365.284 375.64 L 366.247 372.749 L 366.247 369.615 L 365.525 368.168 L 363.838 367.446 L 361.668 363.107 L 361.186 362.383 L 358.777 350.814 L 357.329 347.922 L 355.16 344.789 L 352.75 342.62 L 351.545 339.486 L 350.581 337.077 L 349.617 333.22 L 348.893 331.774 L 349.135 330.327 L 347.93 328.641 L 347.207 326.471 L 344.314 323.338 L 343.109 322.614 L 340.699 322.614 L 337.084 326.471 L 334.914 326.471 L 332.745 324.06 L 331.057 322.614 L 327.684 319.721 L 324.791 319.721 L 323.585 318.276 L 320.694 317.553 L 320.934 313.696 L 323.103 312.973 L 323.103 311.285 L 319.006 304.537 L 316.355 300.681 L 314.427 299.958 L 312.258 301.403 L 310.33 301.403 L 308.161 303.091 L 305.749 303.091 L 301.652 304.537 L 301.652 303.091 L 303.098 303.091 L 304.786 300.681 L 305.749 299.958 L 305.749 298.03 L 302.376 296.583 L 299.965 294.173 L 297.651 294.173 L 297.12 295.619 L 293.675 294.897 L 293.337 296.583 L 291.963 296.583 L 291.963 293.449 L 290.758 290.316 L 289.24 288.147 L 287.769 287.424 L 287.48 285.737 L 285.383 281.88 L 281.768 278.988 L 280.707 278.265 L 277.259 278.265 L 276.272 278.988 L 276.73 280.434 L 268.8 277.301 L 265.04 278.265 L 262.437 279.711 L 261.762 280.434 L 260.196 280.434 L 258.05 275.83 L 255.303 273.541 L 253.592 272.769 L 251.687 272.769 L 247.758 271.251 L 247.228 272.022 L 244.311 268.19 L 241.154 264.358 L 237.876 262.091 L 234.622 260.573 L 233.875 259.03 L 233.561 256.741 L 231.657 253.68 L 224.306 248.354 L 221.654 249.125 L 219.22 245.293 L 218.763 243.773 L 216.111 239.194 L 212.471 236.157 L 209.773 235 L 206.784 233.482 L 202.468 233.482 L 201.625 236.157 L 198.902 234.253 L 199.432 232.711 L 200.95 232.711 L 201.625 231.192 L 201.456 229.65 L 200.734 227.36 L 199.721 228.131 L 198.203 225.094 L 195.937 223.575 L 195.406 222.033 L 192.442 219.743 L 187.598 218.225 L 188.489 216.682 L 188.802 214.392 L 186.753 212.874 L 184.537 212.127 L 181.595 212.127 L 181.066 213.621 L 179.837 210.583 L 180.921 209.065 L 181.595 206.775 L 181.764 204.486 L 180.752 199.159 L 178.317 194.556 L 175.908 191.495 L 174.558 190.748 L 173.859 186.916 L 172.942 177.78 L 172.798 177.009 L 171.159 173.2 L 169.159 170.526 L 168.098 169.006 L 165.735 167.464 L 163.784 167.464 L 160.36 165.174 L 159.662 166.717 L 158.095 166.717 L 155.276 163.656 L 153.756 163.656 L 152.359 161.366 L 150.43 160.619 L 149.755 159.848 L 148.381 159.848 L 146.405 158.328 L 146.309 157.558 L 142.236 155.267 L 141.537 157.558 L 139.777 156.04 L 139.247 154.496 L 135.487 153.749 L 133.148 152.978 L 130.932 152.978 L 130.352 152.206 L 127.34 152.206 L 124.544 154.496 L 122.664 155.267 L 119.723 157.558 L 118.084 160.619 L 118.084 161.366 L 115.168 162.884 L 112.805 165.174 L 112.276 167.464 L 110.491 170.526 L 110.926 171.682 L 109.816 172.453 L 107.865 173.948 L 104.683 175.466 L 99.55 177.009 L 96.801 178.527 L 91.138 177.78 L 90.439 175.466 L 92.8 171.682 L 95.018 169.778 L 96.801 165.945 L 95.428 163.656 L 95.837 162.113 L 87.667 164.427 L 83.954 162.884 L 80.918 160.619 L 77.599 159.101 L 76.492 159.101 L 74.42 156.787 L 72.901 153.749 L 73.176 152.206 L 74.42 151.435 L 72.209 148.398 L 72.487 146.88 L 74.008 145.362 L 75.388 143.819 L 75.388 141.529 L 76.632 140.758 L 78.703 140.758 L 78.289 140.011 L 77.184 136.684 L 77.462 135.455 L 75.251 133.793 L 73.316 134.105 L 70.829 132.731 L 69.445 130.852 L 69.445 127.405 L 67.651 126.73 L 65.993 123.718 L 67.927 122.198 L 69.862 121.523 L 73.039 122.705 L 74.145 121.211 L 75.111 121.211 L 76.355 119.572 L 78.426 118.872 L 79.12 119.402 L 80.775 117.57 L 80.361 114.968 L 82.436 111.497 L 80.638 110.436 L 80.087 109.232 L 77.462 107.23 L 76.632 104.218 L 77.045 102.001 L 73.593 100.216 L 72.209 98.675 L 71.932 95.493 L 72.487 94.264 L 75.528 93.54 L 77.322 92.625 L 78.98 90.407 L 80.224 91.78 L 81.738 92.48 L 83.544 92.311 L 86.438 91.105 L 88.654 91.251 L 92.8 89.419 L 93.91 88.335 L 96.68 89.033 L 98.175 90.551 L 102.055 91.251 L 102.586 90.262 L 104.008 88.503 L 106.492 87.876 L 107.167 86.622 L 107.43 84.574 L 110.228 82.669 L 110.757 79.874 L 109.118 77.44 L 110.082 76.137 L 112.542 75.222 L 113.915 73.342 L 115.433 72.426 L 116.132 70.233 L 118.494 69.389 L 119.602 70.088 L 119.723 72.282 L 119.193 75.608 L 119.193 77.657 L 121.555 79.512 L 124.134 82.983 L 126.232 84.019 L 127.773 83.635 L 129.943 84.333 L 130.787 85.249 L 128.834 88.719 L 131.775 90.094 L 132.884 92.697 L 132.884 94.962 L 135.487 95.421 L 137.15 92.865 L 136.861 91.492 L 135.8 90.937 L 134.957 89.178 L 135.945 88.335 L 135.487 86.405 L 137.15 85.393 L 137.536 83.056 L 140.09 80.958 L 141.85 78.5 L 144.743 78.356 L 141.85 78.5 L 143.079 75.367 L 142.838 70.908 L 142.14 70.088 L 142.911 68.136 L 144.743 67.438 L 146.165 68.714 L 147.779 67.822 L 148.237 72.813 L 149.154 73.342 L 149.973 75.367 L 151.177 76.065 L 154.576 76.065 L 155.516 75.222 L 155.516 73.8 L 157.18 74.042 L 160.891 72.594 L 162.699 73.269 L 163.084 75.608 L 164.772 77.126 L 165.037 78.814 L 167.93 77.825 L 168.412 76.982 L 166.41 74.354 L 167.567 72.138 L 167.567 70.739 L 164.965 70.088 L 164.627 65.918 L 166.194 63.027 L 169.087 62.086 L 170.316 62.472 L 170.316 64.158 L 171.955 65.075 L 175.666 65.606 L 176.366 65.243 L 176.51 62.086 L 174.702 61.46 L 174.027 60.079 L 174.871 57.485 L 175.546 56.646 L 175.233 54.853 L 176.22 52.257 L 178.317 53.098 L 182.053 52.257 L 184.537 53.86 L 183.669 54.853 L 188.296 56.111 L 191.598 55.882 L 193.117 53.631 L 194.032 49.892 L 195.864 47.947 L 200.275 46.576 L 202.831 47.26 L 204.179 45.886 L 205.939 46.269 L 208.157 45.886 L 210.639 46.193 L 212.471 46.877 L 217.846 43.981 L 219.75 43.829 L 222.499 42.109 L 224.981 42.032 L 224.45 43.829 L 222.499 45.58 Z M 211.097 159.101 L 210.784 159.848 L 212.543 158.328 L 211.097 159.101 Z M 235.465 170.526 L 236.647 172.453 L 237.732 172.453 L 238.406 170.526 L 238.261 168.235 L 236.501 169.006 L 235.465 170.526 Z" id="outline">
    <title>italy</title>
  </path>
  <rect x="361.937" y="187.768" width="118.875" height="118.875" rx="15" ry="15" style="stroke: rgb(0, 0, 0); stroke-width: 0px; stroke-linecap: round; fill: rgb(211, 79, 77); pointer-events: none;">
    <title>square</title>
  </rect>
  <path d="M 111.127 231.657 Q 111.127 239.791 106.737 246.375 Q 102.348 252.959 93.956 256.057 L 113.709 293.238 L 81.692 293.238 L 65.942 260.834 L 55.355 260.834 L 55.355 293.238 L 26.824 293.238 L 26.824 204.417 L 81.175 204.417 Q 90.729 204.417 97.507 208.097 Q 104.284 211.776 107.706 218.037 Q 111.127 224.299 111.127 231.657 Z M 82.079 232.819 Q 82.079 229.333 79.755 227.01 Q 77.432 224.686 74.075 224.686 L 55.355 224.686 L 55.355 241.082 L 74.075 241.082 Q 77.432 241.082 79.755 238.693 Q 82.079 236.305 82.079 232.819 Z M 131.147 293.238 L 131.147 204.417 L 159.679 204.417 L 159.679 293.238 Z M 219.987 202.868 Q 237.029 202.868 248.002 209.775 Q 258.976 216.682 259.234 230.237 L 259.234 231.786 L 232.51 231.786 L 232.51 231.27 Q 232.51 227.397 229.67 224.815 Q 226.83 222.233 221.02 222.233 Q 215.34 222.233 212.306 223.911 Q 209.272 225.59 209.272 228.042 Q 209.272 231.528 213.403 233.206 Q 217.534 234.885 226.701 236.692 Q 237.416 238.887 244.323 241.275 Q 251.23 243.664 256.394 249.086 Q 261.558 254.508 261.687 263.803 Q 261.687 279.553 251.036 287.17 Q 240.385 294.787 222.569 294.787 Q 201.784 294.787 190.23 287.816 Q 178.675 280.844 178.675 263.158 L 205.657 263.158 Q 205.657 269.871 209.143 272.13 Q 212.629 274.389 219.987 274.389 Q 225.41 274.389 228.96 273.227 Q 232.51 272.066 232.51 268.451 Q 232.51 265.223 228.572 263.61 Q 224.635 261.996 215.727 260.188 Q 204.883 257.865 197.782 255.347 Q 190.682 252.83 185.389 247.02 Q 180.095 241.211 180.095 231.27 Q 180.095 216.682 191.392 209.775 Q 202.688 202.868 219.987 202.868 Z M 302.621 293.238 L 271.121 204.417 L 301.589 204.417 L 319.404 263.803 L 319.921 263.803 L 337.866 204.417 L 367.042 204.417 L 335.671 293.238 Z M 421.281 202.868 Q 444.26 202.868 456.783 214.616 Q 469.306 226.364 469.306 248.828 Q 469.306 271.291 456.783 283.039 Q 444.26 294.787 421.281 294.787 Q 398.301 294.787 385.843 283.104 Q 373.385 271.42 373.385 248.828 Q 373.385 226.235 385.843 214.552 Q 398.301 202.868 421.281 202.868 Z M 421.281 224.169 Q 412.115 224.169 407.338 229.721 Q 402.561 235.272 402.561 244.696 L 402.561 252.959 Q 402.561 262.383 407.338 267.934 Q 412.115 273.486 421.281 273.486 Q 430.447 273.486 435.288 267.934 Q 440.129 262.383 440.129 252.959 L 440.129 244.696 Q 440.129 235.272 435.288 229.721 Q 430.447 224.169 421.281 224.169 Z" style="fill: rgb(255, 255, 255); paint-order: stroke; white-space: pre; pointer-events: none;">
    <title>risvo text</title>
  </path>
  <path d="M 29.671 316.562 Q 33.231 316.562 35.171 318.382 Q 37.111 320.202 37.111 323.682 Q 37.111 327.162 35.171 328.982 Q 33.231 330.802 29.671 330.802 Q 26.111 330.802 24.181 328.992 Q 22.251 327.182 22.251 323.682 Q 22.251 320.182 24.181 318.372 Q 26.111 316.562 29.671 316.562 Z M 29.671 319.862 Q 28.251 319.862 27.511 320.722 Q 26.771 321.582 26.771 323.042 L 26.771 324.322 Q 26.771 325.782 27.511 326.642 Q 28.251 327.502 29.671 327.502 Q 31.091 327.502 31.841 326.642 Q 32.591 325.782 32.591 324.322 L 32.591 323.042 Q 32.591 321.582 31.841 320.722 Q 31.091 319.862 29.671 319.862 Z M 49.005 316.802 Q 50.285 316.802 51.285 317.392 Q 52.285 317.982 52.845 319.012 Q 53.405 320.042 53.405 321.322 L 53.405 321.582 Q 53.405 322.862 52.845 323.902 Q 52.285 324.942 51.285 325.532 Q 50.285 326.122 49.005 326.122 L 45.705 326.122 L 45.705 330.562 L 41.285 330.562 L 41.285 316.802 L 49.005 316.802 Z M 45.705 322.902 L 47.525 322.902 Q 48.225 322.902 48.575 322.542 Q 48.925 322.182 48.925 321.562 L 48.925 321.402 Q 48.925 320.762 48.575 320.412 Q 48.225 320.062 47.525 320.062 L 45.705 320.062 Z M 57.527 316.802 L 69.427 316.802 L 69.427 320.102 L 61.947 320.102 L 61.947 322.002 L 68.347 322.002 L 68.347 325.162 L 61.947 325.162 L 61.947 327.262 L 69.567 327.262 L 69.567 330.562 L 57.527 330.562 Z M 83.608 330.562 L 77.828 323.882 L 77.828 330.562 L 73.768 330.562 L 73.768 316.802 L 77.628 316.802 L 83.408 323.582 L 83.408 316.802 L 87.468 316.802 L 87.468 330.562 Z M 106.646 316.802 Q 113.866 316.802 113.866 323.682 Q 113.866 330.562 106.646 330.562 L 100.686 330.562 L 100.686 316.802 L 106.646 316.802 Z M 105.106 327.262 L 106.566 327.262 Q 109.346 327.262 109.346 324.282 L 109.346 323.082 Q 109.346 320.102 106.566 320.102 L 105.106 320.102 Z M 126.409 330.562 L 125.829 328.622 L 121.009 328.622 L 120.429 330.562 L 115.909 330.562 L 120.929 316.802 L 126.069 316.802 L 131.089 330.562 Z M 121.929 325.542 L 124.909 325.542 L 123.469 320.642 L 123.389 320.642 Z M 141.089 320.322 L 141.089 330.562 L 136.669 330.562 L 136.669 320.322 L 132.149 320.322 L 132.149 316.802 L 145.589 316.802 L 145.589 320.322 Z M 157.271 330.562 L 156.691 328.622 L 151.871 328.622 L 151.291 330.562 L 146.771 330.562 L 151.791 316.802 L 156.931 316.802 L 161.951 330.562 Z M 152.791 325.542 L 155.771 325.542 L 154.331 320.642 L 154.251 320.642 Z M 179.65 316.562 Q 182.29 316.562 183.99 317.632 Q 185.69 318.702 185.73 320.802 L 185.73 321.042 L 181.59 321.042 L 181.59 320.962 Q 181.59 320.362 181.15 319.962 Q 180.71 319.562 179.81 319.562 Q 178.93 319.562 178.46 319.822 Q 177.99 320.082 177.99 320.462 Q 177.99 321.002 178.63 321.262 Q 179.27 321.522 180.69 321.802 Q 182.35 322.142 183.42 322.512 Q 184.49 322.882 185.29 323.722 Q 186.09 324.562 186.11 326.002 Q 186.11 328.442 184.46 329.622 Q 182.81 330.802 180.05 330.802 Q 176.83 330.802 175.04 329.722 Q 173.25 328.642 173.25 325.902 L 177.43 325.902 Q 177.43 326.942 177.97 327.292 Q 178.51 327.642 179.65 327.642 Q 180.49 327.642 181.04 327.462 Q 181.59 327.282 181.59 326.722 Q 181.59 326.222 180.98 325.972 Q 180.37 325.722 178.99 325.442 Q 177.31 325.082 176.21 324.692 Q 175.11 324.302 174.29 323.402 Q 173.47 322.502 173.47 320.962 Q 173.47 318.702 175.22 317.632 Q 176.97 316.562 179.65 316.562 Z M 203.803 325.022 Q 203.803 327.842 202.023 329.322 Q 200.243 330.802 196.963 330.802 Q 193.683 330.802 191.893 329.322 Q 190.103 327.842 190.103 325.022 L 190.103 316.802 L 194.523 316.802 L 194.523 324.962 Q 194.523 326.122 195.143 326.812 Q 195.763 327.502 196.943 327.502 Q 198.123 327.502 198.753 326.802 Q 199.383 326.102 199.383 324.962 L 199.383 316.802 L 203.803 316.802 L 203.803 325.022 Z M 208.566 316.802 L 212.986 316.802 L 212.986 327.042 L 220.046 327.042 L 220.046 330.562 L 208.566 330.562 Z M 245.224 321.022 Q 245.224 322.282 244.544 323.302 Q 243.864 324.322 242.564 324.802 L 245.624 330.562 L 240.664 330.562 L 238.224 325.542 L 236.584 325.542 L 236.584 330.562 L 232.164 330.562 L 232.164 316.802 L 240.584 316.802 Q 242.064 316.802 243.114 317.372 Q 244.164 317.942 244.694 318.912 Q 245.224 319.882 245.224 321.022 Z M 240.724 321.202 Q 240.724 320.662 240.364 320.302 Q 240.004 319.942 239.484 319.942 L 236.584 319.942 L 236.584 322.482 L 239.484 322.482 Q 240.004 322.482 240.364 322.112 Q 240.724 321.742 240.724 321.202 Z M 249.729 330.562 L 249.729 316.802 L 254.149 316.802 L 254.149 330.562 Z M 264.886 316.562 Q 267.526 316.562 269.226 317.632 Q 270.926 318.702 270.966 320.802 L 270.966 321.042 L 266.826 321.042 L 266.826 320.962 Q 266.826 320.362 266.386 319.962 Q 265.946 319.562 265.046 319.562 Q 264.166 319.562 263.696 319.822 Q 263.226 320.082 263.226 320.462 Q 263.226 321.002 263.866 321.262 Q 264.506 321.522 265.926 321.802 Q 267.586 322.142 268.656 322.512 Q 269.726 322.882 270.526 323.722 Q 271.326 324.562 271.346 326.002 Q 271.346 328.442 269.696 329.622 Q 268.046 330.802 265.286 330.802 Q 262.066 330.802 260.276 329.722 Q 258.486 328.642 258.486 325.902 L 262.666 325.902 Q 262.666 326.942 263.206 327.292 Q 263.746 327.642 264.886 327.642 Q 265.726 327.642 266.276 327.462 Q 266.826 327.282 266.826 326.722 Q 266.826 326.222 266.216 325.972 Q 265.606 325.722 264.226 325.442 Q 262.546 325.082 261.446 324.692 Q 260.346 324.302 259.526 323.402 Q 258.706 322.502 258.706 320.962 Q 258.706 318.702 260.456 317.632 Q 262.206 316.562 264.886 316.562 Z M 281.908 316.562 Q 284.968 316.562 286.748 318.092 Q 288.528 319.622 288.528 322.462 L 284.308 322.462 Q 284.308 321.262 283.678 320.562 Q 283.048 319.862 281.888 319.862 Q 280.548 319.862 279.918 320.702 Q 279.288 321.542 279.288 323.042 L 279.288 324.322 Q 279.288 325.802 279.918 326.652 Q 280.548 327.502 281.848 327.502 Q 283.128 327.502 283.788 326.842 Q 284.448 326.182 284.448 324.982 L 288.528 324.982 Q 288.528 327.802 286.798 329.302 Q 285.068 330.802 281.908 330.802 Q 278.388 330.802 276.578 329.002 Q 274.768 327.202 274.768 323.682 Q 274.768 320.162 276.578 318.362 Q 278.388 316.562 281.908 316.562 Z M 301.984 330.562 L 301.984 325.342 L 297.124 325.342 L 297.124 330.562 L 292.704 330.562 L 292.704 316.802 L 297.124 316.802 L 297.124 321.822 L 301.984 321.822 L 301.984 316.802 L 306.404 316.802 L 306.404 330.562 Z M 311.367 330.562 L 311.367 316.802 L 315.787 316.802 L 315.787 330.562 Z M 327.585 316.562 Q 331.145 316.562 333.085 318.382 Q 335.025 320.202 335.025 323.682 Q 335.025 327.162 333.085 328.982 Q 331.145 330.802 327.585 330.802 Q 324.025 330.802 322.095 328.992 Q 320.165 327.182 320.165 323.682 Q 320.165 320.182 322.095 318.372 Q 324.025 316.562 327.585 316.562 Z M 327.585 319.862 Q 326.165 319.862 325.425 320.722 Q 324.685 321.582 324.685 323.042 L 324.685 324.322 Q 324.685 325.782 325.425 326.642 Q 326.165 327.502 327.585 327.502 Q 329.005 327.502 329.755 326.642 Q 330.505 325.782 330.505 324.322 L 330.505 323.042 Q 330.505 321.582 329.755 320.722 Q 329.005 319.862 327.585 319.862 Z M 347.87 330.562 L 347.87 316.802 L 352.29 316.802 L 352.29 330.562 Z M 367.088 330.562 L 361.308 323.882 L 361.308 330.562 L 357.248 330.562 L 357.248 316.802 L 361.108 316.802 L 366.888 323.582 L 366.888 316.802 L 370.948 316.802 L 370.948 330.562 Z M 375.703 316.802 L 386.823 316.802 L 386.823 320.102 L 380.123 320.102 L 380.123 322.462 L 385.883 322.462 L 385.883 325.622 L 380.123 325.622 L 380.123 330.562 L 375.703 330.562 Z M 390.846 316.802 L 402.746 316.802 L 402.746 320.102 L 395.266 320.102 L 395.266 322.002 L 401.666 322.002 L 401.666 325.162 L 395.266 325.162 L 395.266 327.262 L 402.886 327.262 L 402.886 330.562 L 390.846 330.562 Z M 415.008 320.322 L 415.008 330.562 L 410.588 330.562 L 410.588 320.322 L 406.068 320.322 L 406.068 316.802 L 419.508 316.802 L 419.508 320.322 Z M 431.249 320.322 L 431.249 330.562 L 426.829 330.562 L 426.829 320.322 L 422.309 320.322 L 422.309 316.802 L 435.749 316.802 L 435.749 320.322 Z M 439.762 330.562 L 439.762 316.802 L 444.182 316.802 L 444.182 330.562 Z M 452.889 330.562 L 448.009 316.802 L 452.729 316.802 L 455.489 326.002 L 455.569 326.002 L 458.349 316.802 L 462.869 316.802 L 458.009 330.562 Z M 472.669 316.562 Q 476.229 316.562 478.169 318.382 Q 480.109 320.202 480.109 323.682 Q 480.109 327.162 478.169 328.982 Q 476.229 330.802 472.669 330.802 Q 469.109 330.802 467.179 328.992 Q 465.249 327.182 465.249 323.682 Q 465.249 320.182 467.179 318.372 Q 469.109 316.562 472.669 316.562 Z M 472.669 319.862 Q 471.249 319.862 470.509 320.722 Q 469.769 321.582 469.769 323.042 L 469.769 324.322 Q 469.769 325.782 470.509 326.642 Q 471.249 327.502 472.669 327.502 Q 474.089 327.502 474.839 326.642 Q 475.589 325.782 475.589 324.322 L 475.589 323.042 Q 475.589 321.582 474.839 320.722 Q 474.089 319.862 472.669 319.862 Z" style="white-space: pre; fill: rgb(45, 55, 72); pointer-events: none;">
    <title>open data text</title>
  </path>
</svg>