<?xml version="1.0" encoding="utf-8"?>
<svg viewBox="0 0 496 184" xmlns="http://www.w3.org/2000/svg" xmlns:bx="https://boxy-svg.com">
  <defs>
    <bx:guide x="-73.984" y="116.596" angle="0"/>
  </defs>
  <path style="fill-rule: evenodd; stroke: none; fill-opacity: 0.4; fill: rgb(0, 191, 165); pointer-events: none;" d="M 82.087 204.656 L 81.962 204.656 L 80.722 204.343 L 82.16 204.343 L 82.087 204.656 Z M 73.135 182.042 L 72.886 182.667 L 72.395 182.667 L 71.499 182.042 L 71.27 181.312 L 72.093 181.312 L 72.395 181 L 73.135 182.042 Z M 76.949 161.826 L 76.585 162.138 L 75.574 161.409 L 76.282 161.409 L 76.949 161.826 Z M 121.572 154.531 L 120.634 156.511 L 119.28 158.492 L 117.612 161.826 L 116.882 162.763 L 117.09 163.389 L 116.465 166.098 L 115.632 167.349 L 115.736 169.85 L 116.048 170.579 L 117.612 171.205 L 118.133 171.517 L 117.196 172.56 L 118.237 174.227 L 118.967 174.227 L 119.071 175.164 L 119.488 175.79 L 118.654 176.206 L 118.654 176.519 L 117.404 177.041 L 116.465 179.646 L 117.09 181.625 L 116.882 182.042 L 116.257 182.354 L 115.215 181.312 L 115.006 181.625 L 113.443 181 L 112.089 181.625 L 110.629 181.312 L 110.317 181 L 107.816 180.375 L 106.357 177.666 L 105.42 176.831 L 104.585 176.206 L 102.293 175.164 L 101.043 175.164 L 99.708 175.477 L 99.052 175.477 L 98.156 174.852 L 97.031 174.539 L 95.998 174.227 L 94.331 172.56 L 92.674 172.143 L 90.09 170.891 L 89.715 170.162 L 88.527 169.224 L 86.786 168.912 L 86.495 169.224 L 85.672 167.766 L 84.556 167.766 L 82.983 167.766 L 81.243 168.078 L 80.306 166.723 L 79.273 166.411 L 78.815 166.098 L 77.835 163.805 L 78.335 163.389 L 78.501 162.451 L 78.335 161.826 L 78.815 160.159 L 79.774 159.117 L 80.17 159.117 L 80.889 158.178 L 81.794 158.178 L 81.66 157.136 L 82.253 157.136 L 83.118 158.804 L 84.317 159.846 L 85.38 159.43 L 86.62 158.492 L 86.391 157.448 L 87.005 156.823 L 88.495 156.823 L 89.996 155.782 L 90.819 156.823 L 91.121 158.178 L 92.841 157.865 L 93.31 158.804 L 95.603 159.846 L 96.791 160.159 L 98.292 159.43 L 98.812 158.804 L 99.938 158.492 L 101.251 158.804 L 102.189 158.804 L 103.543 158.804 L 105.107 158.492 L 105.628 158.178 L 106.774 158.178 L 108.545 157.448 L 109.796 156.198 L 110.733 155.782 L 112.193 155.469 L 113.027 155.782 L 114.173 155.782 L 114.694 156.198 L 116.048 155.782 L 116.778 154.218 L 116.882 154.531 L 117.508 154.531 L 118.967 154.218 L 120.529 152.864 L 121.155 152.864 L 122.509 153.177 L 121.572 153.802 L 121.572 154.531 Z M 113.131 151.508 L 113.235 152.239 L 112.61 151.508 L 112.61 150.883 L 113.131 151.508 Z M 112.818 150.259 L 112.714 150.571 L 111.777 150.259 L 111.777 149.529 L 112.506 149.529 L 112.818 150.259 Z M 111.358 148.591 L 111.15 148.904 L 110.212 148.591 L 110.942 148.591 L 111.358 148.591 Z M 22.073 144.214 L 21.635 144.214 L 20.801 142.651 L 20.978 141.609 L 22.187 141.921 L 22.417 142.651 L 22.073 144.214 Z M 20.27 140.15 L 20.27 141.921 L 19.54 141.609 L 19.134 140.984 L 19.426 140.15 L 20.27 140.15 Z M 96.499 111.493 L 95.603 111.805 L 95.06 111.805 L 95.154 110.659 L 96.592 110.972 L 96.499 111.493 Z M 19.79 107.324 L 19.717 108.366 L 19.249 108.366 L 19.488 107.324 L 20.083 107.012 L 20.155 106.386 L 20.801 106.074 L 20.863 106.386 L 20.863 107.012 L 19.79 107.324 Z M 36.089 105.031 L 35.63 105.031 L 35.932 104.094 L 36.213 104.407 L 36.089 105.031 Z M 35.63 104.407 L 34.838 104.407 L 34.807 104.407 L 35.432 103.677 L 35.63 104.407 Z M 33.598 104.719 L 34.244 105.031 L 34.306 104.407 L 35.735 106.074 L 35.735 106.699 L 36.089 105.657 L 37.36 106.074 L 36.995 106.699 L 36.61 108.053 L 37.224 107.637 L 37.486 108.053 L 38.079 108.053 L 38.547 108.366 L 37.724 108.366 L 37.287 109.305 L 36.61 109.305 L 37.486 110.034 L 38.413 109.617 L 38.079 110.034 L 39.507 110.972 L 38.683 111.805 L 39.278 112.43 L 39.882 114.41 L 39.914 115.453 L 40.945 116.808 L 40.716 117.746 L 39.914 119.412 L 39.434 119.412 L 38.319 121.289 L 38.319 121.914 L 38.683 123.268 L 39.736 124.311 L 39.205 125.873 L 39.278 128.271 L 39.007 128.896 L 39.007 130.876 L 38.683 132.23 L 38.683 133.898 L 38.413 134.523 L 38.683 134.835 L 38.246 136.503 L 38.079 137.857 L 38.485 138.17 L 37.788 138.795 L 37.59 139.838 L 37.788 140.15 L 37.486 141.297 L 36.995 141.609 L 35.932 141.609 L 34.546 140.15 L 33.828 139.526 L 32.503 139.526 L 32.108 140.15 L 31.68 140.15 L 30.357 138.795 L 30.128 139.108 L 30.91 139.838 L 30.056 140.984 L 30.056 141.921 L 30.42 142.651 L 30.024 143.902 L 27.794 145.881 L 27.126 145.256 L 25.876 144.944 L 24.866 145.569 L 24.282 145.569 L 24.448 144.631 L 24.031 144.214 L 23.74 142.651 L 22.957 142.651 L 22.552 141.609 L 22.115 141.609 L 22.073 140.672 L 21.635 140.672 L 21.156 139.526 L 21.937 138.482 L 21.822 137.441 L 21.229 136.816 L 21.593 136.191 L 21.52 135.461 L 21.406 135.148 L 22.479 133.168 L 22.302 131.917 L 22.239 129.938 L 23.187 131.188 L 23.667 131.188 L 23.073 130.563 L 23.625 129.938 L 23.625 127.854 L 22.479 127.542 L 22.187 127.854 L 21.635 127.542 L 21.593 126.29 L 21.76 125.56 L 21.458 125.248 L 22.479 124.935 L 22.896 123.894 L 22.594 123.268 L 22.479 121.914 L 22.709 121.289 L 22.552 120.455 L 21.52 119.725 L 21.593 118.787 L 21.229 117.433 L 20.801 117.12 L 20.499 115.765 L 19.905 115.453 L 19.249 115.765 L 19.249 115.141 L 18.727 115.141 L 18.54 116.078 L 18.248 115.141 L 18.654 114.827 L 19.019 113.785 L 18.176 113.16 L 19.207 110.659 L 19.207 109.617 L 18.769 109.305 L 19.134 108.678 L 19.54 108.992 L 19.54 109.617 L 20.562 110.972 L 23.375 111.493 L 24.396 110.972 L 24.981 110.034 L 25.876 109.617 L 26.648 109.617 L 27.262 109.305 L 28.221 108.053 L 28.637 107.637 L 29.888 106.074 L 31.004 106.074 L 31.982 105.031 L 32.108 104.094 L 32.869 103.677 L 33.4 104.094 L 33.598 104.719 Z M 55.274 84.565 L 55.045 84.888 L 54.18 83.908 L 54.481 83.408 L 55.274 84.565 Z M 48.479 76.155 L 48.271 76.812 L 47.895 76.812 L 48.479 77.802 L 47.792 77.802 L 47.01 76.812 L 45.854 77.468 L 44.749 77.468 L 44.217 77.145 L 44.29 76.155 L 44.885 76.155 L 46.322 76.155 L 46.385 75.821 L 47.437 76.155 L 48.031 75.155 L 48.573 75.489 L 48.479 76.155 Z M 40.871 72.195 L 40.518 72.529 L 39.986 72.195 L 40.518 71.539 L 40.871 72.195 Z M 67.446 1.512 L 67.894 2.833 L 68.592 3.508 L 69.415 3.675 L 69.54 5.059 L 70.447 5.388 L 70.811 6.362 L 72.062 6.956 L 73.208 7.318 L 74.49 7.254 L 75.438 7.452 L 76.553 7.908 L 79.408 7.982 L 80.367 8.148 L 81.43 8.69 L 83.15 8.336 L 84.421 8.336 L 86.86 8.982 L 87.234 8.95 L 87.099 9.879 L 86.724 10.306 L 86.036 10.368 L 85.244 11.38 L 84.005 12.243 L 83.348 13.223 L 83.941 14.692 L 84.109 14.328 L 85.213 14.495 L 85.838 14.984 L 86.786 14.984 L 86.558 15.985 L 85.244 17.12 L 84.785 18.205 L 85.442 18.861 L 86.558 18.434 L 86.786 18.798 L 86.265 20.664 L 86.558 21.591 L 87.464 21.852 L 89.016 22.633 L 90.09 24.238 L 90.589 24.468 L 90.028 25.374 L 88.297 25.311 L 88.527 24.937 L 89.184 24.937 L 88.589 24.269 L 88.725 23.874 L 87.339 22.384 L 86.495 21.956 L 86.14 21.883 L 85.838 22.498 L 86.193 22.926 L 84.713 23.978 L 84.036 23.978 L 84.713 23.509 L 84.619 23.227 L 82.525 22.759 L 82.024 22.467 L 81.243 22.862 L 80.722 22.696 L 80.816 23.154 L 80.231 23.645 L 80.534 24.04 L 81.243 23.738 L 80.597 24.697 L 80.17 24.999 L 78.741 25.165 L 76.783 26.634 L 74.761 27.761 L 72.291 28.896 L 72.687 27.823 L 74.094 27.167 L 73.365 26.437 L 72.593 27.229 L 71.468 27.761 L 70.571 28.469 L 70.259 29.417 L 70.447 29.719 L 69.832 31.283 L 69.185 31.22 L 69.112 31.585 L 69.384 32.106 L 69.696 31.876 L 69.967 31.513 L 70.061 32.908 L 70.447 33.231 L 70.979 32.71 L 71.332 33.815 L 71.499 34.93 L 71.207 35.295 L 72.062 35.524 L 73.562 37.024 L 74.166 37.087 L 73.73 38.744 L 73.208 39.817 L 72.886 39.224 L 72.99 38.38 L 72.656 38.577 L 72.531 40.308 L 71.207 39.483 L 70.739 41.839 L 71.103 43.329 L 71.332 43.663 L 71.405 45.642 L 71.864 47.945 L 72.822 50.259 L 73.303 50.917 L 73.865 51.249 L 74.094 51.895 L 75.344 52.562 L 76.115 53.552 L 77.178 54.542 L 77.742 54.542 L 78.367 54.542 L 80.306 56.032 L 83.348 58.335 L 84.359 58.992 L 86.329 60.316 L 87.298 60.649 L 87.63 60.316 L 88.527 60.982 L 89.12 61.305 L 89.611 62.952 L 91.121 65.922 L 91.716 67.579 L 92.393 68.892 L 92.716 69.881 L 92.977 70.871 L 93.571 72.851 L 94.165 74.498 L 95.06 76.155 L 96.134 78.135 L 97.156 79.125 L 98.156 80.105 L 98.645 80.438 L 100.417 81.761 L 101.043 82.752 L 102.814 84.242 L 104.689 84.888 L 105.003 85.222 L 105.42 86.545 L 105.628 86.868 L 107.191 87.535 L 108.858 87.535 L 109.483 88.192 L 110.942 88.858 L 112.714 88.858 L 115.006 89.181 L 117.09 88.525 L 119.28 88.525 L 122.509 87.858 L 124.073 88.192 L 124.594 88.858 L 125.011 90.494 L 124.49 91.162 L 123.969 91.485 L 122.926 92.474 L 121.676 93.141 L 121.259 94.465 L 121.676 95.788 L 122.509 96.434 L 123.239 96.768 L 127.199 98.414 L 129.387 99.415 L 130.534 99.738 L 131.159 100.072 L 134.493 101.061 L 135.327 101.395 L 137.62 101.697 L 139.6 102.738 L 140.642 103.365 L 141.684 104.407 L 142.414 104.719 L 143.664 105.657 L 144.602 106.074 L 145.852 106.386 L 147.415 106.699 L 148.771 107.637 L 150.333 108.053 L 150.333 108.366 L 151.167 108.366 L 151.688 108.992 L 151.688 109.617 L 152.522 110.346 L 154.607 111.493 L 156.586 113.472 L 157.628 114.41 L 158.983 117.12 L 158.67 118.058 L 158.045 118.787 L 157.732 120.767 L 157.836 121.289 L 157.524 122.956 L 156.273 122.33 L 155.336 122.33 L 153.355 121.289 L 152.105 119.725 L 152.417 119.412 L 151.688 118.787 L 152.001 118.474 L 152.001 117.746 L 150.855 116.808 L 150.542 115.453 L 149.604 114.827 L 148.459 115.141 L 145.019 115.141 L 140.746 113.785 L 141.163 113.16 L 140.85 112.43 L 141.788 112.43 L 142.1 111.805 L 141.058 111.805 L 140.225 112.43 L 140.017 111.805 L 138.454 111.805 L 137.516 112.43 L 136.682 113.472 L 136.162 114.41 L 135.118 116.078 L 134.806 117.746 L 133.556 119.412 L 133.139 120.037 L 133.034 120.767 L 133.66 121.914 L 132.514 123.581 L 131.993 124.935 L 131.993 125.56 L 132.722 126.603 L 132.514 126.915 L 132.931 127.542 L 134.077 128.271 L 135.848 127.854 L 136.787 128.583 L 137.308 129.208 L 138.766 129.938 L 139.6 130.25 L 140.225 130.876 L 141.684 131.188 L 141.267 132.543 L 141.371 134.211 L 141.788 134.835 L 141.58 136.503 L 142.204 137.857 L 142.935 137.857 L 142.518 138.482 L 142.518 139.108 L 141.684 140.672 L 141.267 139.838 L 140.537 140.15 L 140.017 139.838 L 138.871 140.15 L 136.578 141.297 L 135.118 142.651 L 134.597 143.276 L 134.181 144.214 L 135.118 147.549 L 135.118 148.591 L 135.015 149.529 L 133.764 150.883 L 132.097 151.821 L 131.68 152.552 L 129.909 154.844 L 129.491 157.448 L 129.074 158.492 L 127.928 159.117 L 126.99 158.804 L 124.49 159.117 L 123.135 158.492 L 122.613 157.865 L 122.926 157.136 L 122.405 156.511 L 122.613 155.469 L 122.3 154.218 L 122.509 153.802 L 124.282 152.864 L 125.74 149.216 L 125.844 148.904 L 125.532 147.549 L 124.594 146.612 L 124.698 146.299 L 126.782 144.944 L 128.449 144.631 L 129.179 144.214 L 129.595 142.964 L 129.595 141.609 L 129.283 140.984 L 128.554 140.672 L 127.616 138.795 L 127.407 138.482 L 126.366 133.48 L 125.74 132.23 L 124.802 130.876 L 123.759 129.938 L 123.239 128.583 L 122.822 127.542 L 122.405 125.873 L 122.092 125.248 L 122.197 124.623 L 121.676 123.894 L 121.363 122.956 L 120.113 121.602 L 119.592 121.289 L 118.55 121.289 L 116.986 122.956 L 116.048 122.956 L 115.111 121.914 L 114.381 121.289 L 112.923 120.037 L 111.672 120.037 L 111.15 119.412 L 109.9 119.1 L 110.004 117.433 L 110.942 117.12 L 110.942 116.39 L 109.171 113.472 L 108.025 111.805 L 107.191 111.493 L 106.253 112.118 L 105.42 112.118 L 104.481 112.847 L 103.439 112.847 L 101.668 113.472 L 101.668 112.847 L 102.293 112.847 L 103.022 111.805 L 103.439 111.493 L 103.439 110.659 L 101.981 110.034 L 100.938 108.992 L 99.938 108.992 L 99.708 109.617 L 98.219 109.305 L 98.073 110.034 L 97.478 110.034 L 97.478 108.678 L 96.957 107.324 L 96.302 106.386 L 95.666 106.074 L 95.541 105.344 L 94.633 103.677 L 93.071 102.426 L 92.612 102.113 L 91.121 102.113 L 90.694 102.426 L 90.893 103.052 L 87.464 101.697 L 85.838 102.113 L 84.713 102.738 L 84.421 103.052 L 83.744 103.052 L 82.816 101.061 L 81.629 100.072 L 80.889 99.738 L 80.065 99.738 L 78.367 99.081 L 78.137 99.415 L 76.876 97.757 L 75.511 96.101 L 74.094 95.121 L 72.687 94.465 L 72.364 93.798 L 72.229 92.808 L 71.405 91.485 L 68.226 89.181 L 67.08 89.515 L 66.028 87.858 L 65.83 87.201 L 64.684 85.222 L 63.11 83.908 L 61.944 83.408 L 60.651 82.752 L 58.786 82.752 L 58.421 83.908 L 57.243 83.085 L 57.473 82.418 L 58.129 82.418 L 58.421 81.761 L 58.348 81.095 L 58.036 80.105 L 57.598 80.438 L 56.941 79.125 L 55.961 78.468 L 55.732 77.802 L 54.45 76.812 L 52.356 76.155 L 52.742 75.489 L 52.876 74.498 L 51.991 73.842 L 51.033 73.519 L 49.761 73.519 L 49.532 74.165 L 49.001 72.851 L 49.469 72.195 L 49.761 71.205 L 49.834 70.215 L 49.396 67.912 L 48.343 65.922 L 47.302 64.598 L 46.718 64.275 L 46.416 62.619 L 46.02 58.669 L 45.958 58.335 L 45.248 56.689 L 44.384 55.533 L 43.926 54.875 L 42.903 54.208 L 42.06 54.208 L 40.58 53.219 L 40.278 53.885 L 39.601 53.885 L 38.382 52.562 L 37.724 52.562 L 37.121 51.572 L 36.287 51.249 L 35.995 50.917 L 35.4 50.917 L 34.546 50.259 L 34.505 49.926 L 32.744 48.935 L 32.442 49.926 L 31.68 49.27 L 31.451 48.602 L 29.826 48.279 L 28.814 47.945 L 27.856 47.945 L 27.606 47.612 L 26.304 47.612 L 25.094 48.602 L 24.282 48.935 L 23.01 49.926 L 22.302 51.249 L 22.302 51.572 L 21.041 52.229 L 20.019 53.219 L 19.79 54.208 L 19.019 55.533 L 19.207 56.032 L 18.727 56.366 L 17.883 57.012 L 16.507 57.669 L 14.288 58.335 L 13.099 58.992 L 10.652 58.669 L 10.35 57.669 L 11.37 56.032 L 12.329 55.209 L 13.099 53.552 L 12.506 52.562 L 12.683 51.895 L 9.151 52.896 L 7.546 52.229 L 6.233 51.249 L 4.798 50.592 L 4.319 50.592 L 3.423 49.593 L 2.766 48.279 L 2.886 47.612 L 3.423 47.279 L 2.468 45.965 L 2.588 45.309 L 3.245 44.653 L 3.841 43.986 L 3.841 42.996 L 4.38 42.662 L 5.276 42.662 L 5.096 42.339 L 4.619 40.901 L 4.739 40.37 L 3.782 39.651 L 2.946 39.786 L 1.871 39.192 L 1.272 38.38 L 1.272 36.889 L 0.497 36.598 L -0.22 35.295 L 0.616 34.638 L 1.453 34.346 L 2.827 34.857 L 3.305 34.211 L 3.722 34.211 L 4.26 33.503 L 5.155 33.2 L 5.455 33.429 L 6.171 32.637 L 5.993 31.513 L 6.889 30.012 L 6.112 29.553 L 5.873 29.032 L 4.739 28.166 L 4.38 26.864 L 4.558 25.905 L 3.066 25.134 L 2.468 24.468 L 2.348 23.092 L 2.588 22.561 L 3.903 22.248 L 4.678 21.852 L 5.395 20.893 L 5.932 21.487 L 6.587 21.789 L 7.369 21.716 L 8.62 21.195 L 9.578 21.258 L 11.37 20.466 L 11.85 19.997 L 13.048 20.299 L 13.694 20.955 L 15.371 21.258 L 15.601 20.83 L 16.216 20.069 L 17.29 19.799 L 17.581 19.256 L 17.695 18.372 L 18.905 17.547 L 19.134 16.339 L 18.425 15.287 L 18.842 14.724 L 19.905 14.328 L 20.499 13.515 L 21.156 13.119 L 21.458 12.171 L 22.479 11.805 L 22.957 12.108 L 23.01 13.057 L 22.781 14.495 L 22.781 15.381 L 23.803 16.182 L 24.917 17.683 L 25.825 18.131 L 26.491 17.965 L 27.429 18.266 L 27.794 18.663 L 26.95 20.164 L 28.221 20.758 L 28.7 21.883 L 28.7 22.862 L 29.826 23.061 L 30.545 21.956 L 30.42 21.362 L 29.961 21.123 L 29.597 20.362 L 30.024 19.997 L 29.826 19.163 L 30.545 18.725 L 30.711 17.715 L 31.816 16.808 L 32.577 15.745 L 33.828 15.683 L 32.577 15.745 L 33.109 14.39 L 33.004 12.462 L 32.703 12.108 L 33.035 11.265 L 33.828 10.962 L 34.442 11.514 L 35.141 11.129 L 35.339 13.287 L 35.735 13.515 L 36.089 14.39 L 36.61 14.692 L 38.079 14.692 L 38.485 14.328 L 38.485 13.713 L 39.205 13.817 L 40.809 13.191 L 41.591 13.484 L 41.757 14.495 L 42.487 15.151 L 42.602 15.881 L 43.852 15.453 L 44.062 15.088 L 43.196 13.952 L 43.696 12.994 L 43.696 12.39 L 42.57 12.108 L 42.425 10.306 L 43.103 9.055 L 44.353 8.648 L 44.885 8.816 L 44.885 9.544 L 45.593 9.941 L 47.197 10.17 L 47.5 10.013 L 47.562 8.648 L 46.781 8.378 L 46.489 7.781 L 46.854 6.659 L 47.145 6.297 L 47.01 5.522 L 47.437 4.398 L 48.343 4.762 L 49.959 4.398 L 51.033 5.091 L 50.657 5.522 L 52.658 6.065 L 54.086 5.966 L 54.743 4.993 L 55.138 3.376 L 55.93 2.535 L 57.837 1.943 L 58.942 2.239 L 59.524 1.644 L 60.286 1.809 L 61.245 1.644 L 62.318 1.777 L 63.11 2.072 L 65.434 0.821 L 66.257 0.755 L 67.446 0.011 L 68.519 -0.022 L 68.289 0.755 L 67.446 1.512 Z M 62.516 50.592 L 62.381 50.917 L 63.141 50.259 L 62.516 50.592 Z M 73.052 55.533 L 73.562 56.366 L 74.032 56.366 L 74.323 55.533 L 74.261 54.542 L 73.5 54.875 L 73.052 55.533 Z" id="outline">
    <title>italy</title>
  </path>
  <rect x="376.417" y="30.71" width="118.875" height="118.875" rx="15" ry="15" style="stroke: rgb(0, 0, 0); stroke-width: 0px; stroke-linecap: round; fill: rgb(144, 122, 214); pointer-events: none;">
    <title>square</title>
  </rect>
  <path d="M 124.716 73.212 C 124.716 78.634 123.253 83.54 120.326 87.93 C 117.4 92.319 113.14 95.546 107.545 97.612 L 127.298 134.793 L 95.281 134.793 L 79.531 102.389 L 68.945 102.389 L 68.945 134.793 L 40.413 134.793 L 40.413 45.972 L 94.765 45.972 C 101.134 45.972 106.577 47.198 111.096 49.652 C 115.614 52.104 119.014 55.418 121.295 59.592 C 123.576 63.766 124.716 68.306 124.716 73.212 Z M 95.668 74.374 C 95.668 72.05 94.893 70.113 93.344 68.565 C 91.795 67.015 89.902 66.241 87.664 66.241 L 68.945 66.241 L 68.945 82.637 L 87.664 82.637 C 89.902 82.637 91.795 81.84 93.344 80.248 C 94.893 78.656 95.668 76.698 95.668 74.374 Z M 144.739 134.793 L 144.739 45.972 L 173.27 45.972 L 173.27 134.793 L 144.739 134.793 Z M 233.576 44.423 C 244.937 44.423 254.276 46.725 261.591 51.33 C 268.907 55.934 272.651 62.755 272.823 71.792 L 272.823 73.341 L 246.099 73.341 L 246.099 72.825 C 246.099 70.243 245.152 68.091 243.259 66.37 C 241.366 64.648 238.482 63.788 234.609 63.788 C 230.822 63.788 227.918 64.347 225.895 65.466 C 223.872 66.585 222.861 67.962 222.861 69.597 C 222.861 71.921 224.238 73.642 226.992 74.761 C 229.747 75.88 234.179 77.042 240.29 78.247 C 247.433 79.71 253.307 81.238 257.912 82.83 C 262.517 84.422 266.54 87.026 269.983 90.641 C 273.426 94.255 275.19 99.161 275.276 105.358 C 275.276 115.858 271.726 123.647 264.625 128.725 C 257.524 133.803 248.035 136.342 236.158 136.342 C 222.301 136.342 211.522 134.018 203.819 129.371 C 196.116 124.723 192.264 116.503 192.264 104.713 L 219.246 104.713 C 219.246 109.188 220.408 112.179 222.732 113.685 C 225.056 115.191 228.671 115.944 233.576 115.944 C 237.191 115.944 240.182 115.556 242.549 114.782 C 244.916 114.008 246.099 112.416 246.099 110.006 C 246.099 107.854 244.787 106.24 242.162 105.165 C 239.537 104.089 235.255 102.948 229.316 101.743 C 222.087 100.194 216.105 98.58 211.371 96.902 C 206.638 95.224 202.507 92.448 198.978 88.575 C 195.449 84.702 193.685 79.452 193.685 72.825 C 193.685 63.099 197.45 55.934 204.981 51.33 C 212.512 46.725 222.043 44.423 233.576 44.423 Z M 316.215 134.793 L 284.715 45.972 L 315.182 45.972 L 332.998 105.358 L 333.514 105.358 L 351.459 45.972 L 380.636 45.972 L 349.265 134.793 L 316.215 134.793 Z M 434.874 44.423 C 450.194 44.423 462.028 48.339 470.377 56.171 C 478.725 64.003 482.899 75.407 482.899 90.383 C 482.899 105.358 478.725 116.762 470.377 124.594 C 462.028 132.426 450.194 136.342 434.874 136.342 C 419.554 136.342 407.741 132.447 399.436 124.659 C 391.131 116.869 386.978 105.444 386.978 90.383 C 386.978 75.321 391.131 63.895 399.436 56.107 C 407.741 48.317 419.554 44.423 434.874 44.423 Z M 434.874 65.724 C 428.763 65.724 424.116 67.574 420.931 71.276 C 417.747 74.976 416.155 79.968 416.155 86.251 L 416.155 94.514 C 416.155 100.796 417.747 105.788 420.931 109.489 C 424.116 113.19 428.763 115.041 434.874 115.041 C 440.985 115.041 445.654 113.19 448.882 109.489 C 452.109 105.788 453.723 100.796 453.723 94.514 L 453.723 86.251 C 453.723 79.968 452.109 74.976 448.882 71.276 C 445.654 67.574 440.985 65.724 434.874 65.724 Z" style="paint-order: stroke; white-space: pre; fill: rgb(45, 55, 72); pointer-events: none;">
    <title>risvo text</title>
  </path>
  <g style="pointer-events: none;" transform="matrix(1, 0, 0, 1, -16.548164, -10.183486)">
    <title>letter O</title>
    <path d="M 451.422 54.606 C 466.742 54.606 478.576 58.522 486.925 66.354 C 495.273 74.186 499.447 85.59 499.447 100.566 C 499.447 115.542 495.273 126.945 486.925 134.777 C 478.576 142.609 466.742 146.525 451.422 146.525 C 436.102 146.525 424.289 142.631 415.984 134.842 C 407.678 127.053 403.526 115.628 403.526 100.566 C 403.526 85.504 407.678 74.079 415.984 66.29 C 424.289 58.501 436.102 54.606 451.422 54.606 Z" style="paint-order: stroke; white-space: pre; fill: rgb(255, 255, 255);"/>
    <path d="M 451.422 75.907 C 445.311 75.907 440.663 77.758 437.479 81.459 C 434.295 85.16 432.703 90.152 432.703 96.434 L 432.703 104.697 C 432.703 110.98 434.295 115.972 437.479 119.672 C 440.663 123.374 445.311 125.224 451.422 125.224 C 457.532 125.224 462.202 123.374 465.43 119.672 C 468.657 115.972 470.271 110.98 470.271 104.697 L 470.271 96.434 C 470.271 90.152 468.657 85.16 465.43 81.459 C 462.202 77.758 457.532 75.907 451.422 75.907 Z" style="paint-order: stroke; white-space: pre; fill: rgb(144, 122, 214);"/>
  </g>
  <path d="M 46.18 160.332 C 48.553 160.332 50.387 160.938 51.68 162.152 C 52.973 163.365 53.62 165.132 53.62 167.452 C 53.62 169.772 52.973 171.538 51.68 172.752 C 50.387 173.965 48.553 174.572 46.18 174.572 C 43.807 174.572 41.977 173.968 40.69 172.762 C 39.403 171.555 38.76 169.785 38.76 167.452 C 38.76 165.118 39.403 163.348 40.69 162.142 C 41.977 160.935 43.807 160.332 46.18 160.332 Z M 46.18 163.632 C 45.233 163.632 44.513 163.918 44.02 164.492 C 43.527 165.065 43.28 165.838 43.28 166.812 L 43.28 168.092 C 43.28 169.065 43.527 169.838 44.02 170.412 C 44.513 170.985 45.233 171.272 46.18 171.272 C 47.127 171.272 47.85 170.985 48.35 170.412 C 48.85 169.838 49.1 169.065 49.1 168.092 L 49.1 166.812 C 49.1 165.838 48.85 165.065 48.35 164.492 C 47.85 163.918 47.127 163.632 46.18 163.632 Z M 65.512 160.572 C 66.365 160.572 67.125 160.768 67.792 161.162 C 68.459 161.555 68.979 162.095 69.352 162.782 C 69.725 163.468 69.912 164.238 69.912 165.092 L 69.912 165.352 C 69.912 166.205 69.725 166.978 69.352 167.672 C 68.979 168.365 68.459 168.908 67.792 169.302 C 67.125 169.695 66.365 169.892 65.512 169.892 L 62.212 169.892 L 62.212 174.332 L 57.792 174.332 L 57.792 160.572 L 65.512 160.572 Z M 62.212 166.672 L 64.032 166.672 C 64.499 166.672 64.849 166.552 65.082 166.312 C 65.315 166.072 65.432 165.745 65.432 165.332 L 65.432 165.172 C 65.432 164.745 65.315 164.415 65.082 164.182 C 64.849 163.948 64.499 163.832 64.032 163.832 L 62.212 163.832 L 62.212 166.672 Z M 74.033 160.572 L 85.933 160.572 L 85.933 163.872 L 78.453 163.872 L 78.453 165.772 L 84.853 165.772 L 84.853 168.932 L 78.453 168.932 L 78.453 171.032 L 86.073 171.032 L 86.073 174.332 L 74.033 174.332 L 74.033 160.572 Z M 100.108 174.332 L 94.328 167.652 L 94.328 174.332 L 90.268 174.332 L 90.268 160.572 L 94.128 160.572 L 99.908 167.352 L 99.908 160.572 L 103.968 160.572 L 103.968 174.332 L 100.108 174.332 Z M 123.141 160.572 C 127.954 160.572 130.361 162.865 130.361 167.452 C 130.361 172.038 127.954 174.332 123.141 174.332 L 117.181 174.332 L 117.181 160.572 L 123.141 160.572 Z M 121.601 171.032 L 123.061 171.032 C 124.914 171.032 125.841 170.038 125.841 168.052 L 125.841 166.852 C 125.841 164.865 124.914 163.872 123.061 163.872 L 121.601 163.872 L 121.601 171.032 Z M 142.898 174.332 L 142.318 172.392 L 137.498 172.392 L 136.918 174.332 L 132.398 174.332 L 137.418 160.572 L 142.558 160.572 L 147.578 174.332 L 142.898 174.332 Z M 138.418 169.312 L 141.398 169.312 L 139.958 164.412 L 139.878 164.412 L 138.418 169.312 Z M 157.573 164.092 L 157.573 174.332 L 153.153 174.332 L 153.153 164.092 L 148.633 164.092 L 148.633 160.572 L 162.073 160.572 L 162.073 164.092 L 157.573 164.092 Z M 173.751 174.332 L 173.171 172.392 L 168.351 172.392 L 167.771 174.332 L 163.251 174.332 L 168.271 160.572 L 173.411 160.572 L 178.431 174.332 L 173.751 174.332 Z M 169.271 169.312 L 172.251 169.312 L 170.811 164.412 L 170.731 164.412 L 169.271 169.312 Z M 196.126 160.332 C 197.886 160.332 199.333 160.688 200.466 161.402 C 201.599 162.115 202.179 163.172 202.206 164.572 L 202.206 164.812 L 198.066 164.812 L 198.066 164.732 C 198.066 164.332 197.919 163.998 197.626 163.732 C 197.333 163.465 196.886 163.332 196.286 163.332 C 195.699 163.332 195.249 163.418 194.936 163.592 C 194.623 163.765 194.466 163.978 194.466 164.232 C 194.466 164.592 194.679 164.858 195.106 165.032 C 195.533 165.205 196.219 165.385 197.166 165.572 C 198.273 165.798 199.183 166.035 199.896 166.282 C 200.609 166.528 201.233 166.932 201.766 167.492 C 202.299 168.052 202.573 168.812 202.586 169.772 C 202.586 171.398 202.036 172.605 200.936 173.392 C 199.836 174.178 198.366 174.572 196.526 174.572 C 194.379 174.572 192.709 174.212 191.516 173.492 C 190.323 172.772 189.726 171.498 189.726 169.672 L 193.906 169.672 C 193.906 170.365 194.086 170.828 194.446 171.062 C 194.806 171.295 195.366 171.412 196.126 171.412 C 196.686 171.412 197.149 171.352 197.516 171.232 C 197.883 171.112 198.066 170.865 198.066 170.492 C 198.066 170.158 197.863 169.908 197.456 169.742 C 197.049 169.575 196.386 169.398 195.466 169.212 C 194.346 168.972 193.419 168.722 192.686 168.462 C 191.953 168.202 191.313 167.772 190.766 167.172 C 190.219 166.572 189.946 165.758 189.946 164.732 C 189.946 163.225 190.529 162.115 191.696 161.402 C 192.863 160.688 194.339 160.332 196.126 160.332 Z M 220.282 168.792 C 220.282 170.672 219.689 172.105 218.502 173.092 C 217.315 174.078 215.629 174.572 213.442 174.572 C 211.255 174.572 209.565 174.078 208.372 173.092 C 207.179 172.105 206.582 170.672 206.582 168.792 L 206.582 160.572 L 211.002 160.572 L 211.002 168.732 C 211.002 169.505 211.209 170.122 211.622 170.582 C 212.035 171.042 212.635 171.272 213.422 171.272 C 214.209 171.272 214.812 171.038 215.232 170.572 C 215.652 170.105 215.862 169.492 215.862 168.732 L 215.862 160.572 L 220.282 160.572 L 220.282 168.792 Z M 225.038 160.572 L 229.458 160.572 L 229.458 170.812 L 236.518 170.812 L 236.518 174.332 L 225.038 174.332 L 225.038 160.572 Z M 261.693 164.792 C 261.693 165.632 261.466 166.392 261.013 167.072 C 260.56 167.752 259.9 168.252 259.033 168.572 L 262.093 174.332 L 257.133 174.332 L 254.693 169.312 L 253.053 169.312 L 253.053 174.332 L 248.633 174.332 L 248.633 160.572 L 257.053 160.572 C 258.04 160.572 258.883 160.762 259.583 161.142 C 260.283 161.522 260.81 162.035 261.163 162.682 C 261.516 163.328 261.693 164.032 261.693 164.792 Z M 257.193 164.972 C 257.193 164.612 257.073 164.312 256.833 164.072 C 256.593 163.832 256.3 163.712 255.953 163.712 L 253.053 163.712 L 253.053 166.252 L 255.953 166.252 C 256.3 166.252 256.593 166.128 256.833 165.882 C 257.073 165.635 257.193 165.332 257.193 164.972 Z M 266.192 174.332 L 266.192 160.572 L 270.612 160.572 L 270.612 174.332 L 266.192 174.332 Z M 281.351 160.332 C 283.111 160.332 284.558 160.688 285.691 161.402 C 286.824 162.115 287.404 163.172 287.431 164.572 L 287.431 164.812 L 283.291 164.812 L 283.291 164.732 C 283.291 164.332 283.144 163.998 282.851 163.732 C 282.558 163.465 282.111 163.332 281.511 163.332 C 280.924 163.332 280.474 163.418 280.161 163.592 C 279.848 163.765 279.691 163.978 279.691 164.232 C 279.691 164.592 279.904 164.858 280.331 165.032 C 280.758 165.205 281.444 165.385 282.391 165.572 C 283.498 165.798 284.408 166.035 285.121 166.282 C 285.834 166.528 286.458 166.932 286.991 167.492 C 287.524 168.052 287.798 168.812 287.811 169.772 C 287.811 171.398 287.261 172.605 286.161 173.392 C 285.061 174.178 283.591 174.572 281.751 174.572 C 279.604 174.572 277.934 174.212 276.741 173.492 C 275.548 172.772 274.951 171.498 274.951 169.672 L 279.131 169.672 C 279.131 170.365 279.311 170.828 279.671 171.062 C 280.031 171.295 280.591 171.412 281.351 171.412 C 281.911 171.412 282.374 171.352 282.741 171.232 C 283.108 171.112 283.291 170.865 283.291 170.492 C 283.291 170.158 283.088 169.908 282.681 169.742 C 282.274 169.575 281.611 169.398 280.691 169.212 C 279.571 168.972 278.644 168.722 277.911 168.462 C 277.178 168.202 276.538 167.772 275.991 167.172 C 275.444 166.572 275.171 165.758 275.171 164.732 C 275.171 163.225 275.754 162.115 276.921 161.402 C 278.088 160.688 279.564 160.332 281.351 160.332 Z M 298.367 160.332 C 300.407 160.332 302.02 160.842 303.207 161.862 C 304.394 162.882 304.987 164.338 304.987 166.232 L 300.767 166.232 C 300.767 165.432 300.557 164.798 300.137 164.332 C 299.717 163.865 299.12 163.632 298.347 163.632 C 297.454 163.632 296.797 163.912 296.377 164.472 C 295.957 165.032 295.747 165.812 295.747 166.812 L 295.747 168.092 C 295.747 169.078 295.957 169.855 296.377 170.422 C 296.797 170.988 297.44 171.272 298.307 171.272 C 299.16 171.272 299.807 171.052 300.247 170.612 C 300.687 170.172 300.907 169.552 300.907 168.752 L 304.987 168.752 C 304.987 170.632 304.41 172.072 303.257 173.072 C 302.104 174.072 300.474 174.572 298.367 174.572 C 296.02 174.572 294.244 173.972 293.037 172.772 C 291.83 171.572 291.227 169.798 291.227 167.452 C 291.227 165.105 291.83 163.332 293.037 162.132 C 294.244 160.932 296.02 160.332 298.367 160.332 Z M 318.441 174.332 L 318.441 169.112 L 313.581 169.112 L 313.581 174.332 L 309.161 174.332 L 309.161 160.572 L 313.581 160.572 L 313.581 165.592 L 318.441 165.592 L 318.441 160.572 L 322.861 160.572 L 322.861 174.332 L 318.441 174.332 Z M 327.817 174.332 L 327.817 160.572 L 332.237 160.572 L 332.237 174.332 L 327.817 174.332 Z M 344.036 160.332 C 346.409 160.332 348.243 160.938 349.536 162.152 C 350.829 163.365 351.476 165.132 351.476 167.452 C 351.476 169.772 350.829 171.538 349.536 172.752 C 348.243 173.965 346.409 174.572 344.036 174.572 C 341.663 174.572 339.833 173.968 338.546 172.762 C 337.259 171.555 336.616 169.785 336.616 167.452 C 336.616 165.118 337.259 163.348 338.546 162.142 C 339.833 160.935 341.663 160.332 344.036 160.332 Z M 344.036 163.632 C 343.089 163.632 342.369 163.918 341.876 164.492 C 341.383 165.065 341.136 165.838 341.136 166.812 L 341.136 168.092 C 341.136 169.065 341.383 169.838 341.876 170.412 C 342.369 170.985 343.089 171.272 344.036 171.272 C 344.983 171.272 345.706 170.985 346.206 170.412 C 346.706 169.838 346.956 169.065 346.956 168.092 L 346.956 166.812 C 346.956 165.838 346.706 165.065 346.206 164.492 C 345.706 163.918 344.983 163.632 344.036 163.632 Z M 364.309 174.332 L 364.309 160.572 L 368.729 160.572 L 368.729 174.332 L 364.309 174.332 Z M 383.528 174.332 L 377.748 167.652 L 377.748 174.332 L 373.688 174.332 L 373.688 160.572 L 377.548 160.572 L 383.328 167.352 L 383.328 160.572 L 387.388 160.572 L 387.388 174.332 L 383.528 174.332 Z M 392.145 160.572 L 403.265 160.572 L 403.265 163.872 L 396.565 163.872 L 396.565 166.232 L 402.325 166.232 L 402.325 169.392 L 396.565 169.392 L 396.565 174.332 L 392.145 174.332 L 392.145 160.572 Z M 407.283 160.572 L 419.183 160.572 L 419.183 163.872 L 411.703 163.872 L 411.703 165.772 L 418.103 165.772 L 418.103 168.932 L 411.703 168.932 L 411.703 171.032 L 419.323 171.032 L 419.323 174.332 L 407.283 174.332 L 407.283 160.572 Z M 431.439 164.092 L 431.439 174.332 L 427.019 174.332 L 427.019 164.092 L 422.499 164.092 L 422.499 160.572 L 435.939 160.572 L 435.939 164.092 L 431.439 164.092 Z M 447.675 164.092 L 447.675 174.332 L 443.255 174.332 L 443.255 164.092 L 438.735 164.092 L 438.735 160.572 L 452.175 160.572 L 452.175 164.092 L 447.675 164.092 Z M 456.191 174.332 L 456.191 160.572 L 460.611 160.572 L 460.611 174.332 L 456.191 174.332 Z M 469.31 174.332 L 464.43 160.572 L 469.15 160.572 L 471.91 169.772 L 471.99 169.772 L 474.77 160.572 L 479.29 160.572 L 474.43 174.332 L 469.31 174.332 Z M 489.087 160.332 C 491.46 160.332 493.294 160.938 494.587 162.152 C 495.88 163.365 496.527 165.132 496.527 167.452 C 496.527 169.772 495.88 171.538 494.587 172.752 C 493.294 173.965 491.46 174.572 489.087 174.572 C 486.714 174.572 484.884 173.968 483.597 172.762 C 482.31 171.555 481.667 169.785 481.667 167.452 C 481.667 165.118 482.31 163.348 483.597 162.142 C 484.884 160.935 486.714 160.332 489.087 160.332 Z M 489.087 163.632 C 488.14 163.632 487.42 163.918 486.927 164.492 C 486.434 165.065 486.187 165.838 486.187 166.812 L 486.187 168.092 C 486.187 169.065 486.434 169.838 486.927 170.412 C 487.42 170.985 488.14 171.272 489.087 171.272 C 490.034 171.272 490.757 170.985 491.257 170.412 C 491.757 169.838 492.007 169.065 492.007 168.092 L 492.007 166.812 C 492.007 165.838 491.757 165.065 491.257 164.492 C 490.757 163.918 490.034 163.632 489.087 163.632 Z" style="white-space: pre; fill: rgb(45, 55, 72); pointer-events: none;">
    <title>open data text</title>
  </path>
</svg>