<?xml version="1.0" encoding="utf-8"?>
<svg viewBox="0 0 555 203" xmlns="http://www.w3.org/2000/svg" xmlns:bx="https://boxy-svg.com">
  <defs>
    <bx:guide x="-73.984" y="116.596" angle="0"/>
  </defs>
  <path style="fill-rule: evenodd; stroke: none; fill-opacity: 0.4; fill: rgb(0, 191, 165); pointer-events: none;" d="M 98.635 214.839 L 98.51 214.839 L 97.27 214.526 L 98.708 214.526 L 98.635 214.839 Z M 89.683 192.225 L 89.434 192.85 L 88.943 192.85 L 88.047 192.225 L 87.818 191.495 L 88.641 191.495 L 88.943 191.183 L 89.683 192.225 Z M 93.497 172.009 L 93.133 172.321 L 92.122 171.592 L 92.83 171.592 L 93.497 172.009 Z M 138.12 164.714 L 137.182 166.694 L 135.828 168.675 L 134.16 172.009 L 133.43 172.946 L 133.638 173.572 L 133.013 176.281 L 132.18 177.532 L 132.284 180.033 L 132.596 180.762 L 134.16 181.388 L 134.681 181.7 L 133.744 182.743 L 134.785 184.41 L 135.515 184.41 L 135.619 185.347 L 136.036 185.973 L 135.202 186.389 L 135.202 186.702 L 133.952 187.224 L 133.013 189.829 L 133.638 191.808 L 133.43 192.225 L 132.805 192.537 L 131.763 191.495 L 131.554 191.808 L 129.991 191.183 L 128.637 191.808 L 127.177 191.495 L 126.865 191.183 L 124.364 190.558 L 122.905 187.849 L 121.968 187.014 L 121.133 186.389 L 118.841 185.347 L 117.591 185.347 L 116.256 185.66 L 115.6 185.66 L 114.704 185.035 L 113.579 184.722 L 112.546 184.41 L 110.879 182.743 L 109.222 182.326 L 106.638 181.074 L 106.263 180.345 L 105.075 179.407 L 103.334 179.095 L 103.043 179.407 L 102.22 177.949 L 101.104 177.949 L 99.531 177.949 L 97.791 178.261 L 96.854 176.906 L 95.821 176.594 L 95.363 176.281 L 94.383 173.988 L 94.883 173.572 L 95.049 172.634 L 94.883 172.009 L 95.363 170.342 L 96.322 169.3 L 96.718 169.3 L 97.437 168.361 L 98.342 168.361 L 98.208 167.319 L 98.801 167.319 L 99.666 168.987 L 100.865 170.029 L 101.928 169.613 L 103.168 168.675 L 102.939 167.631 L 103.553 167.006 L 105.043 167.006 L 106.544 165.965 L 107.367 167.006 L 107.669 168.361 L 109.389 168.048 L 109.858 168.987 L 112.151 170.029 L 113.339 170.342 L 114.84 169.613 L 115.36 168.987 L 116.486 168.675 L 117.799 168.987 L 118.737 168.987 L 120.091 168.987 L 121.655 168.675 L 122.176 168.361 L 123.322 168.361 L 125.093 167.631 L 126.344 166.381 L 127.281 165.965 L 128.741 165.652 L 129.575 165.965 L 130.721 165.965 L 131.242 166.381 L 132.596 165.965 L 133.326 164.401 L 133.43 164.714 L 134.056 164.714 L 135.515 164.401 L 137.077 163.047 L 137.703 163.047 L 139.057 163.36 L 138.12 163.985 L 138.12 164.714 Z M 129.679 161.691 L 129.783 162.422 L 129.158 161.691 L 129.158 161.066 L 129.679 161.691 Z M 129.366 160.442 L 129.262 160.754 L 128.325 160.442 L 128.325 159.712 L 129.054 159.712 L 129.366 160.442 Z M 127.906 158.774 L 127.698 159.087 L 126.76 158.774 L 127.49 158.774 L 127.906 158.774 Z M 38.621 154.397 L 38.183 154.397 L 37.349 152.834 L 37.526 151.792 L 38.735 152.104 L 38.965 152.834 L 38.621 154.397 Z M 36.818 150.333 L 36.818 152.104 L 36.088 151.792 L 35.682 151.167 L 35.974 150.333 L 36.818 150.333 Z M 113.047 121.676 L 112.151 121.988 L 111.608 121.988 L 111.702 120.842 L 113.14 121.155 L 113.047 121.676 Z M 36.338 117.507 L 36.265 118.549 L 35.797 118.549 L 36.036 117.507 L 36.631 117.195 L 36.703 116.569 L 37.349 116.257 L 37.411 116.569 L 37.411 117.195 L 36.338 117.507 Z M 52.637 115.214 L 52.178 115.214 L 52.48 114.277 L 52.761 114.59 L 52.637 115.214 Z M 52.178 114.59 L 51.386 114.59 L 51.355 114.59 L 51.98 113.86 L 52.178 114.59 Z M 50.146 114.902 L 50.792 115.214 L 50.854 114.59 L 52.283 116.257 L 52.283 116.882 L 52.637 115.84 L 53.908 116.257 L 53.543 116.882 L 53.158 118.236 L 53.772 117.82 L 54.034 118.236 L 54.627 118.236 L 55.095 118.549 L 54.272 118.549 L 53.835 119.488 L 53.158 119.488 L 54.034 120.217 L 54.961 119.8 L 54.627 120.217 L 56.055 121.155 L 55.231 121.988 L 55.826 122.613 L 56.43 124.593 L 56.462 125.636 L 57.493 126.991 L 57.264 127.929 L 56.462 129.595 L 55.982 129.595 L 54.867 131.472 L 54.867 132.097 L 55.231 133.451 L 56.284 134.494 L 55.753 136.056 L 55.826 138.454 L 55.555 139.079 L 55.555 141.059 L 55.231 142.413 L 55.231 144.081 L 54.961 144.706 L 55.231 145.018 L 54.794 146.686 L 54.627 148.04 L 55.033 148.353 L 54.336 148.978 L 54.138 150.021 L 54.336 150.333 L 54.034 151.48 L 53.543 151.792 L 52.48 151.792 L 51.094 150.333 L 50.376 149.709 L 49.051 149.709 L 48.656 150.333 L 48.228 150.333 L 46.905 148.978 L 46.676 149.291 L 47.458 150.021 L 46.604 151.167 L 46.604 152.104 L 46.968 152.834 L 46.572 154.085 L 44.342 156.064 L 43.674 155.439 L 42.424 155.127 L 41.414 155.752 L 40.83 155.752 L 40.996 154.814 L 40.579 154.397 L 40.288 152.834 L 39.505 152.834 L 39.1 151.792 L 38.663 151.792 L 38.621 150.855 L 38.183 150.855 L 37.704 149.709 L 38.485 148.665 L 38.37 147.624 L 37.777 146.999 L 38.141 146.374 L 38.068 145.644 L 37.954 145.331 L 39.027 143.351 L 38.85 142.1 L 38.787 140.121 L 39.735 141.371 L 40.215 141.371 L 39.621 140.746 L 40.173 140.121 L 40.173 138.037 L 39.027 137.725 L 38.735 138.037 L 38.183 137.725 L 38.141 136.473 L 38.308 135.743 L 38.006 135.431 L 39.027 135.118 L 39.444 134.077 L 39.142 133.451 L 39.027 132.097 L 39.257 131.472 L 39.1 130.638 L 38.068 129.908 L 38.141 128.97 L 37.777 127.616 L 37.349 127.303 L 37.047 125.948 L 36.453 125.636 L 35.797 125.948 L 35.797 125.324 L 35.275 125.324 L 35.088 126.261 L 34.796 125.324 L 35.202 125.01 L 35.567 123.968 L 34.724 123.343 L 35.755 120.842 L 35.755 119.8 L 35.317 119.488 L 35.682 118.861 L 36.088 119.175 L 36.088 119.8 L 37.11 121.155 L 39.923 121.676 L 40.944 121.155 L 41.529 120.217 L 42.424 119.8 L 43.196 119.8 L 43.81 119.488 L 44.769 118.236 L 45.185 117.82 L 46.436 116.257 L 47.552 116.257 L 48.53 115.214 L 48.656 114.277 L 49.417 113.86 L 49.948 114.277 L 50.146 114.902 Z M 71.822 94.748 L 71.593 95.071 L 70.728 94.091 L 71.029 93.591 L 71.822 94.748 Z M 65.027 86.338 L 64.819 86.995 L 64.443 86.995 L 65.027 87.985 L 64.34 87.985 L 63.558 86.995 L 62.402 87.651 L 61.297 87.651 L 60.765 87.328 L 60.838 86.338 L 61.433 86.338 L 62.87 86.338 L 62.933 86.004 L 63.985 86.338 L 64.579 85.338 L 65.121 85.672 L 65.027 86.338 Z M 57.419 82.378 L 57.066 82.712 L 56.534 82.378 L 57.066 81.722 L 57.419 82.378 Z M 83.994 11.695 L 84.442 13.016 L 85.14 13.691 L 85.963 13.858 L 86.088 15.242 L 86.995 15.571 L 87.359 16.545 L 88.61 17.139 L 89.756 17.501 L 91.038 17.437 L 91.986 17.635 L 93.101 18.091 L 95.956 18.165 L 96.915 18.331 L 97.978 18.873 L 99.698 18.519 L 100.969 18.519 L 103.408 19.165 L 103.782 19.133 L 103.647 20.062 L 103.272 20.489 L 102.584 20.551 L 101.792 21.563 L 100.553 22.426 L 99.896 23.406 L 100.489 24.875 L 100.657 24.511 L 101.761 24.678 L 102.386 25.167 L 103.334 25.167 L 103.106 26.168 L 101.792 27.303 L 101.333 28.388 L 101.99 29.044 L 103.106 28.617 L 103.334 28.981 L 102.813 30.847 L 103.106 31.774 L 104.012 32.035 L 105.564 32.816 L 106.638 34.421 L 107.137 34.651 L 106.576 35.557 L 104.845 35.494 L 105.075 35.12 L 105.732 35.12 L 105.137 34.452 L 105.273 34.057 L 103.887 32.567 L 103.043 32.139 L 102.688 32.066 L 102.386 32.681 L 102.741 33.109 L 101.261 34.161 L 100.584 34.161 L 101.261 33.692 L 101.167 33.41 L 99.073 32.942 L 98.572 32.65 L 97.791 33.045 L 97.27 32.879 L 97.364 33.337 L 96.779 33.828 L 97.082 34.223 L 97.791 33.921 L 97.145 34.88 L 96.718 35.182 L 95.289 35.348 L 93.331 36.817 L 91.309 37.944 L 88.839 39.079 L 89.235 38.006 L 90.642 37.35 L 89.913 36.62 L 89.141 37.412 L 88.016 37.944 L 87.119 38.652 L 86.807 39.6 L 86.995 39.902 L 86.38 41.466 L 85.733 41.403 L 85.66 41.768 L 85.932 42.289 L 86.244 42.059 L 86.515 41.696 L 86.609 43.091 L 86.995 43.414 L 87.527 42.893 L 87.88 43.998 L 88.047 45.113 L 87.755 45.478 L 88.61 45.707 L 90.11 47.207 L 90.714 47.27 L 90.278 48.927 L 89.756 50 L 89.434 49.407 L 89.538 48.563 L 89.204 48.76 L 89.079 50.491 L 87.755 49.666 L 87.287 52.022 L 87.651 53.512 L 87.88 53.846 L 87.953 55.825 L 88.412 58.128 L 89.37 60.442 L 89.851 61.1 L 90.413 61.432 L 90.642 62.078 L 91.892 62.745 L 92.663 63.735 L 93.726 64.725 L 94.29 64.725 L 94.915 64.725 L 96.854 66.215 L 99.896 68.518 L 100.907 69.175 L 102.877 70.499 L 103.846 70.832 L 104.178 70.499 L 105.075 71.165 L 105.668 71.488 L 106.159 73.135 L 107.669 76.105 L 108.264 77.762 L 108.941 79.075 L 109.264 80.064 L 109.525 81.054 L 110.119 83.034 L 110.713 84.681 L 111.608 86.338 L 112.682 88.318 L 113.704 89.308 L 114.704 90.288 L 115.193 90.621 L 116.965 91.944 L 117.591 92.935 L 119.362 94.425 L 121.237 95.071 L 121.551 95.405 L 121.968 96.728 L 122.176 97.051 L 123.739 97.718 L 125.406 97.718 L 126.031 98.375 L 127.49 99.041 L 129.262 99.041 L 131.554 99.364 L 133.638 98.708 L 135.828 98.708 L 139.057 98.041 L 140.621 98.375 L 141.142 99.041 L 141.559 100.677 L 141.038 101.345 L 140.517 101.668 L 139.474 102.657 L 138.224 103.324 L 137.807 104.648 L 138.224 105.971 L 139.057 106.617 L 139.787 106.951 L 143.747 108.597 L 145.935 109.598 L 147.082 109.921 L 147.707 110.255 L 151.041 111.244 L 151.875 111.578 L 154.168 111.88 L 156.148 112.921 L 157.19 113.548 L 158.232 114.59 L 158.962 114.902 L 160.212 115.84 L 161.15 116.257 L 162.4 116.569 L 163.963 116.882 L 165.319 117.82 L 166.881 118.236 L 166.881 118.549 L 167.715 118.549 L 168.236 119.175 L 168.236 119.8 L 169.07 120.529 L 171.155 121.676 L 173.134 123.655 L 174.176 124.593 L 175.531 127.303 L 175.218 128.241 L 174.593 128.97 L 174.28 130.95 L 174.384 131.472 L 174.072 133.139 L 172.821 132.513 L 171.884 132.513 L 169.903 131.472 L 168.653 129.908 L 168.965 129.595 L 168.236 128.97 L 168.549 128.657 L 168.549 127.929 L 167.403 126.991 L 167.09 125.636 L 166.152 125.01 L 165.007 125.324 L 161.567 125.324 L 157.294 123.968 L 157.711 123.343 L 157.398 122.613 L 158.336 122.613 L 158.648 121.988 L 157.606 121.988 L 156.773 122.613 L 156.565 121.988 L 155.002 121.988 L 154.064 122.613 L 153.23 123.655 L 152.71 124.593 L 151.666 126.261 L 151.354 127.929 L 150.104 129.595 L 149.687 130.22 L 149.582 130.95 L 150.208 132.097 L 149.062 133.764 L 148.541 135.118 L 148.541 135.743 L 149.27 136.786 L 149.062 137.098 L 149.479 137.725 L 150.625 138.454 L 152.396 138.037 L 153.335 138.766 L 153.856 139.391 L 155.314 140.121 L 156.148 140.433 L 156.773 141.059 L 158.232 141.371 L 157.815 142.726 L 157.919 144.394 L 158.336 145.018 L 158.128 146.686 L 158.752 148.04 L 159.483 148.04 L 159.066 148.665 L 159.066 149.291 L 158.232 150.855 L 157.815 150.021 L 157.085 150.333 L 156.565 150.021 L 155.419 150.333 L 153.126 151.48 L 151.666 152.834 L 151.145 153.459 L 150.729 154.397 L 151.666 157.732 L 151.666 158.774 L 151.563 159.712 L 150.312 161.066 L 148.645 162.004 L 148.228 162.735 L 146.457 165.027 L 146.039 167.631 L 145.622 168.675 L 144.476 169.3 L 143.538 168.987 L 141.038 169.3 L 139.683 168.675 L 139.161 168.048 L 139.474 167.319 L 138.953 166.694 L 139.161 165.652 L 138.848 164.401 L 139.057 163.985 L 140.83 163.047 L 142.288 159.399 L 142.392 159.087 L 142.08 157.732 L 141.142 156.795 L 141.246 156.482 L 143.33 155.127 L 144.997 154.814 L 145.727 154.397 L 146.143 153.147 L 146.143 151.792 L 145.831 151.167 L 145.102 150.855 L 144.164 148.978 L 143.955 148.665 L 142.914 143.663 L 142.288 142.413 L 141.35 141.059 L 140.307 140.121 L 139.787 138.766 L 139.37 137.725 L 138.953 136.056 L 138.64 135.431 L 138.745 134.806 L 138.224 134.077 L 137.911 133.139 L 136.661 131.785 L 136.14 131.472 L 135.098 131.472 L 133.534 133.139 L 132.596 133.139 L 131.659 132.097 L 130.929 131.472 L 129.471 130.22 L 128.22 130.22 L 127.698 129.595 L 126.448 129.283 L 126.552 127.616 L 127.49 127.303 L 127.49 126.573 L 125.719 123.655 L 124.573 121.988 L 123.739 121.676 L 122.801 122.301 L 121.968 122.301 L 121.029 123.03 L 119.987 123.03 L 118.216 123.655 L 118.216 123.03 L 118.841 123.03 L 119.57 121.988 L 119.987 121.676 L 119.987 120.842 L 118.529 120.217 L 117.486 119.175 L 116.486 119.175 L 116.256 119.8 L 114.767 119.488 L 114.621 120.217 L 114.026 120.217 L 114.026 118.861 L 113.505 117.507 L 112.85 116.569 L 112.214 116.257 L 112.089 115.527 L 111.181 113.86 L 109.619 112.609 L 109.16 112.296 L 107.669 112.296 L 107.242 112.609 L 107.441 113.235 L 104.012 111.88 L 102.386 112.296 L 101.261 112.921 L 100.969 113.235 L 100.292 113.235 L 99.364 111.244 L 98.177 110.255 L 97.437 109.921 L 96.613 109.921 L 94.915 109.264 L 94.685 109.598 L 93.424 107.94 L 92.059 106.284 L 90.642 105.304 L 89.235 104.648 L 88.912 103.981 L 88.777 102.991 L 87.953 101.668 L 84.774 99.364 L 83.628 99.698 L 82.576 98.041 L 82.378 97.384 L 81.232 95.405 L 79.658 94.091 L 78.492 93.591 L 77.199 92.935 L 75.334 92.935 L 74.969 94.091 L 73.791 93.268 L 74.021 92.601 L 74.677 92.601 L 74.969 91.944 L 74.896 91.278 L 74.584 90.288 L 74.146 90.621 L 73.489 89.308 L 72.509 88.651 L 72.28 87.985 L 70.998 86.995 L 68.904 86.338 L 69.29 85.672 L 69.424 84.681 L 68.539 84.025 L 67.581 83.702 L 66.309 83.702 L 66.08 84.348 L 65.549 83.034 L 66.017 82.378 L 66.309 81.388 L 66.382 80.398 L 65.944 78.095 L 64.891 76.105 L 63.85 74.781 L 63.266 74.458 L 62.964 72.802 L 62.568 68.852 L 62.506 68.518 L 61.796 66.872 L 60.932 65.716 L 60.474 65.058 L 59.451 64.391 L 58.608 64.391 L 57.128 63.402 L 56.826 64.068 L 56.149 64.068 L 54.93 62.745 L 54.272 62.745 L 53.669 61.755 L 52.835 61.432 L 52.543 61.1 L 51.948 61.1 L 51.094 60.442 L 51.053 60.109 L 49.292 59.118 L 48.99 60.109 L 48.228 59.453 L 47.999 58.785 L 46.374 58.462 L 45.362 58.128 L 44.404 58.128 L 44.154 57.795 L 42.852 57.795 L 41.642 58.785 L 40.83 59.118 L 39.558 60.109 L 38.85 61.432 L 38.85 61.755 L 37.589 62.412 L 36.567 63.402 L 36.338 64.391 L 35.567 65.716 L 35.755 66.215 L 35.275 66.549 L 34.431 67.195 L 33.055 67.852 L 30.836 68.518 L 29.647 69.175 L 27.2 68.852 L 26.898 67.852 L 27.918 66.215 L 28.877 65.392 L 29.647 63.735 L 29.054 62.745 L 29.231 62.078 L 25.699 63.079 L 24.094 62.412 L 22.781 61.432 L 21.346 60.775 L 20.867 60.775 L 19.971 59.776 L 19.314 58.462 L 19.434 57.795 L 19.971 57.462 L 19.016 56.148 L 19.136 55.492 L 19.793 54.836 L 20.389 54.169 L 20.389 53.179 L 20.928 52.845 L 21.824 52.845 L 21.644 52.522 L 21.167 51.084 L 21.287 50.553 L 20.33 49.834 L 19.494 49.969 L 18.419 49.375 L 17.82 48.563 L 17.82 47.072 L 17.045 46.781 L 16.328 45.478 L 17.164 44.821 L 18.001 44.529 L 19.375 45.04 L 19.853 44.394 L 20.27 44.394 L 20.808 43.686 L 21.703 43.383 L 22.003 43.612 L 22.719 42.82 L 22.541 41.696 L 23.437 40.195 L 22.66 39.736 L 22.421 39.215 L 21.287 38.349 L 20.928 37.047 L 21.106 36.088 L 19.614 35.317 L 19.016 34.651 L 18.896 33.275 L 19.136 32.744 L 20.451 32.431 L 21.226 32.035 L 21.943 31.076 L 22.48 31.67 L 23.135 31.972 L 23.917 31.899 L 25.168 31.378 L 26.126 31.441 L 27.918 30.649 L 28.398 30.18 L 29.596 30.482 L 30.242 31.138 L 31.919 31.441 L 32.149 31.013 L 32.764 30.252 L 33.838 29.982 L 34.129 29.439 L 34.243 28.555 L 35.453 27.73 L 35.682 26.522 L 34.973 25.47 L 35.39 24.907 L 36.453 24.511 L 37.047 23.698 L 37.704 23.302 L 38.006 22.354 L 39.027 21.988 L 39.505 22.291 L 39.558 23.24 L 39.329 24.678 L 39.329 25.564 L 40.351 26.365 L 41.465 27.866 L 42.373 28.314 L 43.039 28.148 L 43.977 28.449 L 44.342 28.846 L 43.498 30.347 L 44.769 30.941 L 45.248 32.066 L 45.248 33.045 L 46.374 33.244 L 47.093 32.139 L 46.968 31.545 L 46.509 31.306 L 46.145 30.545 L 46.572 30.18 L 46.374 29.346 L 47.093 28.908 L 47.259 27.898 L 48.364 26.991 L 49.125 25.928 L 50.376 25.866 L 49.125 25.928 L 49.657 24.573 L 49.552 22.645 L 49.251 22.291 L 49.583 21.448 L 50.376 21.145 L 50.99 21.697 L 51.689 21.312 L 51.887 23.47 L 52.283 23.698 L 52.637 24.573 L 53.158 24.875 L 54.627 24.875 L 55.033 24.511 L 55.033 23.896 L 55.753 24 L 57.357 23.374 L 58.139 23.667 L 58.305 24.678 L 59.035 25.334 L 59.15 26.064 L 60.4 25.636 L 60.61 25.271 L 59.744 24.135 L 60.244 23.177 L 60.244 22.573 L 59.118 22.291 L 58.973 20.489 L 59.651 19.238 L 60.901 18.831 L 61.433 18.999 L 61.433 19.727 L 62.141 20.124 L 63.745 20.353 L 64.048 20.196 L 64.11 18.831 L 63.329 18.561 L 63.037 17.964 L 63.402 16.842 L 63.693 16.48 L 63.558 15.705 L 63.985 14.581 L 64.891 14.945 L 66.507 14.581 L 67.581 15.274 L 67.205 15.705 L 69.206 16.248 L 70.634 16.149 L 71.291 15.176 L 71.686 13.559 L 72.478 12.718 L 74.385 12.126 L 75.49 12.422 L 76.072 11.827 L 76.834 11.992 L 77.793 11.827 L 78.866 11.96 L 79.658 12.255 L 81.982 11.004 L 82.805 10.938 L 83.994 10.194 L 85.067 10.161 L 84.837 10.938 L 83.994 11.695 Z M 79.064 60.775 L 78.929 61.1 L 79.689 60.442 L 79.064 60.775 Z M 89.6 65.716 L 90.11 66.549 L 90.58 66.549 L 90.871 65.716 L 90.809 64.725 L 90.048 65.058 L 89.6 65.716 Z" id="outline">
    <title>italy</title>
  </path>
  <rect x="392.965" y="40.893" width="118.875" height="118.875" rx="15" ry="15" style="stroke: rgb(0, 0, 0); stroke-width: 0px; stroke-linecap: round; fill: rgb(211, 79, 77); pointer-events: none;">
    <title>square</title>
  </rect>
  <path d="M 141.264 83.395 Q 141.264 91.529 136.874 98.113 Q 132.485 104.697 124.093 107.795 L 143.846 144.976 L 111.829 144.976 L 96.079 112.572 L 85.493 112.572 L 85.493 144.976 L 56.961 144.976 L 56.961 56.155 L 111.313 56.155 Q 120.866 56.155 127.644 59.835 Q 134.421 63.514 137.843 69.775 Q 141.264 76.037 141.264 83.395 Z M 112.216 84.557 Q 112.216 81.071 109.892 78.748 Q 107.569 76.424 104.212 76.424 L 85.493 76.424 L 85.493 92.82 L 104.212 92.82 Q 107.569 92.82 109.892 90.431 Q 112.216 88.043 112.216 84.557 Z M 161.287 144.976 L 161.287 56.155 L 189.818 56.155 L 189.818 144.976 Z M 250.124 54.606 Q 267.166 54.606 278.139 61.513 Q 289.113 68.42 289.371 81.975 L 289.371 83.524 L 262.647 83.524 L 262.647 83.008 Q 262.647 79.135 259.807 76.553 Q 256.967 73.971 251.157 73.971 Q 245.477 73.971 242.443 75.649 Q 239.409 77.328 239.409 79.78 Q 239.409 83.266 243.54 84.944 Q 247.672 86.623 256.838 88.43 Q 267.553 90.625 274.46 93.013 Q 281.367 95.402 286.531 100.824 Q 291.695 106.246 291.824 115.541 Q 291.824 131.291 281.173 138.908 Q 270.522 146.525 252.706 146.525 Q 231.921 146.525 220.367 139.554 Q 208.812 132.582 208.812 114.896 L 235.794 114.896 Q 235.794 121.609 239.28 123.868 Q 242.766 126.127 250.124 126.127 Q 255.547 126.127 259.097 124.965 Q 262.647 123.804 262.647 120.189 Q 262.647 116.961 258.71 115.348 Q 254.772 113.734 245.864 111.926 Q 235.02 109.603 227.919 107.085 Q 220.819 104.568 215.526 98.758 Q 210.233 92.949 210.233 83.008 Q 210.233 68.42 221.529 61.513 Q 232.825 54.606 250.124 54.606 Z M 332.763 144.976 L 301.263 56.155 L 331.73 56.155 L 349.546 115.541 L 350.062 115.541 L 368.007 56.155 L 397.184 56.155 L 365.813 144.976 Z M 451.422 54.606 Q 474.402 54.606 486.925 66.354 Q 499.447 78.102 499.447 100.566 Q 499.447 123.029 486.925 134.777 Q 474.402 146.525 451.422 146.525 Q 428.442 146.525 415.984 134.842 Q 403.526 123.158 403.526 100.566 Q 403.526 77.973 415.984 66.29 Q 428.442 54.606 451.422 54.606 Z M 451.422 75.907 Q 442.256 75.907 437.479 81.459 Q 432.703 87.01 432.703 96.434 L 432.703 104.697 Q 432.703 114.121 437.479 119.672 Q 442.256 125.224 451.422 125.224 Q 460.588 125.224 465.43 119.672 Q 470.271 114.121 470.271 104.697 L 470.271 96.434 Q 470.271 87.01 465.43 81.459 Q 460.588 75.907 451.422 75.907 Z" style="paint-order: stroke; white-space: pre; fill: rgb(45, 55, 72); pointer-events: none;">
    <title>risvo text</title>
  </path>
  <g>
    <title>letter O</title>
    <path d="M 451.422 54.606 C 466.742 54.606 478.576 58.522 486.925 66.354 C 495.273 74.186 499.447 85.59 499.447 100.566 C 499.447 115.542 495.273 126.945 486.925 134.777 C 478.576 142.609 466.742 146.525 451.422 146.525 C 436.102 146.525 424.289 142.631 415.984 134.842 C 407.678 127.053 403.526 115.628 403.526 100.566 C 403.526 85.504 407.678 74.079 415.984 66.29 C 424.289 58.501 436.102 54.606 451.422 54.606 Z" style="paint-order: stroke; white-space: pre; fill: rgb(255, 255, 255);"/>
    <path d="M 451.422 75.907 C 445.311 75.907 440.663 77.758 437.479 81.459 C 434.295 85.16 432.703 90.152 432.703 96.434 L 432.703 104.697 C 432.703 110.98 434.295 115.972 437.479 119.672 C 440.663 123.374 445.311 125.224 451.422 125.224 C 457.532 125.224 462.202 123.374 465.43 119.672 C 468.657 115.972 470.271 110.98 470.271 104.697 L 470.271 96.434 C 470.271 90.152 468.657 85.16 465.43 81.459 C 462.202 77.758 457.532 75.907 451.422 75.907 Z" style="paint-order: stroke; white-space: pre; fill: rgb(211, 79, 77);"/>
  </g>
  <path d="M 62.728 170.515 Q 66.288 170.515 68.228 172.335 Q 70.168 174.155 70.168 177.635 Q 70.168 181.115 68.228 182.935 Q 66.288 184.755 62.728 184.755 Q 59.168 184.755 57.238 182.945 Q 55.308 181.135 55.308 177.635 Q 55.308 174.135 57.238 172.325 Q 59.168 170.515 62.728 170.515 Z M 62.728 173.815 Q 61.308 173.815 60.568 174.675 Q 59.828 175.535 59.828 176.995 L 59.828 178.275 Q 59.828 179.735 60.568 180.595 Q 61.308 181.455 62.728 181.455 Q 64.148 181.455 64.898 180.595 Q 65.648 179.735 65.648 178.275 L 65.648 176.995 Q 65.648 175.535 64.898 174.675 Q 64.148 173.815 62.728 173.815 Z M 82.06 170.755 Q 83.34 170.755 84.34 171.345 Q 85.34 171.935 85.9 172.965 Q 86.46 173.995 86.46 175.275 L 86.46 175.535 Q 86.46 176.815 85.9 177.855 Q 85.34 178.895 84.34 179.485 Q 83.34 180.075 82.06 180.075 L 78.76 180.075 L 78.76 184.515 L 74.34 184.515 L 74.34 170.755 L 82.06 170.755 Z M 78.76 176.855 L 80.58 176.855 Q 81.28 176.855 81.63 176.495 Q 81.98 176.135 81.98 175.515 L 81.98 175.355 Q 81.98 174.715 81.63 174.365 Q 81.28 174.015 80.58 174.015 L 78.76 174.015 Z M 90.581 170.755 L 102.481 170.755 L 102.481 174.055 L 95.001 174.055 L 95.001 175.955 L 101.401 175.955 L 101.401 179.115 L 95.001 179.115 L 95.001 181.215 L 102.621 181.215 L 102.621 184.515 L 90.581 184.515 Z M 116.656 184.515 L 110.876 177.835 L 110.876 184.515 L 106.816 184.515 L 106.816 170.755 L 110.676 170.755 L 116.456 177.535 L 116.456 170.755 L 120.516 170.755 L 120.516 184.515 Z M 139.689 170.755 Q 146.909 170.755 146.909 177.635 Q 146.909 184.515 139.689 184.515 L 133.729 184.515 L 133.729 170.755 L 139.689 170.755 Z M 138.149 181.215 L 139.609 181.215 Q 142.389 181.215 142.389 178.235 L 142.389 177.035 Q 142.389 174.055 139.609 174.055 L 138.149 174.055 Z M 159.446 184.515 L 158.866 182.575 L 154.046 182.575 L 153.466 184.515 L 148.946 184.515 L 153.966 170.755 L 159.106 170.755 L 164.126 184.515 Z M 154.966 179.495 L 157.946 179.495 L 156.506 174.595 L 156.426 174.595 Z M 174.121 174.275 L 174.121 184.515 L 169.701 184.515 L 169.701 174.275 L 165.181 174.275 L 165.181 170.755 L 178.621 170.755 L 178.621 174.275 Z M 190.299 184.515 L 189.719 182.575 L 184.899 182.575 L 184.319 184.515 L 179.799 184.515 L 184.819 170.755 L 189.959 170.755 L 194.979 184.515 Z M 185.819 179.495 L 188.799 179.495 L 187.359 174.595 L 187.279 174.595 Z M 212.674 170.515 Q 215.314 170.515 217.014 171.585 Q 218.714 172.655 218.754 174.755 L 218.754 174.995 L 214.614 174.995 L 214.614 174.915 Q 214.614 174.315 214.174 173.915 Q 213.734 173.515 212.834 173.515 Q 211.954 173.515 211.484 173.775 Q 211.014 174.035 211.014 174.415 Q 211.014 174.955 211.654 175.215 Q 212.294 175.475 213.714 175.755 Q 215.374 176.095 216.444 176.465 Q 217.514 176.835 218.314 177.675 Q 219.114 178.515 219.134 179.955 Q 219.134 182.395 217.484 183.575 Q 215.834 184.755 213.074 184.755 Q 209.854 184.755 208.064 183.675 Q 206.274 182.595 206.274 179.855 L 210.454 179.855 Q 210.454 180.895 210.994 181.245 Q 211.534 181.595 212.674 181.595 Q 213.514 181.595 214.064 181.415 Q 214.614 181.235 214.614 180.675 Q 214.614 180.175 214.004 179.925 Q 213.394 179.675 212.014 179.395 Q 210.334 179.035 209.234 178.645 Q 208.134 178.255 207.314 177.355 Q 206.494 176.455 206.494 174.915 Q 206.494 172.655 208.244 171.585 Q 209.994 170.515 212.674 170.515 Z M 236.83 178.975 Q 236.83 181.795 235.05 183.275 Q 233.27 184.755 229.99 184.755 Q 226.71 184.755 224.92 183.275 Q 223.13 181.795 223.13 178.975 L 223.13 170.755 L 227.55 170.755 L 227.55 178.915 Q 227.55 180.075 228.17 180.765 Q 228.79 181.455 229.97 181.455 Q 231.15 181.455 231.78 180.755 Q 232.41 180.055 232.41 178.915 L 232.41 170.755 L 236.83 170.755 L 236.83 178.975 Z M 241.586 170.755 L 246.006 170.755 L 246.006 180.995 L 253.066 180.995 L 253.066 184.515 L 241.586 184.515 Z M 278.241 174.975 Q 278.241 176.235 277.561 177.255 Q 276.881 178.275 275.581 178.755 L 278.641 184.515 L 273.681 184.515 L 271.241 179.495 L 269.601 179.495 L 269.601 184.515 L 265.181 184.515 L 265.181 170.755 L 273.601 170.755 Q 275.081 170.755 276.131 171.325 Q 277.181 171.895 277.711 172.865 Q 278.241 173.835 278.241 174.975 Z M 273.741 175.155 Q 273.741 174.615 273.381 174.255 Q 273.021 173.895 272.501 173.895 L 269.601 173.895 L 269.601 176.435 L 272.501 176.435 Q 273.021 176.435 273.381 176.065 Q 273.741 175.695 273.741 175.155 Z M 282.74 184.515 L 282.74 170.755 L 287.16 170.755 L 287.16 184.515 Z M 297.899 170.515 Q 300.539 170.515 302.239 171.585 Q 303.939 172.655 303.979 174.755 L 303.979 174.995 L 299.839 174.995 L 299.839 174.915 Q 299.839 174.315 299.399 173.915 Q 298.959 173.515 298.059 173.515 Q 297.179 173.515 296.709 173.775 Q 296.239 174.035 296.239 174.415 Q 296.239 174.955 296.879 175.215 Q 297.519 175.475 298.939 175.755 Q 300.599 176.095 301.669 176.465 Q 302.739 176.835 303.539 177.675 Q 304.339 178.515 304.359 179.955 Q 304.359 182.395 302.709 183.575 Q 301.059 184.755 298.299 184.755 Q 295.079 184.755 293.289 183.675 Q 291.499 182.595 291.499 179.855 L 295.679 179.855 Q 295.679 180.895 296.219 181.245 Q 296.759 181.595 297.899 181.595 Q 298.739 181.595 299.289 181.415 Q 299.839 181.235 299.839 180.675 Q 299.839 180.175 299.229 179.925 Q 298.619 179.675 297.239 179.395 Q 295.559 179.035 294.459 178.645 Q 293.359 178.255 292.539 177.355 Q 291.719 176.455 291.719 174.915 Q 291.719 172.655 293.469 171.585 Q 295.219 170.515 297.899 170.515 Z M 314.915 170.515 Q 317.975 170.515 319.755 172.045 Q 321.535 173.575 321.535 176.415 L 317.315 176.415 Q 317.315 175.215 316.685 174.515 Q 316.055 173.815 314.895 173.815 Q 313.555 173.815 312.925 174.655 Q 312.295 175.495 312.295 176.995 L 312.295 178.275 Q 312.295 179.755 312.925 180.605 Q 313.555 181.455 314.855 181.455 Q 316.135 181.455 316.795 180.795 Q 317.455 180.135 317.455 178.935 L 321.535 178.935 Q 321.535 181.755 319.805 183.255 Q 318.075 184.755 314.915 184.755 Q 311.395 184.755 309.585 182.955 Q 307.775 181.155 307.775 177.635 Q 307.775 174.115 309.585 172.315 Q 311.395 170.515 314.915 170.515 Z M 334.989 184.515 L 334.989 179.295 L 330.129 179.295 L 330.129 184.515 L 325.709 184.515 L 325.709 170.755 L 330.129 170.755 L 330.129 175.775 L 334.989 175.775 L 334.989 170.755 L 339.409 170.755 L 339.409 184.515 Z M 344.365 184.515 L 344.365 170.755 L 348.785 170.755 L 348.785 184.515 Z M 360.584 170.515 Q 364.144 170.515 366.084 172.335 Q 368.024 174.155 368.024 177.635 Q 368.024 181.115 366.084 182.935 Q 364.144 184.755 360.584 184.755 Q 357.024 184.755 355.094 182.945 Q 353.164 181.135 353.164 177.635 Q 353.164 174.135 355.094 172.325 Q 357.024 170.515 360.584 170.515 Z M 360.584 173.815 Q 359.164 173.815 358.424 174.675 Q 357.684 175.535 357.684 176.995 L 357.684 178.275 Q 357.684 179.735 358.424 180.595 Q 359.164 181.455 360.584 181.455 Q 362.004 181.455 362.754 180.595 Q 363.504 179.735 363.504 178.275 L 363.504 176.995 Q 363.504 175.535 362.754 174.675 Q 362.004 173.815 360.584 173.815 Z M 380.857 184.515 L 380.857 170.755 L 385.277 170.755 L 385.277 184.515 Z M 400.076 184.515 L 394.296 177.835 L 394.296 184.515 L 390.236 184.515 L 390.236 170.755 L 394.096 170.755 L 399.876 177.535 L 399.876 170.755 L 403.936 170.755 L 403.936 184.515 Z M 408.693 170.755 L 419.813 170.755 L 419.813 174.055 L 413.113 174.055 L 413.113 176.415 L 418.873 176.415 L 418.873 179.575 L 413.113 179.575 L 413.113 184.515 L 408.693 184.515 Z M 423.831 170.755 L 435.731 170.755 L 435.731 174.055 L 428.251 174.055 L 428.251 175.955 L 434.651 175.955 L 434.651 179.115 L 428.251 179.115 L 428.251 181.215 L 435.871 181.215 L 435.871 184.515 L 423.831 184.515 Z M 447.987 174.275 L 447.987 184.515 L 443.567 184.515 L 443.567 174.275 L 439.047 174.275 L 439.047 170.755 L 452.487 170.755 L 452.487 174.275 Z M 464.223 174.275 L 464.223 184.515 L 459.803 184.515 L 459.803 174.275 L 455.283 174.275 L 455.283 170.755 L 468.723 170.755 L 468.723 174.275 Z M 472.739 184.515 L 472.739 170.755 L 477.159 170.755 L 477.159 184.515 Z M 485.858 184.515 L 480.978 170.755 L 485.698 170.755 L 488.458 179.955 L 488.538 179.955 L 491.318 170.755 L 495.838 170.755 L 490.978 184.515 Z M 505.635 170.515 Q 509.195 170.515 511.135 172.335 Q 513.075 174.155 513.075 177.635 Q 513.075 181.115 511.135 182.935 Q 509.195 184.755 505.635 184.755 Q 502.075 184.755 500.145 182.945 Q 498.215 181.135 498.215 177.635 Q 498.215 174.135 500.145 172.325 Q 502.075 170.515 505.635 170.515 Z M 505.635 173.815 Q 504.215 173.815 503.475 174.675 Q 502.735 175.535 502.735 176.995 L 502.735 178.275 Q 502.735 179.735 503.475 180.595 Q 504.215 181.455 505.635 181.455 Q 507.055 181.455 507.805 180.595 Q 508.555 179.735 508.555 178.275 L 508.555 176.995 Q 508.555 175.535 507.805 174.675 Q 507.055 173.815 505.635 173.815 Z" style="white-space: pre; fill: rgb(45, 55, 72); pointer-events: none;">
    <title>open data text</title>
  </path>
</svg>