<?xml version="1.0" encoding="utf-8"?>
<svg viewBox="0 0 500 500" xmlns="http://www.w3.org/2000/svg">
  <rect x="11.622" y="11.622" width="476.757" height="476.757" rx="15" ry="15" style="stroke: rgb(0, 0, 0); stroke-width: 0px; stroke-linecap: round; fill: rgb(0, 191, 165); pointer-events: none;">
    <title>bg</title>
  </rect>
  <rect x="361.937" y="187.768" width="118.875" height="118.875" rx="15" ry="15" style="stroke: rgb(0, 0, 0); stroke-width: 0px; stroke-linecap: round; fill: rgb(144, 122, 214); pointer-events: none;">
    <title>square</title>
  </rect>
  <path d="M 111.127 231.657 Q 111.127 239.791 106.737 246.375 Q 102.348 252.959 93.956 256.057 L 113.709 293.238 L 81.692 293.238 L 65.942 260.834 L 55.355 260.834 L 55.355 293.238 L 26.824 293.238 L 26.824 204.417 L 81.175 204.417 Q 90.729 204.417 97.507 208.097 Q 104.284 211.776 107.706 218.037 Q 111.127 224.299 111.127 231.657 Z M 82.079 232.819 Q 82.079 229.333 79.755 227.01 Q 77.432 224.686 74.075 224.686 L 55.355 224.686 L 55.355 241.082 L 74.075 241.082 Q 77.432 241.082 79.755 238.693 Q 82.079 236.305 82.079 232.819 Z M 131.147 293.238 L 131.147 204.417 L 159.679 204.417 L 159.679 293.238 Z M 219.987 202.868 Q 237.029 202.868 248.002 209.775 Q 258.976 216.682 259.234 230.237 L 259.234 231.786 L 232.51 231.786 L 232.51 231.27 Q 232.51 227.397 229.67 224.815 Q 226.83 222.233 221.02 222.233 Q 215.34 222.233 212.306 223.911 Q 209.272 225.59 209.272 228.042 Q 209.272 231.528 213.403 233.206 Q 217.534 234.885 226.701 236.692 Q 237.416 238.887 244.323 241.275 Q 251.23 243.664 256.394 249.086 Q 261.558 254.508 261.687 263.803 Q 261.687 279.553 251.036 287.17 Q 240.385 294.787 222.569 294.787 Q 201.784 294.787 190.23 287.816 Q 178.675 280.844 178.675 263.158 L 205.657 263.158 Q 205.657 269.871 209.143 272.13 Q 212.629 274.389 219.987 274.389 Q 225.41 274.389 228.96 273.227 Q 232.51 272.066 232.51 268.451 Q 232.51 265.223 228.572 263.61 Q 224.635 261.996 215.727 260.188 Q 204.883 257.865 197.782 255.347 Q 190.682 252.83 185.389 247.02 Q 180.095 241.211 180.095 231.27 Q 180.095 216.682 191.392 209.775 Q 202.688 202.868 219.987 202.868 Z M 302.621 293.238 L 271.121 204.417 L 301.589 204.417 L 319.404 263.803 L 319.921 263.803 L 337.866 204.417 L 367.042 204.417 L 335.671 293.238 Z M 421.281 202.868 Q 444.26 202.868 456.783 214.616 Q 469.306 226.364 469.306 248.828 Q 469.306 271.291 456.783 283.039 Q 444.26 294.787 421.281 294.787 Q 398.301 294.787 385.843 283.104 Q 373.385 271.42 373.385 248.828 Q 373.385 226.235 385.843 214.552 Q 398.301 202.868 421.281 202.868 Z M 421.281 224.169 Q 412.115 224.169 407.338 229.721 Q 402.561 235.272 402.561 244.696 L 402.561 252.959 Q 402.561 262.383 407.338 267.934 Q 412.115 273.486 421.281 273.486 Q 430.447 273.486 435.288 267.934 Q 440.129 262.383 440.129 252.959 L 440.129 244.696 Q 440.129 235.272 435.288 229.721 Q 430.447 224.169 421.281 224.169 Z" style="fill: rgb(255, 255, 255); paint-order: stroke; white-space: pre; pointer-events: none;">
    <title>risvo text</title>
  </path>
</svg>