<?xml version="1.0" encoding="utf-8"?>
<svg viewBox="0 0 497 184" xmlns="http://www.w3.org/2000/svg" xmlns:bx="https://boxy-svg.com">
  <defs>
    <bx:guide x="-73.984" y="116.596" angle="0"/>
  </defs>
  <path style="fill-rule: evenodd; stroke: none; fill-opacity: 0.4; fill: rgb(0, 191, 165); pointer-events: none;" d="M 82.307 204.678 L 82.182 204.678 L 80.942 204.365 L 82.38 204.365 L 82.307 204.678 Z M 73.355 182.064 L 73.106 182.689 L 72.615 182.689 L 71.719 182.064 L 71.49 181.334 L 72.313 181.334 L 72.615 181.022 L 73.355 182.064 Z M 77.169 161.848 L 76.805 162.16 L 75.794 161.431 L 76.502 161.431 L 77.169 161.848 Z M 121.792 154.553 L 120.854 156.533 L 119.5 158.514 L 117.832 161.848 L 117.102 162.785 L 117.31 163.411 L 116.685 166.12 L 115.852 167.371 L 115.956 169.872 L 116.268 170.601 L 117.832 171.227 L 118.353 171.539 L 117.416 172.582 L 118.457 174.249 L 119.187 174.249 L 119.291 175.186 L 119.708 175.812 L 118.874 176.228 L 118.874 176.541 L 117.624 177.063 L 116.685 179.668 L 117.31 181.647 L 117.102 182.064 L 116.477 182.376 L 115.435 181.334 L 115.226 181.647 L 113.663 181.022 L 112.309 181.647 L 110.849 181.334 L 110.537 181.022 L 108.036 180.397 L 106.577 177.688 L 105.64 176.853 L 104.805 176.228 L 102.513 175.186 L 101.263 175.186 L 99.928 175.499 L 99.272 175.499 L 98.376 174.874 L 97.251 174.561 L 96.218 174.249 L 94.551 172.582 L 92.894 172.165 L 90.31 170.913 L 89.935 170.184 L 88.747 169.246 L 87.006 168.934 L 86.715 169.246 L 85.892 167.788 L 84.776 167.788 L 83.203 167.788 L 81.463 168.1 L 80.526 166.745 L 79.493 166.433 L 79.035 166.12 L 78.055 163.827 L 78.555 163.411 L 78.721 162.473 L 78.555 161.848 L 79.035 160.181 L 79.994 159.139 L 80.39 159.139 L 81.109 158.2 L 82.014 158.2 L 81.88 157.158 L 82.473 157.158 L 83.338 158.826 L 84.537 159.868 L 85.6 159.452 L 86.84 158.514 L 86.611 157.47 L 87.225 156.845 L 88.715 156.845 L 90.216 155.804 L 91.039 156.845 L 91.341 158.2 L 93.061 157.887 L 93.53 158.826 L 95.823 159.868 L 97.011 160.181 L 98.512 159.452 L 99.032 158.826 L 100.158 158.514 L 101.471 158.826 L 102.409 158.826 L 103.763 158.826 L 105.327 158.514 L 105.848 158.2 L 106.994 158.2 L 108.765 157.47 L 110.016 156.22 L 110.953 155.804 L 112.413 155.491 L 113.247 155.804 L 114.393 155.804 L 114.914 156.22 L 116.268 155.804 L 116.998 154.24 L 117.102 154.553 L 117.728 154.553 L 119.187 154.24 L 120.749 152.886 L 121.375 152.886 L 122.729 153.199 L 121.792 153.824 L 121.792 154.553 Z M 113.351 151.53 L 113.455 152.261 L 112.83 151.53 L 112.83 150.905 L 113.351 151.53 Z M 113.038 150.281 L 112.934 150.593 L 111.997 150.281 L 111.997 149.551 L 112.726 149.551 L 113.038 150.281 Z M 111.578 148.613 L 111.37 148.926 L 110.432 148.613 L 111.162 148.613 L 111.578 148.613 Z M 22.293 144.236 L 21.855 144.236 L 21.021 142.673 L 21.198 141.631 L 22.407 141.943 L 22.637 142.673 L 22.293 144.236 Z M 20.49 140.172 L 20.49 141.943 L 19.76 141.631 L 19.354 141.006 L 19.646 140.172 L 20.49 140.172 Z M 96.719 111.515 L 95.823 111.827 L 95.28 111.827 L 95.374 110.681 L 96.812 110.994 L 96.719 111.515 Z M 20.01 107.346 L 19.937 108.388 L 19.469 108.388 L 19.708 107.346 L 20.303 107.034 L 20.375 106.408 L 21.021 106.096 L 21.083 106.408 L 21.083 107.034 L 20.01 107.346 Z M 36.309 105.053 L 35.85 105.053 L 36.152 104.116 L 36.433 104.429 L 36.309 105.053 Z M 35.85 104.429 L 35.058 104.429 L 35.027 104.429 L 35.652 103.699 L 35.85 104.429 Z M 33.818 104.741 L 34.464 105.053 L 34.526 104.429 L 35.955 106.096 L 35.955 106.721 L 36.309 105.679 L 37.58 106.096 L 37.215 106.721 L 36.83 108.075 L 37.444 107.659 L 37.706 108.075 L 38.299 108.075 L 38.767 108.388 L 37.944 108.388 L 37.507 109.327 L 36.83 109.327 L 37.706 110.056 L 38.633 109.639 L 38.299 110.056 L 39.727 110.994 L 38.903 111.827 L 39.498 112.452 L 40.102 114.432 L 40.134 115.475 L 41.165 116.83 L 40.936 117.768 L 40.134 119.434 L 39.654 119.434 L 38.539 121.311 L 38.539 121.936 L 38.903 123.29 L 39.956 124.333 L 39.425 125.895 L 39.498 128.293 L 39.227 128.918 L 39.227 130.898 L 38.903 132.252 L 38.903 133.92 L 38.633 134.545 L 38.903 134.857 L 38.466 136.525 L 38.299 137.879 L 38.705 138.192 L 38.008 138.817 L 37.81 139.86 L 38.008 140.172 L 37.706 141.319 L 37.215 141.631 L 36.152 141.631 L 34.766 140.172 L 34.048 139.548 L 32.723 139.548 L 32.328 140.172 L 31.9 140.172 L 30.577 138.817 L 30.348 139.13 L 31.13 139.86 L 30.276 141.006 L 30.276 141.943 L 30.64 142.673 L 30.244 143.924 L 28.014 145.903 L 27.346 145.278 L 26.096 144.966 L 25.086 145.591 L 24.502 145.591 L 24.668 144.653 L 24.251 144.236 L 23.96 142.673 L 23.177 142.673 L 22.772 141.631 L 22.335 141.631 L 22.293 140.694 L 21.855 140.694 L 21.376 139.548 L 22.157 138.504 L 22.042 137.463 L 21.449 136.838 L 21.813 136.213 L 21.74 135.483 L 21.626 135.17 L 22.699 133.19 L 22.522 131.939 L 22.459 129.96 L 23.407 131.21 L 23.887 131.21 L 23.293 130.585 L 23.845 129.96 L 23.845 127.876 L 22.699 127.564 L 22.407 127.876 L 21.855 127.564 L 21.813 126.312 L 21.98 125.582 L 21.678 125.27 L 22.699 124.957 L 23.116 123.916 L 22.814 123.29 L 22.699 121.936 L 22.929 121.311 L 22.772 120.477 L 21.74 119.747 L 21.813 118.809 L 21.449 117.455 L 21.021 117.142 L 20.719 115.787 L 20.125 115.475 L 19.469 115.787 L 19.469 115.163 L 18.947 115.163 L 18.76 116.1 L 18.468 115.163 L 18.874 114.849 L 19.239 113.807 L 18.396 113.182 L 19.427 110.681 L 19.427 109.639 L 18.989 109.327 L 19.354 108.7 L 19.76 109.014 L 19.76 109.639 L 20.782 110.994 L 23.595 111.515 L 24.616 110.994 L 25.201 110.056 L 26.096 109.639 L 26.868 109.639 L 27.482 109.327 L 28.441 108.075 L 28.857 107.659 L 30.108 106.096 L 31.224 106.096 L 32.202 105.053 L 32.328 104.116 L 33.089 103.699 L 33.62 104.116 L 33.818 104.741 Z M 55.494 84.587 L 55.265 84.91 L 54.4 83.93 L 54.701 83.43 L 55.494 84.587 Z M 48.699 76.177 L 48.491 76.834 L 48.115 76.834 L 48.699 77.824 L 48.012 77.824 L 47.23 76.834 L 46.074 77.49 L 44.969 77.49 L 44.437 77.167 L 44.51 76.177 L 45.105 76.177 L 46.542 76.177 L 46.605 75.843 L 47.657 76.177 L 48.251 75.177 L 48.793 75.511 L 48.699 76.177 Z M 41.091 72.217 L 40.738 72.551 L 40.206 72.217 L 40.738 71.561 L 41.091 72.217 Z M 67.666 1.534 L 68.114 2.855 L 68.812 3.53 L 69.635 3.697 L 69.76 5.081 L 70.667 5.41 L 71.031 6.384 L 72.282 6.978 L 73.428 7.34 L 74.71 7.276 L 75.658 7.474 L 76.773 7.93 L 79.628 8.004 L 80.587 8.17 L 81.65 8.712 L 83.37 8.358 L 84.641 8.358 L 87.08 9.004 L 87.454 8.972 L 87.319 9.901 L 86.944 10.328 L 86.256 10.39 L 85.464 11.402 L 84.225 12.265 L 83.568 13.245 L 84.161 14.714 L 84.329 14.35 L 85.433 14.517 L 86.058 15.006 L 87.006 15.006 L 86.778 16.007 L 85.464 17.142 L 85.005 18.227 L 85.662 18.883 L 86.778 18.456 L 87.006 18.82 L 86.485 20.686 L 86.778 21.613 L 87.684 21.874 L 89.236 22.655 L 90.31 24.26 L 90.809 24.49 L 90.248 25.396 L 88.517 25.333 L 88.747 24.959 L 89.404 24.959 L 88.809 24.291 L 88.945 23.896 L 87.559 22.406 L 86.715 21.978 L 86.36 21.905 L 86.058 22.52 L 86.413 22.948 L 84.933 24 L 84.256 24 L 84.933 23.531 L 84.839 23.249 L 82.745 22.781 L 82.244 22.489 L 81.463 22.884 L 80.942 22.718 L 81.036 23.176 L 80.451 23.667 L 80.754 24.062 L 81.463 23.76 L 80.817 24.719 L 80.39 25.021 L 78.961 25.187 L 77.003 26.656 L 74.981 27.783 L 72.511 28.918 L 72.907 27.845 L 74.314 27.189 L 73.585 26.459 L 72.813 27.251 L 71.688 27.783 L 70.791 28.491 L 70.479 29.439 L 70.667 29.741 L 70.052 31.305 L 69.405 31.242 L 69.332 31.607 L 69.604 32.128 L 69.916 31.898 L 70.187 31.535 L 70.281 32.93 L 70.667 33.253 L 71.199 32.732 L 71.552 33.837 L 71.719 34.952 L 71.427 35.317 L 72.282 35.546 L 73.782 37.046 L 74.386 37.109 L 73.95 38.766 L 73.428 39.839 L 73.106 39.246 L 73.21 38.402 L 72.876 38.599 L 72.751 40.33 L 71.427 39.505 L 70.959 41.861 L 71.323 43.351 L 71.552 43.685 L 71.625 45.664 L 72.084 47.967 L 73.042 50.281 L 73.523 50.939 L 74.085 51.271 L 74.314 51.917 L 75.564 52.584 L 76.335 53.574 L 77.398 54.564 L 77.962 54.564 L 78.587 54.564 L 80.526 56.054 L 83.568 58.357 L 84.579 59.014 L 86.549 60.338 L 87.518 60.671 L 87.85 60.338 L 88.747 61.004 L 89.34 61.327 L 89.831 62.974 L 91.341 65.944 L 91.936 67.601 L 92.613 68.914 L 92.936 69.903 L 93.197 70.893 L 93.791 72.873 L 94.385 74.52 L 95.28 76.177 L 96.354 78.157 L 97.376 79.147 L 98.376 80.127 L 98.865 80.46 L 100.637 81.783 L 101.263 82.774 L 103.034 84.264 L 104.909 84.91 L 105.223 85.244 L 105.64 86.567 L 105.848 86.89 L 107.411 87.557 L 109.078 87.557 L 109.703 88.214 L 111.162 88.88 L 112.934 88.88 L 115.226 89.203 L 117.31 88.547 L 119.5 88.547 L 122.729 87.88 L 124.293 88.214 L 124.814 88.88 L 125.231 90.516 L 124.71 91.184 L 124.189 91.507 L 123.146 92.496 L 121.896 93.163 L 121.479 94.487 L 121.896 95.81 L 122.729 96.456 L 123.459 96.79 L 127.419 98.436 L 129.607 99.437 L 130.754 99.76 L 131.379 100.094 L 134.713 101.083 L 135.547 101.417 L 137.84 101.719 L 139.82 102.76 L 140.862 103.387 L 141.904 104.429 L 142.634 104.741 L 143.884 105.679 L 144.822 106.096 L 146.072 106.408 L 147.635 106.721 L 148.991 107.659 L 150.553 108.075 L 150.553 108.388 L 151.387 108.388 L 151.908 109.014 L 151.908 109.639 L 152.742 110.368 L 154.827 111.515 L 156.806 113.494 L 157.848 114.432 L 159.203 117.142 L 158.89 118.08 L 158.265 118.809 L 157.952 120.789 L 158.056 121.311 L 157.744 122.978 L 156.493 122.352 L 155.556 122.352 L 153.575 121.311 L 152.325 119.747 L 152.637 119.434 L 151.908 118.809 L 152.221 118.496 L 152.221 117.768 L 151.075 116.83 L 150.762 115.475 L 149.824 114.849 L 148.679 115.163 L 145.239 115.163 L 140.966 113.807 L 141.383 113.182 L 141.07 112.452 L 142.008 112.452 L 142.32 111.827 L 141.278 111.827 L 140.445 112.452 L 140.237 111.827 L 138.674 111.827 L 137.736 112.452 L 136.902 113.494 L 136.382 114.432 L 135.338 116.1 L 135.026 117.768 L 133.776 119.434 L 133.359 120.059 L 133.254 120.789 L 133.88 121.936 L 132.734 123.603 L 132.213 124.957 L 132.213 125.582 L 132.942 126.625 L 132.734 126.937 L 133.151 127.564 L 134.297 128.293 L 136.068 127.876 L 137.007 128.605 L 137.528 129.23 L 138.986 129.96 L 139.82 130.272 L 140.445 130.898 L 141.904 131.21 L 141.487 132.565 L 141.591 134.233 L 142.008 134.857 L 141.8 136.525 L 142.424 137.879 L 143.155 137.879 L 142.738 138.504 L 142.738 139.13 L 141.904 140.694 L 141.487 139.86 L 140.757 140.172 L 140.237 139.86 L 139.091 140.172 L 136.798 141.319 L 135.338 142.673 L 134.817 143.298 L 134.401 144.236 L 135.338 147.571 L 135.338 148.613 L 135.235 149.551 L 133.984 150.905 L 132.317 151.843 L 131.9 152.574 L 130.129 154.866 L 129.711 157.47 L 129.294 158.514 L 128.148 159.139 L 127.21 158.826 L 124.71 159.139 L 123.355 158.514 L 122.833 157.887 L 123.146 157.158 L 122.625 156.533 L 122.833 155.491 L 122.52 154.24 L 122.729 153.824 L 124.502 152.886 L 125.96 149.238 L 126.064 148.926 L 125.752 147.571 L 124.814 146.634 L 124.918 146.321 L 127.002 144.966 L 128.669 144.653 L 129.399 144.236 L 129.815 142.986 L 129.815 141.631 L 129.503 141.006 L 128.774 140.694 L 127.836 138.817 L 127.627 138.504 L 126.586 133.502 L 125.96 132.252 L 125.022 130.898 L 123.979 129.96 L 123.459 128.605 L 123.042 127.564 L 122.625 125.895 L 122.312 125.27 L 122.417 124.645 L 121.896 123.916 L 121.583 122.978 L 120.333 121.624 L 119.812 121.311 L 118.77 121.311 L 117.206 122.978 L 116.268 122.978 L 115.331 121.936 L 114.601 121.311 L 113.143 120.059 L 111.892 120.059 L 111.37 119.434 L 110.12 119.122 L 110.224 117.455 L 111.162 117.142 L 111.162 116.412 L 109.391 113.494 L 108.245 111.827 L 107.411 111.515 L 106.473 112.14 L 105.64 112.14 L 104.701 112.869 L 103.659 112.869 L 101.888 113.494 L 101.888 112.869 L 102.513 112.869 L 103.242 111.827 L 103.659 111.515 L 103.659 110.681 L 102.201 110.056 L 101.158 109.014 L 100.158 109.014 L 99.928 109.639 L 98.439 109.327 L 98.293 110.056 L 97.698 110.056 L 97.698 108.7 L 97.177 107.346 L 96.522 106.408 L 95.886 106.096 L 95.761 105.366 L 94.853 103.699 L 93.291 102.448 L 92.832 102.135 L 91.341 102.135 L 90.914 102.448 L 91.113 103.074 L 87.684 101.719 L 86.058 102.135 L 84.933 102.76 L 84.641 103.074 L 83.964 103.074 L 83.036 101.083 L 81.849 100.094 L 81.109 99.76 L 80.285 99.76 L 78.587 99.103 L 78.357 99.437 L 77.096 97.779 L 75.731 96.123 L 74.314 95.143 L 72.907 94.487 L 72.584 93.82 L 72.449 92.83 L 71.625 91.507 L 68.446 89.203 L 67.3 89.537 L 66.248 87.88 L 66.05 87.223 L 64.904 85.244 L 63.33 83.93 L 62.164 83.43 L 60.871 82.774 L 59.006 82.774 L 58.641 83.93 L 57.463 83.107 L 57.693 82.44 L 58.349 82.44 L 58.641 81.783 L 58.568 81.117 L 58.256 80.127 L 57.818 80.46 L 57.161 79.147 L 56.181 78.49 L 55.952 77.824 L 54.67 76.834 L 52.576 76.177 L 52.962 75.511 L 53.096 74.52 L 52.211 73.864 L 51.253 73.541 L 49.981 73.541 L 49.752 74.187 L 49.221 72.873 L 49.689 72.217 L 49.981 71.227 L 50.054 70.237 L 49.616 67.934 L 48.563 65.944 L 47.522 64.62 L 46.938 64.297 L 46.636 62.641 L 46.24 58.691 L 46.178 58.357 L 45.468 56.711 L 44.604 55.555 L 44.146 54.897 L 43.123 54.23 L 42.28 54.23 L 40.8 53.241 L 40.498 53.907 L 39.821 53.907 L 38.602 52.584 L 37.944 52.584 L 37.341 51.594 L 36.507 51.271 L 36.215 50.939 L 35.62 50.939 L 34.766 50.281 L 34.725 49.948 L 32.964 48.957 L 32.662 49.948 L 31.9 49.292 L 31.671 48.624 L 30.046 48.301 L 29.034 47.967 L 28.076 47.967 L 27.826 47.634 L 26.524 47.634 L 25.314 48.624 L 24.502 48.957 L 23.23 49.948 L 22.522 51.271 L 22.522 51.594 L 21.261 52.251 L 20.239 53.241 L 20.01 54.23 L 19.239 55.555 L 19.427 56.054 L 18.947 56.388 L 18.103 57.034 L 16.727 57.691 L 14.508 58.357 L 13.319 59.014 L 10.872 58.691 L 10.57 57.691 L 11.59 56.054 L 12.549 55.231 L 13.319 53.574 L 12.726 52.584 L 12.903 51.917 L 9.371 52.918 L 7.766 52.251 L 6.453 51.271 L 5.018 50.614 L 4.539 50.614 L 3.643 49.615 L 2.986 48.301 L 3.106 47.634 L 3.643 47.301 L 2.688 45.987 L 2.808 45.331 L 3.465 44.675 L 4.061 44.008 L 4.061 43.018 L 4.6 42.684 L 5.496 42.684 L 5.316 42.361 L 4.839 40.923 L 4.959 40.392 L 4.002 39.673 L 3.166 39.808 L 2.091 39.214 L 1.492 38.402 L 1.492 36.911 L 0.717 36.62 L 0 35.317 L 0.836 34.66 L 1.673 34.368 L 3.047 34.879 L 3.525 34.233 L 3.942 34.233 L 4.48 33.525 L 5.375 33.222 L 5.675 33.451 L 6.391 32.659 L 6.213 31.535 L 7.109 30.034 L 6.332 29.575 L 6.093 29.054 L 4.959 28.188 L 4.6 26.886 L 4.778 25.927 L 3.286 25.156 L 2.688 24.49 L 2.568 23.114 L 2.808 22.583 L 4.123 22.27 L 4.898 21.874 L 5.615 20.915 L 6.152 21.509 L 6.807 21.811 L 7.589 21.738 L 8.84 21.217 L 9.798 21.28 L 11.59 20.488 L 12.07 20.019 L 13.268 20.321 L 13.914 20.977 L 15.591 21.28 L 15.821 20.852 L 16.436 20.091 L 17.51 19.821 L 17.801 19.278 L 17.915 18.394 L 19.125 17.569 L 19.354 16.361 L 18.645 15.309 L 19.062 14.746 L 20.125 14.35 L 20.719 13.537 L 21.376 13.141 L 21.678 12.193 L 22.699 11.827 L 23.177 12.13 L 23.23 13.079 L 23.001 14.517 L 23.001 15.403 L 24.023 16.204 L 25.137 17.705 L 26.045 18.153 L 26.711 17.987 L 27.649 18.288 L 28.014 18.685 L 27.17 20.186 L 28.441 20.78 L 28.92 21.905 L 28.92 22.884 L 30.046 23.083 L 30.765 21.978 L 30.64 21.384 L 30.181 21.145 L 29.817 20.384 L 30.244 20.019 L 30.046 19.185 L 30.765 18.747 L 30.931 17.737 L 32.036 16.83 L 32.797 15.767 L 34.048 15.705 L 32.797 15.767 L 33.329 14.412 L 33.224 12.484 L 32.923 12.13 L 33.255 11.287 L 34.048 10.984 L 34.662 11.536 L 35.361 11.151 L 35.559 13.309 L 35.955 13.537 L 36.309 14.412 L 36.83 14.714 L 38.299 14.714 L 38.705 14.35 L 38.705 13.735 L 39.425 13.839 L 41.029 13.213 L 41.811 13.506 L 41.977 14.517 L 42.707 15.173 L 42.822 15.903 L 44.072 15.475 L 44.282 15.11 L 43.416 13.974 L 43.916 13.016 L 43.916 12.412 L 42.79 12.13 L 42.645 10.328 L 43.323 9.077 L 44.573 8.67 L 45.105 8.838 L 45.105 9.566 L 45.813 9.963 L 47.417 10.192 L 47.72 10.035 L 47.782 8.67 L 47.001 8.4 L 46.709 7.803 L 47.074 6.681 L 47.365 6.319 L 47.23 5.544 L 47.657 4.42 L 48.563 4.784 L 50.179 4.42 L 51.253 5.113 L 50.877 5.544 L 52.878 6.087 L 54.306 5.988 L 54.963 5.015 L 55.358 3.398 L 56.15 2.557 L 58.057 1.965 L 59.162 2.261 L 59.744 1.666 L 60.506 1.831 L 61.465 1.666 L 62.538 1.799 L 63.33 2.094 L 65.654 0.843 L 66.477 0.777 L 67.666 0.033 L 68.739 0 L 68.509 0.777 L 67.666 1.534 Z M 62.736 50.614 L 62.601 50.939 L 63.361 50.281 L 62.736 50.614 Z M 73.272 55.555 L 73.782 56.388 L 74.252 56.388 L 74.543 55.555 L 74.481 54.564 L 73.72 54.897 L 73.272 55.555 Z" id="outline">
    <title>italy</title>
  </path>
  <rect x="376.637" y="30.732" width="118.875" height="118.875" rx="15" ry="15" style="stroke: rgb(0, 0, 0); stroke-width: 0px; stroke-linecap: round; fill: rgb(211, 79, 77); pointer-events: none;">
    <title>square</title>
  </rect>
  <path d="M 124.936 73.234 C 124.936 78.657 123.473 83.563 120.546 87.952 C 117.62 92.341 113.36 95.569 107.765 97.634 L 127.518 134.815 L 95.501 134.815 L 79.751 102.411 L 69.165 102.411 L 69.165 134.815 L 40.633 134.815 L 40.633 45.994 L 94.985 45.994 C 101.354 45.994 106.797 47.221 111.316 49.674 C 115.834 52.127 119.234 55.44 121.515 59.614 C 123.796 63.789 124.936 68.329 124.936 73.234 Z M 95.888 74.396 C 95.888 72.072 95.113 70.136 93.564 68.587 C 92.015 67.038 90.122 66.263 87.884 66.263 L 69.165 66.263 L 69.165 82.659 L 87.884 82.659 C 90.122 82.659 92.015 81.863 93.564 80.27 C 95.113 78.678 95.888 76.72 95.888 74.396 Z M 144.959 134.815 L 144.959 45.994 L 173.49 45.994 L 173.49 134.815 L 144.959 134.815 Z M 233.796 44.445 C 245.157 44.445 254.496 46.747 261.811 51.352 C 269.127 55.957 272.871 62.777 273.043 71.814 L 273.043 73.363 L 246.319 73.363 L 246.319 72.847 C 246.319 70.265 245.372 68.113 243.479 66.392 C 241.586 64.671 238.702 63.81 234.829 63.81 C 231.042 63.81 228.138 64.369 226.115 65.488 C 224.092 66.607 223.081 67.984 223.081 69.619 C 223.081 71.943 224.458 73.664 227.212 74.783 C 229.967 75.902 234.399 77.064 240.51 78.269 C 247.653 79.732 253.527 81.26 258.132 82.852 C 262.737 84.445 266.76 87.048 270.203 90.663 C 273.646 94.278 275.41 99.183 275.496 105.38 C 275.496 115.88 271.946 123.669 264.845 128.747 C 257.744 133.825 248.255 136.364 236.378 136.364 C 222.521 136.364 211.742 134.04 204.039 129.393 C 196.336 124.745 192.484 116.526 192.484 104.735 L 219.466 104.735 C 219.466 109.21 220.628 112.201 222.952 113.707 C 225.276 115.213 228.891 115.966 233.796 115.966 C 237.411 115.966 240.402 115.579 242.769 114.804 C 245.136 114.03 246.319 112.438 246.319 110.028 C 246.319 107.876 245.007 106.262 242.382 105.187 C 239.757 104.111 235.475 102.97 229.536 101.765 C 222.307 100.216 216.325 98.603 211.591 96.924 C 206.858 95.246 202.727 92.47 199.198 88.597 C 195.669 84.724 193.905 79.474 193.905 72.847 C 193.905 63.122 197.67 55.957 205.201 51.352 C 212.732 46.747 222.263 44.445 233.796 44.445 Z M 316.435 134.815 L 284.935 45.994 L 315.402 45.994 L 333.218 105.38 L 333.734 105.38 L 351.679 45.994 L 380.856 45.994 L 349.485 134.815 L 316.435 134.815 Z M 435.094 44.445 C 450.414 44.445 462.248 48.361 470.597 56.193 C 478.945 64.025 483.119 75.429 483.119 90.405 C 483.119 105.38 478.945 116.784 470.597 124.616 C 462.248 132.448 450.414 136.364 435.094 136.364 C 419.774 136.364 407.961 132.47 399.656 124.681 C 391.351 116.892 387.198 105.466 387.198 90.405 C 387.198 75.343 391.351 63.918 399.656 56.129 C 407.961 48.34 419.774 44.445 435.094 44.445 Z M 435.094 65.746 C 428.983 65.746 424.336 67.597 421.151 71.298 C 417.967 74.999 416.375 79.99 416.375 86.273 L 416.375 94.536 C 416.375 100.819 417.967 105.81 421.151 109.511 C 424.336 113.212 428.983 115.063 435.094 115.063 C 441.205 115.063 445.874 113.212 449.102 109.511 C 452.329 105.81 453.943 100.819 453.943 94.536 L 453.943 86.273 C 453.943 79.99 452.329 74.999 449.102 71.298 C 445.874 67.597 441.205 65.746 435.094 65.746 Z" style="paint-order: stroke; white-space: pre; fill: rgb(45, 55, 72); pointer-events: none;">
    <title>risvo text</title>
  </path>
  <g transform="matrix(1, 0, 0, 1, -16.327999, -10.161)" style="pointer-events: none;">
    <title>letter O</title>
    <path d="M 451.422 54.606 C 466.742 54.606 478.576 58.522 486.925 66.354 C 495.273 74.186 499.447 85.59 499.447 100.566 C 499.447 115.542 495.273 126.945 486.925 134.777 C 478.576 142.609 466.742 146.525 451.422 146.525 C 436.102 146.525 424.289 142.631 415.984 134.842 C 407.678 127.053 403.526 115.628 403.526 100.566 C 403.526 85.504 407.678 74.079 415.984 66.29 C 424.289 58.501 436.102 54.606 451.422 54.606 Z" style="paint-order: stroke; white-space: pre; fill: rgb(255, 255, 255);"/>
    <path d="M 451.422 75.907 C 445.311 75.907 440.663 77.758 437.479 81.459 C 434.295 85.16 432.703 90.152 432.703 96.434 L 432.703 104.697 C 432.703 110.98 434.295 115.972 437.479 119.672 C 440.663 123.374 445.311 125.224 451.422 125.224 C 457.532 125.224 462.202 123.374 465.43 119.672 C 468.657 115.972 470.271 110.98 470.271 104.697 L 470.271 96.434 C 470.271 90.152 468.657 85.16 465.43 81.459 C 462.202 77.758 457.532 75.907 451.422 75.907 Z" style="paint-order: stroke; white-space: pre; fill: rgb(211, 79, 77);"/>
  </g>
  <path d="M 46.4 160.354 C 48.773 160.354 50.607 160.961 51.9 162.174 C 53.193 163.387 53.84 165.154 53.84 167.474 C 53.84 169.794 53.193 171.561 51.9 172.774 C 50.607 173.987 48.773 174.594 46.4 174.594 C 44.027 174.594 42.197 173.991 40.91 172.784 C 39.623 171.577 38.98 169.807 38.98 167.474 C 38.98 165.141 39.623 163.371 40.91 162.164 C 42.197 160.957 44.027 160.354 46.4 160.354 Z M 46.4 163.654 C 45.453 163.654 44.733 163.941 44.24 164.514 C 43.747 165.087 43.5 165.861 43.5 166.834 L 43.5 168.114 C 43.5 169.087 43.747 169.861 44.24 170.434 C 44.733 171.007 45.453 171.294 46.4 171.294 C 47.347 171.294 48.07 171.007 48.57 170.434 C 49.07 169.861 49.32 169.087 49.32 168.114 L 49.32 166.834 C 49.32 165.861 49.07 165.087 48.57 164.514 C 48.07 163.941 47.347 163.654 46.4 163.654 Z M 65.732 160.594 C 66.585 160.594 67.345 160.791 68.012 161.184 C 68.679 161.577 69.199 162.117 69.572 162.804 C 69.945 163.491 70.132 164.261 70.132 165.114 L 70.132 165.374 C 70.132 166.227 69.945 167.001 69.572 167.694 C 69.199 168.387 68.679 168.931 68.012 169.324 C 67.345 169.717 66.585 169.914 65.732 169.914 L 62.432 169.914 L 62.432 174.354 L 58.012 174.354 L 58.012 160.594 L 65.732 160.594 Z M 62.432 166.694 L 64.252 166.694 C 64.719 166.694 65.069 166.574 65.302 166.334 C 65.535 166.094 65.652 165.767 65.652 165.354 L 65.652 165.194 C 65.652 164.767 65.535 164.437 65.302 164.204 C 65.069 163.971 64.719 163.854 64.252 163.854 L 62.432 163.854 L 62.432 166.694 Z M 74.253 160.594 L 86.153 160.594 L 86.153 163.894 L 78.673 163.894 L 78.673 165.794 L 85.073 165.794 L 85.073 168.954 L 78.673 168.954 L 78.673 171.054 L 86.293 171.054 L 86.293 174.354 L 74.253 174.354 L 74.253 160.594 Z M 100.328 174.354 L 94.548 167.674 L 94.548 174.354 L 90.488 174.354 L 90.488 160.594 L 94.348 160.594 L 100.128 167.374 L 100.128 160.594 L 104.188 160.594 L 104.188 174.354 L 100.328 174.354 Z M 123.361 160.594 C 128.174 160.594 130.581 162.887 130.581 167.474 C 130.581 172.061 128.174 174.354 123.361 174.354 L 117.401 174.354 L 117.401 160.594 L 123.361 160.594 Z M 121.821 171.054 L 123.281 171.054 C 125.134 171.054 126.061 170.061 126.061 168.074 L 126.061 166.874 C 126.061 164.887 125.134 163.894 123.281 163.894 L 121.821 163.894 L 121.821 171.054 Z M 143.118 174.354 L 142.538 172.414 L 137.718 172.414 L 137.138 174.354 L 132.618 174.354 L 137.638 160.594 L 142.778 160.594 L 147.798 174.354 L 143.118 174.354 Z M 138.638 169.334 L 141.618 169.334 L 140.178 164.434 L 140.098 164.434 L 138.638 169.334 Z M 157.793 164.114 L 157.793 174.354 L 153.373 174.354 L 153.373 164.114 L 148.853 164.114 L 148.853 160.594 L 162.293 160.594 L 162.293 164.114 L 157.793 164.114 Z M 173.971 174.354 L 173.391 172.414 L 168.571 172.414 L 167.991 174.354 L 163.471 174.354 L 168.491 160.594 L 173.631 160.594 L 178.651 174.354 L 173.971 174.354 Z M 169.491 169.334 L 172.471 169.334 L 171.031 164.434 L 170.951 164.434 L 169.491 169.334 Z M 196.346 160.354 C 198.106 160.354 199.553 160.711 200.686 161.424 C 201.819 162.137 202.399 163.194 202.426 164.594 L 202.426 164.834 L 198.286 164.834 L 198.286 164.754 C 198.286 164.354 198.139 164.021 197.846 163.754 C 197.553 163.487 197.106 163.354 196.506 163.354 C 195.919 163.354 195.469 163.441 195.156 163.614 C 194.843 163.787 194.686 164.001 194.686 164.254 C 194.686 164.614 194.899 164.881 195.326 165.054 C 195.753 165.227 196.439 165.407 197.386 165.594 C 198.493 165.821 199.403 166.057 200.116 166.304 C 200.829 166.551 201.453 166.954 201.986 167.514 C 202.519 168.074 202.793 168.834 202.806 169.794 C 202.806 171.421 202.256 172.627 201.156 173.414 C 200.056 174.201 198.586 174.594 196.746 174.594 C 194.599 174.594 192.929 174.234 191.736 173.514 C 190.543 172.794 189.946 171.521 189.946 169.694 L 194.126 169.694 C 194.126 170.387 194.306 170.851 194.666 171.084 C 195.026 171.317 195.586 171.434 196.346 171.434 C 196.906 171.434 197.369 171.374 197.736 171.254 C 198.103 171.134 198.286 170.887 198.286 170.514 C 198.286 170.181 198.083 169.931 197.676 169.764 C 197.269 169.597 196.606 169.421 195.686 169.234 C 194.566 168.994 193.639 168.744 192.906 168.484 C 192.173 168.224 191.533 167.794 190.986 167.194 C 190.439 166.594 190.166 165.781 190.166 164.754 C 190.166 163.247 190.749 162.137 191.916 161.424 C 193.083 160.711 194.559 160.354 196.346 160.354 Z M 220.502 168.814 C 220.502 170.694 219.909 172.127 218.722 173.114 C 217.535 174.101 215.849 174.594 213.662 174.594 C 211.475 174.594 209.785 174.101 208.592 173.114 C 207.399 172.127 206.802 170.694 206.802 168.814 L 206.802 160.594 L 211.222 160.594 L 211.222 168.754 C 211.222 169.527 211.429 170.144 211.842 170.604 C 212.255 171.064 212.855 171.294 213.642 171.294 C 214.429 171.294 215.032 171.061 215.452 170.594 C 215.872 170.127 216.082 169.514 216.082 168.754 L 216.082 160.594 L 220.502 160.594 L 220.502 168.814 Z M 225.258 160.594 L 229.678 160.594 L 229.678 170.834 L 236.738 170.834 L 236.738 174.354 L 225.258 174.354 L 225.258 160.594 Z M 261.913 164.814 C 261.913 165.654 261.686 166.414 261.233 167.094 C 260.78 167.774 260.12 168.274 259.253 168.594 L 262.313 174.354 L 257.353 174.354 L 254.913 169.334 L 253.273 169.334 L 253.273 174.354 L 248.853 174.354 L 248.853 160.594 L 257.273 160.594 C 258.26 160.594 259.103 160.784 259.803 161.164 C 260.503 161.544 261.03 162.057 261.383 162.704 C 261.736 163.351 261.913 164.054 261.913 164.814 Z M 257.413 164.994 C 257.413 164.634 257.293 164.334 257.053 164.094 C 256.813 163.854 256.52 163.734 256.173 163.734 L 253.273 163.734 L 253.273 166.274 L 256.173 166.274 C 256.52 166.274 256.813 166.151 257.053 165.904 C 257.293 165.657 257.413 165.354 257.413 164.994 Z M 266.412 174.354 L 266.412 160.594 L 270.832 160.594 L 270.832 174.354 L 266.412 174.354 Z M 281.571 160.354 C 283.331 160.354 284.778 160.711 285.911 161.424 C 287.044 162.137 287.624 163.194 287.651 164.594 L 287.651 164.834 L 283.511 164.834 L 283.511 164.754 C 283.511 164.354 283.364 164.021 283.071 163.754 C 282.778 163.487 282.331 163.354 281.731 163.354 C 281.144 163.354 280.694 163.441 280.381 163.614 C 280.068 163.787 279.911 164.001 279.911 164.254 C 279.911 164.614 280.124 164.881 280.551 165.054 C 280.978 165.227 281.664 165.407 282.611 165.594 C 283.718 165.821 284.628 166.057 285.341 166.304 C 286.054 166.551 286.678 166.954 287.211 167.514 C 287.744 168.074 288.018 168.834 288.031 169.794 C 288.031 171.421 287.481 172.627 286.381 173.414 C 285.281 174.201 283.811 174.594 281.971 174.594 C 279.824 174.594 278.154 174.234 276.961 173.514 C 275.768 172.794 275.171 171.521 275.171 169.694 L 279.351 169.694 C 279.351 170.387 279.531 170.851 279.891 171.084 C 280.251 171.317 280.811 171.434 281.571 171.434 C 282.131 171.434 282.594 171.374 282.961 171.254 C 283.328 171.134 283.511 170.887 283.511 170.514 C 283.511 170.181 283.308 169.931 282.901 169.764 C 282.494 169.597 281.831 169.421 280.911 169.234 C 279.791 168.994 278.864 168.744 278.131 168.484 C 277.398 168.224 276.758 167.794 276.211 167.194 C 275.664 166.594 275.391 165.781 275.391 164.754 C 275.391 163.247 275.974 162.137 277.141 161.424 C 278.308 160.711 279.784 160.354 281.571 160.354 Z M 298.587 160.354 C 300.627 160.354 302.24 160.864 303.427 161.884 C 304.614 162.904 305.207 164.361 305.207 166.254 L 300.987 166.254 C 300.987 165.454 300.777 164.821 300.357 164.354 C 299.937 163.887 299.34 163.654 298.567 163.654 C 297.674 163.654 297.017 163.934 296.597 164.494 C 296.177 165.054 295.967 165.834 295.967 166.834 L 295.967 168.114 C 295.967 169.101 296.177 169.877 296.597 170.444 C 297.017 171.011 297.66 171.294 298.527 171.294 C 299.38 171.294 300.027 171.074 300.467 170.634 C 300.907 170.194 301.127 169.574 301.127 168.774 L 305.207 168.774 C 305.207 170.654 304.63 172.094 303.477 173.094 C 302.324 174.094 300.694 174.594 298.587 174.594 C 296.24 174.594 294.464 173.994 293.257 172.794 C 292.05 171.594 291.447 169.821 291.447 167.474 C 291.447 165.127 292.05 163.354 293.257 162.154 C 294.464 160.954 296.24 160.354 298.587 160.354 Z M 318.661 174.354 L 318.661 169.134 L 313.801 169.134 L 313.801 174.354 L 309.381 174.354 L 309.381 160.594 L 313.801 160.594 L 313.801 165.614 L 318.661 165.614 L 318.661 160.594 L 323.081 160.594 L 323.081 174.354 L 318.661 174.354 Z M 328.037 174.354 L 328.037 160.594 L 332.457 160.594 L 332.457 174.354 L 328.037 174.354 Z M 344.256 160.354 C 346.629 160.354 348.463 160.961 349.756 162.174 C 351.049 163.387 351.696 165.154 351.696 167.474 C 351.696 169.794 351.049 171.561 349.756 172.774 C 348.463 173.987 346.629 174.594 344.256 174.594 C 341.883 174.594 340.053 173.991 338.766 172.784 C 337.479 171.577 336.836 169.807 336.836 167.474 C 336.836 165.141 337.479 163.371 338.766 162.164 C 340.053 160.957 341.883 160.354 344.256 160.354 Z M 344.256 163.654 C 343.309 163.654 342.589 163.941 342.096 164.514 C 341.603 165.087 341.356 165.861 341.356 166.834 L 341.356 168.114 C 341.356 169.087 341.603 169.861 342.096 170.434 C 342.589 171.007 343.309 171.294 344.256 171.294 C 345.203 171.294 345.926 171.007 346.426 170.434 C 346.926 169.861 347.176 169.087 347.176 168.114 L 347.176 166.834 C 347.176 165.861 346.926 165.087 346.426 164.514 C 345.926 163.941 345.203 163.654 344.256 163.654 Z M 364.529 174.354 L 364.529 160.594 L 368.949 160.594 L 368.949 174.354 L 364.529 174.354 Z M 383.748 174.354 L 377.968 167.674 L 377.968 174.354 L 373.908 174.354 L 373.908 160.594 L 377.768 160.594 L 383.548 167.374 L 383.548 160.594 L 387.608 160.594 L 387.608 174.354 L 383.748 174.354 Z M 392.365 160.594 L 403.485 160.594 L 403.485 163.894 L 396.785 163.894 L 396.785 166.254 L 402.545 166.254 L 402.545 169.414 L 396.785 169.414 L 396.785 174.354 L 392.365 174.354 L 392.365 160.594 Z M 407.503 160.594 L 419.403 160.594 L 419.403 163.894 L 411.923 163.894 L 411.923 165.794 L 418.323 165.794 L 418.323 168.954 L 411.923 168.954 L 411.923 171.054 L 419.543 171.054 L 419.543 174.354 L 407.503 174.354 L 407.503 160.594 Z M 431.659 164.114 L 431.659 174.354 L 427.239 174.354 L 427.239 164.114 L 422.719 164.114 L 422.719 160.594 L 436.159 160.594 L 436.159 164.114 L 431.659 164.114 Z M 447.895 164.114 L 447.895 174.354 L 443.475 174.354 L 443.475 164.114 L 438.955 164.114 L 438.955 160.594 L 452.395 160.594 L 452.395 164.114 L 447.895 164.114 Z M 456.411 174.354 L 456.411 160.594 L 460.831 160.594 L 460.831 174.354 L 456.411 174.354 Z M 469.53 174.354 L 464.65 160.594 L 469.37 160.594 L 472.13 169.794 L 472.21 169.794 L 474.99 160.594 L 479.51 160.594 L 474.65 174.354 L 469.53 174.354 Z M 489.307 160.354 C 491.68 160.354 493.514 160.961 494.807 162.174 C 496.1 163.387 496.747 165.154 496.747 167.474 C 496.747 169.794 496.1 171.561 494.807 172.774 C 493.514 173.987 491.68 174.594 489.307 174.594 C 486.934 174.594 485.104 173.991 483.817 172.784 C 482.53 171.577 481.887 169.807 481.887 167.474 C 481.887 165.141 482.53 163.371 483.817 162.164 C 485.104 160.957 486.934 160.354 489.307 160.354 Z M 489.307 163.654 C 488.36 163.654 487.64 163.941 487.147 164.514 C 486.654 165.087 486.407 165.861 486.407 166.834 L 486.407 168.114 C 486.407 169.087 486.654 169.861 487.147 170.434 C 487.64 171.007 488.36 171.294 489.307 171.294 C 490.254 171.294 490.977 171.007 491.477 170.434 C 491.977 169.861 492.227 169.087 492.227 168.114 L 492.227 166.834 C 492.227 165.861 491.977 165.087 491.477 164.514 C 490.977 163.941 490.254 163.654 489.307 163.654 Z" style="white-space: pre; fill: rgb(45, 55, 72); pointer-events: none;">
    <title>open data text</title>
  </path>
</svg>