<?xml version="1.0" encoding="utf-8"?>
<svg width="48" height="48" viewBox="0 0 48 48" fill="none" xmlns="http://www.w3.org/2000/svg">
  <path d="M 16.998 9.088 C 14.677 9.178 12.581 10.006 11.459 11.127 C 10.938 11.648 10.094 11.648 9.574 11.127 C 9.053 10.607 9.053 9.762 9.574 9.242 C 11.303 7.512 14.119 6.53 16.894 6.423 C 19.687 6.314 22.736 7.079 24.872 9.215 C 25.392 9.736 25.392 10.579 24.872 11.101 C 24.351 11.622 23.506 11.621 22.986 11.101 C 21.531 9.646 19.299 8.998 16.998 9.088 Z" style="fill: rgb(144, 122, 214);"/>
  <path fill-rule="evenodd" clip-rule="evenodd" d="M 28.512 30.581 C 25.494 33.13 21.593 34.666 17.334 34.666 C 7.76 34.666 0 26.906 0 17.334 C 0 7.76 7.76 0 17.334 0 C 26.906 0 34.666 7.76 34.666 17.334 C 34.666 21.593 33.13 25.494 30.581 28.512 L 33.526 28 L 47.237 41.712 C 48.254 42.729 48.254 44.378 47.237 45.395 L 45.395 47.237 C 44.378 48.254 42.729 48.254 41.712 47.237 L 28 33.526 L 28.512 30.581 Z M 32 17.334 C 32 25.433 25.433 32 17.334 32 C 9.233 32 2.666 25.433 2.666 17.334 C 2.666 9.233 9.233 2.666 17.334 2.666 C 25.433 2.666 32 9.233 32 17.334 Z M 41.665 39.911 L 32.618 30.864 L 31.125 31.125 L 30.864 32.618 L 39.937 41.691 L 41.665 39.911 Z M 41.823 43.577 L 43.553 45.307 L 45.307 43.553 L 43.551 41.797 L 41.823 43.577 Z" style="fill: rgb(144, 122, 214);"/>
</svg>