<?xml version="1.0" encoding="utf-8"?>
<svg width="48" height="48" viewBox="0 0 48 48" fill="none" xmlns="http://www.w3.org/2000/svg">
  <path fill-rule="evenodd" clip-rule="evenodd" d="M 15.6 24 C 20.241 24 24 20.241 24 15.6 C 24 10.959 20.241 7.2 15.6 7.2 C 10.959 7.2 7.2 10.959 7.2 15.6 C 7.2 20.241 10.959 24 15.6 24 Z M 21.6 15.6 C 21.6 18.915 18.915 21.6 15.6 21.6 C 12.285 21.6 9.6 18.915 9.6 15.6 C 9.6 12.285 12.285 9.6 15.6 9.6 C 18.915 9.6 21.6 12.285 21.6 15.6 Z" style="fill: rgb(0, 191, 165);"/>
  <path fill-rule="evenodd" clip-rule="evenodd" d="M 0 40.8 L 0 34.08 C 0 28.972 10.393 26.4 15.6 26.4 C 19.064 26.4 24.823 27.539 28.289 29.804 C 30.761 29.136 33.472 28.8 35.4 28.8 C 37.63 28.8 40.621 29.249 43.091 30.157 C 44.324 30.61 45.503 31.204 46.394 31.976 C 47.293 32.751 48 33.801 48 35.12 L 48 40.8 L 0 40.8 Z M 2.4 34.08 C 2.4 33.699 2.575 33.178 3.32 32.501 C 4.079 31.811 5.248 31.141 6.729 30.557 C 9.692 29.389 13.292 28.8 15.6 28.8 C 17.908 28.8 21.508 29.389 24.472 30.557 C 25.952 31.141 27.121 31.811 27.88 32.501 C 28.625 33.178 28.8 33.699 28.8 34.08 L 28.8 38.4 L 2.4 38.4 L 2.4 34.08 Z M 30.424 31.763 C 32.239 31.388 34.06 31.2 35.4 31.2 C 37.376 31.2 40.084 31.609 42.263 32.41 C 43.355 32.811 44.237 33.284 44.825 33.792 C 45.408 34.295 45.6 34.737 45.6 35.12 L 45.6 38.4 L 31.2 38.4 L 31.2 34.08 C 31.2 33.239 30.919 32.467 30.424 31.763 Z" style="fill: rgb(0, 191, 165);"/>
  <path fill-rule="evenodd" clip-rule="evenodd" d="M 42 19.8 C 42 23.447 39.047 26.4 35.4 26.4 C 31.753 26.4 28.8 23.447 28.8 19.8 C 28.8 16.153 31.753 13.2 35.4 13.2 C 39.047 13.2 42 16.153 42 19.8 Z M 35.4 24 C 37.721 24 39.6 22.121 39.6 19.8 C 39.6 17.479 37.721 15.6 35.4 15.6 C 33.079 15.6 31.2 17.479 31.2 19.8 C 31.2 22.121 33.079 24 35.4 24 Z" style="fill: rgb(0, 191, 165);"/>
</svg>