<?xml version="1.0" encoding="utf-8"?>
<svg width="48" height="48" viewBox="0 0 48 48" fill="none" xmlns="http://www.w3.org/2000/svg">
  <path d="M 14.4 19.2 L 14.4 22.8 L 33.6 22.8 L 33.6 19.2 L 14.4 19.2 Z" style="fill: rgb(178, 155, 255);"/>
  <path d="M 14.4 28.8 L 14.4 25.2 L 19.2 25.2 L 19.2 28.8 L 14.4 28.8 Z" style="fill: rgb(178, 155, 255);"/>
  <path d="M 14.4 31.2 L 14.4 34.8 L 19.2 34.8 L 19.2 31.2 L 14.4 31.2 Z" style="fill: rgb(178, 155, 255);"/>
  <path d="M 21.6 31.2 L 21.6 34.8 L 26.4 34.8 L 26.4 31.2 L 21.6 31.2 Z" style="fill: rgb(178, 155, 255);"/>
  <path d="M 28.8 31.2 L 28.8 34.8 L 33.6 34.8 L 33.6 31.2 L 28.8 31.2 Z" style="fill: rgb(178, 155, 255);"/>
  <path d="M 28.8 28.8 L 28.8 25.2 L 33.6 25.2 L 33.6 28.8 L 28.8 28.8 Z" style="fill: rgb(178, 155, 255);"/>
  <path d="M 26.4 28.8 L 21.6 28.8 L 21.6 25.2 L 26.4 25.2 L 26.4 28.8 Z" style="fill: rgb(178, 155, 255);"/>
  <path fill-rule="evenodd" clip-rule="evenodd" d="M 31.2 0 L 8.4 0 C 7.737 0 7.2 0.537 7.2 1.2 L 7.2 46.8 C 7.2 47.463 7.737 48 8.4 48 L 39.6 48 C 40.263 48 40.8 47.463 40.8 46.8 L 40.8 9.6 L 32.4 9.6 C 31.737 9.6 31.2 9.063 31.2 8.4 L 31.2 0 Z M 12 18 C 12 17.337 12.537 16.8 13.2 16.8 L 34.8 16.8 C 35.463 16.8 36 17.337 36 18 L 36 36 C 36 36.663 35.463 37.2 34.8 37.2 L 13.2 37.2 C 12.537 37.2 12 36.663 12 36 L 12 18 Z" style="fill: rgb(178, 155, 255);"/>
  <path d="M 40.097 7.2 L 33.6 7.2 L 33.6 0.703 L 40.097 7.2 Z" style="fill: rgb(178, 155, 255);"/>
</svg>