<?xml version="1.0" encoding="utf-8"?>
<svg width="48" height="48" viewBox="0 0 48 48" fill="none" xmlns="http://www.w3.org/2000/svg">
  <path fill-rule="evenodd" clip-rule="evenodd" d="M 18.162 1.297 C 18.162 0.58 18.742 0 19.459 0 L 24.648 0 C 25.365 0 25.946 0.58 25.946 1.297 C 25.946 2.014 25.365 2.594 24.648 2.594 L 23.351 2.594 L 23.351 6.487 C 23.351 6.503 23.351 6.521 23.35 6.54 C 26.676 6.814 29.704 8.133 32.107 10.168 C 32.119 10.154 32.132 10.141 32.146 10.128 L 34.896 7.376 L 33.979 6.46 C 33.472 5.952 33.472 5.132 33.979 4.625 C 34.486 4.118 35.308 4.118 35.814 4.625 L 39.483 8.295 C 39.99 8.801 39.99 9.622 39.483 10.128 C 38.977 10.636 38.155 10.636 37.648 10.128 L 36.731 9.212 L 33.979 11.963 C 33.967 11.976 33.954 11.989 33.941 12 C 36.095 14.545 37.446 17.79 37.606 21.345 C 36.381 20.962 35.079 20.757 33.729 20.757 C 26.565 20.757 20.757 26.565 20.757 33.729 C 20.757 35.079 20.962 36.381 21.345 37.605 C 17.79 37.446 14.545 36.095 12 33.941 C 11.998 33.943 11.995 33.945 11.994 33.948 C 11.984 33.959 11.973 33.969 11.963 33.979 L 9.212 36.731 L 10.129 37.648 C 10.636 38.155 10.636 38.977 10.129 39.483 C 9.622 39.99 8.801 39.99 8.295 39.483 L 4.625 35.814 C 4.118 35.308 4.118 34.486 4.625 33.979 C 5.132 33.472 5.952 33.472 6.46 33.979 L 7.376 34.896 L 10.129 32.146 C 10.141 32.132 10.155 32.119 10.168 32.107 C 8.133 29.704 6.814 26.676 6.54 23.35 C 6.522 23.351 6.503 23.351 6.487 23.351 L 2.594 23.351 L 2.594 24.648 C 2.594 25.365 2.014 25.946 1.297 25.946 C 0.58 25.946 0 25.365 0 24.648 L 0 19.459 C 0 18.742 0.58 18.162 1.297 18.162 C 2.014 18.162 2.594 18.742 2.594 19.459 L 2.594 20.757 L 6.487 20.757 C 6.503 20.757 6.522 20.757 6.54 20.758 C 6.814 17.432 8.133 14.404 10.168 12 C 10.166 11.998 10.163 11.995 10.16 11.993 C 10.149 11.984 10.139 11.973 10.129 11.963 L 7.376 9.212 L 6.46 10.128 C 5.952 10.636 5.132 10.636 4.625 10.128 C 4.119 9.622 4.119 8.801 4.625 8.295 L 8.295 4.625 C 8.801 4.118 9.622 4.118 10.129 4.625 C 10.636 5.132 10.636 5.952 10.129 6.46 L 9.212 7.376 L 11.963 10.128 C 11.976 10.141 11.989 10.154 12 10.168 C 14.404 8.133 17.432 6.814 20.758 6.54 C 20.757 6.521 20.757 6.503 20.757 6.487 L 20.757 2.594 L 19.459 2.594 C 18.742 2.594 18.162 2.014 18.162 1.297 Z M 20.757 18.162 C 20.757 20.31 19.013 22.054 16.865 22.054 C 14.715 22.054 12.973 20.31 12.973 18.162 C 12.973 16.011 14.715 14.27 16.865 14.27 C 19.013 14.27 20.757 16.011 20.757 18.162 Z" style="fill: rgb(178, 235, 228);"/>
  <path fill-rule="evenodd" clip-rule="evenodd" d="M 23.351 33.729 C 23.351 27.998 27.998 23.351 33.729 23.351 C 39.462 23.351 44.108 27.998 44.108 33.729 C 44.108 36.127 43.295 38.336 41.929 40.094 L 47.62 45.786 C 48.127 46.292 48.127 47.113 47.62 47.619 C 47.113 48.127 46.292 48.127 45.785 47.619 L 40.094 41.929 C 38.336 43.295 36.127 44.108 33.729 44.108 C 27.998 44.108 23.351 39.461 23.351 33.729 Z M 33.729 25.946 C 29.431 25.946 25.946 29.431 25.946 33.729 C 25.946 38.029 29.431 41.513 33.729 41.513 C 38.028 41.513 41.513 38.029 41.513 33.729 C 41.513 29.431 38.028 25.946 33.729 25.946 Z" style="fill: rgb(178, 235, 228);"/>
</svg>