<?xml version="1.0" encoding="utf-8"?>
<svg width="48" height="48" viewBox="0 0 48 48" fill="none" xmlns="http://www.w3.org/2000/svg">
  <path d="M 19.463 0.07 C 18.75 0.07 18.17 0.649 18.17 1.363 C 18.17 2.078 18.75 2.655 19.463 2.655 L 20.757 2.655 L 20.757 6.534 C 20.757 6.553 20.758 6.57 20.758 6.588 C 17.444 6.862 14.425 8.176 12.03 10.204 C 12.018 10.19 12.006 10.177 11.993 10.165 L 9.252 7.422 L 10.166 6.508 C 10.67 6.002 10.67 5.183 10.166 4.679 C 9.661 4.174 8.842 4.174 8.337 4.679 L 4.679 8.336 C 4.175 8.842 4.175 9.661 4.679 10.165 C 5.184 10.67 6.003 10.67 6.508 10.165 L 7.422 9.251 L 10.166 11.993 C 10.178 12.005 10.191 12.018 10.203 12.029 C 8.176 14.425 6.861 17.444 6.588 20.759 C 6.571 20.757 6.552 20.757 6.534 20.757 L 2.655 20.757 L 2.655 19.463 C 2.655 18.751 2.077 18.17 1.364 18.17 C 0.65 18.17 0.071 18.751 0.071 19.463 L 0.071 24.636 C 0.071 25.349 0.65 25.928 1.364 25.928 C 2.077 25.928 2.655 25.349 2.655 24.636 L 2.655 23.342 L 6.534 23.342 C 6.552 23.342 6.571 23.341 6.588 23.341 C 6.861 26.655 8.176 29.673 10.203 32.068 C 10.191 32.08 10.178 32.093 10.166 32.107 L 7.422 34.849 L 6.508 33.935 C 6.003 33.43 5.184 33.43 4.679 33.935 C 4.175 34.439 4.175 35.257 4.679 35.764 L 8.337 39.419 C 8.842 39.925 9.661 39.925 10.166 39.419 C 10.67 38.915 10.67 38.095 10.166 37.591 L 9.252 36.677 L 11.993 33.935 C 12.006 33.92 12.019 33.908 12.03 33.896 C 14.052 35.607 16.518 36.81 19.23 37.308 C 19.932 37.438 20.607 36.974 20.736 36.271 C 20.865 35.569 20.399 34.894 19.697 34.766 C 13.681 33.66 9.121 28.386 9.121 22.049 C 9.121 14.909 14.909 9.121 22.049 9.121 C 28.386 9.121 33.66 13.679 34.766 19.698 C 34.894 20.399 35.568 20.865 36.27 20.735 C 36.973 20.606 37.438 19.933 37.309 19.23 C 36.811 16.517 35.607 14.053 33.895 12.031 C 33.898 12.028 33.901 12.026 33.903 12.024 C 33.913 12.013 33.924 12.003 33.934 11.993 L 36.677 9.251 L 37.591 10.165 C 38.096 10.67 38.916 10.67 39.419 10.165 C 39.925 9.661 39.925 8.842 39.419 8.336 L 35.763 4.679 C 35.258 4.174 34.439 4.174 33.934 4.679 C 33.43 5.183 33.43 6.002 33.934 6.508 L 34.848 7.422 L 32.106 10.165 C 32.094 10.177 32.08 10.19 32.069 10.204 C 29.673 8.176 26.656 6.861 23.341 6.588 C 23.342 6.57 23.342 6.553 23.342 6.534 L 23.342 2.655 L 24.636 2.655 C 25.349 2.655 25.928 2.078 25.928 1.363 C 25.928 0.649 25.349 0.07 24.636 0.07 L 19.463 0.07 Z" style="fill: rgb(0, 191, 165);"/>
  <path fill-rule="evenodd" clip-rule="evenodd" d="M 13 18.817 C 13 16.319 15.025 14.292 17.524 14.292 C 20.024 14.292 22.049 16.319 22.049 18.817 C 22.049 21.317 20.024 23.342 17.524 23.342 C 15.025 23.342 13 21.317 13 18.817 Z M 17.524 16.879 C 16.455 16.879 15.585 17.746 15.585 18.817 C 15.585 19.889 16.455 20.757 17.524 20.757 C 18.595 20.757 19.463 19.889 19.463 18.817 C 19.463 17.746 18.595 16.879 17.524 16.879 Z" style="fill: rgb(0, 191, 165);"/>
  <path fill-rule="evenodd" clip-rule="evenodd" d="M 33.039 22.049 C 26.97 22.049 22.049 26.969 22.049 33.039 C 22.049 39.109 26.97 44.029 33.039 44.029 C 35.608 44.029 37.97 43.148 39.841 41.67 L 45.7 47.528 C 46.205 48.035 47.024 48.035 47.529 47.528 C 48.034 47.025 48.034 46.206 47.529 45.7 L 41.67 39.841 C 43.147 37.969 44.029 35.608 44.029 33.039 C 44.029 26.969 39.108 22.049 33.039 22.049 Z M 24.636 33.039 C 24.636 28.398 28.398 24.636 33.039 24.636 C 37.68 24.636 41.442 28.398 41.442 33.039 C 41.442 37.68 37.68 41.442 33.039 41.442 C 28.398 41.442 24.636 37.68 24.636 33.039 Z" style="fill: rgb(0, 191, 165);"/>
</svg>