<?xml version="1.0" encoding="utf-8"?>
<svg viewBox="0 0 136 136" xmlns="http://www.w3.org/2000/svg">
  <g transform="matrix(6.081081, 0, 0, 6.081081, -4.972971, -9.945942)">
    <g>
      <path fill="none" d="M0 0h24v24H0z"/>
    </g>
  </g>
  <g transform="matrix(6.081081, 0, 0, 6.081081, -4.972971, -4.972971)">
    <g>
      <path fill="none" d="M0 0h24v24H0z"/>
    </g>
  </g>
  <g transform="matrix(6.081081, 0, 0, 6.081081, -4.972971, -4.972971)">
    <g>
      <path fill="none" d="M0 0h24v24H0z"/>
      <path d="M21.543 6.498C22 8.28 22 12 22 12s0 3.72-.457 5.502c-.254.985-.997 1.76-1.938 2.022C17.896 20 12 20 12 20s-5.893 0-7.605-.476c-.945-.266-1.687-1.04-1.938-2.022C2 15.72 2 12 2 12s0-3.72.457-5.502c.254-.985.997-1.76 1.938-2.022C6.107 4 12 4 12 4s5.896 0 7.605.476c.945.266 1.687 1.04 1.938 2.022zM10 15.5l6-3.5-6-3.5v7z" style="fill: rgb(45, 55, 72);"/>
    </g>
  </g>
</svg>